<svg xmlns="http://www.w3.org/2000/svg" width="256" height="384" preserveAspectRatio="xMidYMid" xmlns:v="https://vecta.io/nano"><path d="M64 384c35.328 0 64-28.672 64-64v-64H64c-35.328 0-64 28.672-64 64s28.672 64 64 64z" fill="#0acf83"/><path d="M0 192c0-35.328 28.672-64 64-64h64v128H64c-35.328 0-64-28.672-64-64z" fill="#a259ff"/><path d="M0 64C0 28.672 28.672.0 64 0h64V128H64C28.672 128 0 99.328.0 64z" fill="#f24e1e"/><path d="M128 0h64c35.328 0 64 28.672 64 64s-28.672 64-64 64h-64V0z" fill="#ff7262"/><path d="M256 192c0 35.328-28.672 64-64 64s-64-28.672-64-64 28.672-64 64-64 64 28.672 64 64z" fill="#1abcfe"/></svg>