<svg xmlns="http://www.w3.org/2000/svg" width="2500" height="2500" viewBox="0 0 256 256" preserveAspectRatio="xMinYMin meet" xmlns:v="https://vecta.io/nano"><path d="M251.172 116.594L139.4 4.828c-6.433-6.437-16.873-6.437-23.314 0l-23.2 23.2L122.32 57.48c6.842-2.312 14.688-.76 20.142 4.693 5.48 5.49 7.02 13.402 4.652 20.266l28.375 28.376c6.865-2.365 14.786-.835 20.27 4.657 7.663 7.66 7.663 20.075 0 27.74a19.62 19.62 0 0 1-27.749 0c-5.764-5.77-7.188-14.235-4.27-21.336l-26.462-26.462-.003 69.637a19.82 19.82 0 0 1 5.188 3.71c7.663 7.66 7.663 20.076 0 27.747-7.665 7.662-20.086 7.662-27.74 0-7.663-7.67-7.663-20.086 0-27.746a19.654 19.654 0 0 1 6.421-4.281V94.196a19.378 19.378 0 0 1-6.421-4.281c-5.806-5.798-7.202-14.317-4.227-21.446L81.47 39.442 4.83 116.077c-6.44 6.443-6.44 16.884 0 23.322l111.774 111.768c6.435 6.438 16.873 6.438 23.316 0l111.25-111.25a16.5 16.5 0 0 0 0-23.324" fill="#de4c36"/></svg>