<svg xmlns="http://www.w3.org/2000/svg" width="35" height="35" viewBox="0 0 512 512" xmlns:v="https://vecta.io/nano"><path d="M512 256c0 15.485-1.38 30.647-4.012 45.37C486.578 421.115 381.9 512 256 512c-94.856 0-177.664-51.587-221.884-128.24-10.794-18.693-19.278-38.87-25.088-60.155C3.135 302.07 0 279.395 0 256 0 114.615 114.615 0 256 0c116.694 0 215.144 78.075 245.98 184.842C508.5 207.433 512 231.31 512 256z" fill="#8f9ed1"/><path d="M130.173 178.24h-94.28L9.028 323.605a253.59 253.59 0 0 0 25.088 60.155h8.746l10.407-56.3h51.806c63.08 0 80.04-56.633 84.104-84.45 4.075-27.805-16.27-64.773-59.006-64.773zm13.678 69.464c-2.3 15.768-13.96 47.877-49.716 47.877H59.162l15.632-84.605h35.6c34.7 0 35.766 20.96 33.457 36.728zm358.13-62.862c-8.014-4.138-17.565-6.604-28.6-6.604H379.1L341.117 383.76h44.95l10.407-56.3h51.806c28.056 0 47-11.2 59.705-26.1C510.62 286.647 512 271.485 512 256c0-24.7-3.5-48.567-10.02-71.158zm-14.92 62.86c-2.3 15.768-13.96 47.877-49.727 47.877H402.37L418 210.975h35.6c34.7 0 35.766 20.96 33.457 36.728zM309.238 178.92H254.64l10.248-55.45h-44.766L182.14 328.984h44.766l21.843-118.186h28.6c19 0 31.88 4.07 29.165 21.705S288.2 328.14 288.2 328.14h45.444s17.635-86.818 20.348-111.237-19.67-37.983-44.765-37.983z" fill="#f2f2f2"/></svg>