<svg xmlns="http://www.w3.org/2000/svg" height="32" viewBox="0 0 512 512" width="32" xmlns:v="https://vecta.io/nano"><linearGradient id="A" gradientUnits="userSpaceOnUse" x1="0" x2="512" y1="256" y2="256"><stop offset="0" stop-color="#00f38d"/><stop offset="1" stop-color="#009eff"/></linearGradient><path d="M512 256c0 141.387-114.613 256-256 256S0 397.387 0 256 114.613 0 256 0s256 114.613 256 256zm0 0" fill="url(#A)"/><path d="M341.94 226.19c15.22-15.633 24.613-36.97 24.613-60.457 0-47.828-38.9-86.734-86.734-86.734H108.574v30h39.895v294h-39.895v30H314.16c58.047 0 105.27-47.223 105.27-105.266 0-48.434-32.88-89.324-77.488-101.543zM178.47 109H279.82c31.285 0 56.734 25.45 56.734 56.734s-25.453 56.73-56.734 56.73H178.47zm135.69 294H178.47V252.465h135.69c41.504 0 75.27 33.766 75.27 75.27S355.664 403 314.16 403zm0 0" fill="#fff"/></svg>