<svg xmlns="http://www.w3.org/2000/svg" width="256" height="174" preserveAspectRatio="xMidYMid" fill="#00979c" xmlns:v="https://vecta.io/nano"><path d="M14.044 130.4L.92 173.242h10.328l2.37-7.983H26.42l2.305 7.983h11.23L26.83 130.4H14.044zm2.156 26.24l3.9-13.325 3.855 13.325H16.2zm48.432-2.944l-.474-.47.946-.394c1.25-.574 2.345-1.343 3.255-2.28.92-.946 1.643-2.086 2.148-3.4.5-1.287.754-2.766.754-4.393 0-2.243-.405-4.183-1.2-5.768a10.17 10.17 0 0 0-3.461-3.924c-1.447-.97-3.207-1.67-5.232-2.082-1.946-.395-4.138-.597-6.513-.597h-13.4v42.843H51.73V156.5h.305c1.124 0 2.06.247 2.864.757.797.505 1.408 1.25 1.87 2.282l6.2 13.7h11.955L67.4 157.96c-.914-1.856-1.817-3.25-2.76-4.263h0zm-4.47-8.22a3.95 3.95 0 0 1-1.26 1.418c-.58.408-1.302.72-2.146.93-.9.223-1.908.335-3.024.335H51.73v-9.02h2.258c2.352 0 4.1.37 5.195 1.098.954.635 1.418 1.705 1.418 3.273 0 .758-.144 1.4-.44 1.964h0zm44.878-9.99c-1.73-1.74-3.912-3.04-6.485-3.868-2.508-.8-5.46-1.22-8.773-1.22h-13.6v42.843h11.83c3.817 0 7.156-.52 9.923-1.545 2.8-1.04 5.157-2.547 6.974-4.48s3.166-4.288 4.016-7.007c.834-2.662 1.256-5.656 1.256-8.9 0-3.535-.423-6.636-1.26-9.217-.854-2.644-2.163-4.866-3.892-6.606h0zm-8.4 26.037c-1.784 1.982-4.372 2.945-7.912 2.945h-2.26v-25.297h2.803c1.98 0 3.644.28 4.94.833 1.258.535 2.23 1.3 2.975 2.3.76 1.044 1.3 2.354 1.637 3.9.343 1.626.518 3.5.518 5.6 0 4.458-.9 7.728-2.702 9.72h0zm38.302-3.87c0 1.477-.136 2.736-.407 3.742-.252.94-.623 1.706-1.105 2.28a3.91 3.91 0 0 1-1.726 1.19c-.76.272-1.734.4-2.894.4-1.227 0-2.24-.157-3.008-.468-.74-.3-1.333-.73-1.817-1.3s-.834-1.32-1.035-2.185c-.224-.956-.337-2.08-.337-3.347V130.4H112.34v28.028c0 2.316.287 4.442.85 6.318.587 1.95 1.555 3.634 2.878 5.005s3.055 2.43 5.148 3.147c2.034.7 4.492 1.056 7.305 1.056 2.515 0 4.823-.355 6.857-1.056 2.08-.713 3.873-1.794 5.33-3.214s2.6-3.212 3.362-5.32c.76-2.07 1.146-4.494 1.146-7.205V130.4h-10.274v27.255m15.528-18.637h9.22v25.544h-9.22v8.68h28.843v-8.68h-9.22v-25.544h9.22v-8.62H150.47v8.62m57.435 15.792l-11.485-24.4H184.8v42.843h9.57v-24.876l11.547 24.876h11.57V130.4h-9.57v24.412m42.82-19.344c-3-3.815-7.497-5.75-13.364-5.75-2.5 0-4.904.445-7.116 1.322-2.243.9-4.225 2.273-5.892 4.117-1.652 1.828-2.964 4.18-3.897 6.986-.923 2.77-1.4 6.094-1.4 9.878 0 7 1.487 12.428 4.42 16.166 3 3.826 7.497 5.765 13.364 5.765 2.5 0 4.907-.445 7.12-1.322 2.244-.9 4.225-2.275 5.9-4.116 1.65-1.827 2.962-4.177 3.898-6.986.92-2.77 1.4-6.093 1.4-9.88 0-7-1.487-12.455-4.42-16.182h0zm-6.762 22.26c-.294 1.58-.753 2.914-1.364 3.963-.58 1-1.298 1.73-2.193 2.236s-2.003.758-3.3.758c-2.568 0-4.358-.956-5.472-2.92-1.224-2.16-1.845-5.56-1.845-10.115 0-2.138.154-4.06.46-5.706.294-1.578.756-2.9 1.376-3.958.6-1.003 1.3-1.737 2.2-2.244.88-.5 1.982-.755 3.28-.755 2.588 0 4.383.954 5.486 2.916 1.215 2.16 1.83 5.565 1.83 10.12 0 2.144-.154 4.064-.46 5.707h0zM240.315 5.74h1.823v4.793h1.293V5.74h1.838v-1.2h-4.954v1.2"/><path d="M249.768 4.55l-1.247 4.078-1.3-4.078h-1.687v5.983h1.216V6.7l1.206 3.822h1.1L250.22 6.8v3.723h1.2V4.55h-1.662m-59.483 115.777c-16.288 0-30.214-5.492-42.47-16.725-7.57-6.937-13.813-15.436-19.556-24.273-5.742 8.837-11.985 17.336-19.555 24.273-13.17 12.07-28.267 17.5-46.15 16.634-34.1-.148-61.798-27.06-61.798-60.118C.747 26.97 28.596 0 62.827 0c18.732 0 34.503 6.2 48.2 18.95 6.584 6.125 12.142 13.23 17.212 20.664 5.07-7.434 10.63-14.54 17.212-20.664C159.168 6.2 174.94 0 193.67 0c34.232 0 62.08 26.97 62.08 60.118 0 33.058-27.696 59.97-61.798 60.118a74.82 74.82 0 0 1-3.678.091h0zm-49.555-61c6.794 11.023 13.388 21.283 21.42 28.643 9.066 8.3 18.622 11.727 30.975 11.074l.556-.015c22.53 0 40.862-17.45 40.862-38.9s-18.33-38.9-40.862-38.9c-13.3 0-24.028 4.216-33.758 13.267-7.267 6.76-13.267 15.423-19.193 24.83h0zm-77.893-38.1c-22.53 0-40.862 17.45-40.862 38.9s18.33 38.9 40.862 38.9l.557.015c12.354.653 21.908-2.765 30.974-11.074 8.032-7.36 14.627-17.62 21.42-28.643-5.926-9.408-11.926-18.07-19.192-24.83-9.73-9.05-20.458-13.267-33.76-13.267h0z"/><path d="M196.477 52.407V40.9H184.5v11.506h-11.505v11.918H184.5v11.6h11.976v-11.6h11.506V52.407h-11.506M45.6 52.263h37.817v12.292H45.6V52.263z"/></svg>