<svg xmlns="http://www.w3.org/2000/svg" height="32" viewBox="0 0 512 512" width="32" xmlns:v="https://vecta.io/nano"><path d="M512 46c0-24.853-20.147-45-45-45H45C20.147 1 0 21.147 0 46v90l10 10h492l10-10z" fill="#0052c2"/><path d="M512 46v90l-10 10H256V1h211c24.85 0 45 20.15 45 45z" fill="#003481"/><path d="m436 61h-90c-8.284.0-15 6.716-15 15s6.716 15 15 15h90c8.284.0 15-6.716 15-15s-6.716-15-15-15z" fill="#0052c2"/><circle cx="196" cy="76" fill="#f03800" r="15"/><circle cx="136" cy="76" fill="#fdbf00" r="15"/><circle cx="76" cy="76" fill="#37d742" r="15"/><path d="m0 136v330c0 24.813 20.187 45 45 45h422c24.813.0 45-20.187 45-45V136z" fill="#e0f4ff"/><path d="M512 136v330c0 24.8-20.2 45-45 45H256V136z" fill="#b8e0f5"/><path d="M306.91 197.213c-7.614-3.263-16.433.264-19.696 7.878l-90 210c-3.264 7.614.264 16.433 7.878 19.696s16.434-.266 19.696-7.878l90-210c3.264-7.615-.264-16.433-7.878-19.696z" fill="#ff641a"/><path d="M314.8 216.9L256 354.1V277.9l31.2-72.82c3.27-7.6 12.08-11.14 19.7-7.88 7.6 3.27 11.14 12.08 7.88 19.7z" fill="#f03800"/><path d="M175.37 364.287L115.012 316l60.358-48.287c6.47-5.175 7.518-14.614 2.343-21.083s-14.617-7.517-21.083-2.342l-75 60c-7.5 5.997-7.504 17.424 0 23.426l75 60c6.47 5.176 15.9 4.126 21.083-2.342s4.127-15.9-2.343-21.085z" fill="#ff641a"/><path d="M430.37 304.287l-75-60a15 15 0 0 0-21.083 2.342c-5.175 6.47-4.127 15.91 2.343 21.083L396.988 316l-60.358 48.287c-6.47 5.175-7.518 14.614-2.343 21.083 5.182 6.476 14.623 7.512 21.083 2.342l75-60c7.5-5.997 7.504-17.423 0-23.425z" fill="#f03800"/></svg>