<svg xmlns="http://www.w3.org/2000/svg" xmlns:xlink="http://www.w3.org/1999/xlink" height="512" width="512" xmlns:v="https://vecta.io/nano"><path d="M428.028 512c16.845 0 30.5-13.655 30.5-30.5V97.523H444.9c-10.443 0-18.91-8.466-18.91-18.91V28.692L411.923 2.74C407.975.93 403.716 0 399.3 0H137.173c-16.845 0-30.5 13.655-30.5 30.5v451c0 16.845 13.655 30.5 30.5 30.5z" fill="#f4fbff"/><path d="M444.45 97.523V481.5c0 16.844-13.655 30.5-30.5 30.5h64.996c16.845 0 30.5-13.655 30.5-30.5V110.156c0-4.4-.95-8.703-2.74-12.633z" fill="#e4f6ff"/><path d="M500.513 88.6L420.856 8.933a30.48 30.48 0 0 0-8.933-6.193v75.874c0 10.443 8.466 18.91 18.91 18.91h75.874c-1.5-3.294-3.585-6.326-6.193-8.933z" fill="#e28086"/><path d="M217.877 380.093l23.456-23.456 49.132 49.132L267 429.225z" fill="#4a80aa"/><path d="M365.373 465.827l-70.242-70.242a10.31 10.31 0 0 0-14.576 0L256.88 419.26a10.31 10.31 0 0 0 0 14.576l70.242 70.242c10.563 10.563 27.688 10.563 38.25 0s10.562-27.688 0-38.25z" fill="#cc9675"/><circle cx="144.723" cy="283.429" fill="#bed8fb" r="142.169"/><circle cx="144.723" cy="283.429" fill="#f4fbff" r="111.36"/><path d="M168.56 335.382a5.62 5.62 0 0 1-4.92-5.548l-.108-25.684-39.242.165.108 25.684c.012 2.823-2.074 5.214-4.873 5.59 0 0-7.246 24.765 24.622 24.63s24.413-24.837 24.413-24.837z" fill="#ffcbbe"/><path d="M202.882 342.892c-8.99-3.958-25.966-6.462-34.32-7.51l-.05.062c-12.535 15.68-36.357 15.75-48.985.144-8.347 1.12-25.3 3.767-34.257 7.8-9.3 4.195-14.67 13.36-14.864 22.976 42.004 37.706 105.767 37.898 147.993.574.166-10.645-5.748-19.745-15.516-24.045z" fill="#407093"/><path d="M174.537 224c0-6.192-5.02-11.21-11.21-11.21H126.03c-15 0-27.142 12.152-27.142 27.143v20.2l9.27 7.108h72.483l9.27-15.61v-12.63c0-6.192-5.02-11.21-11.21-11.21h-.378a3.79 3.79 0 0 1-3.787-3.788z" fill="#4a80aa"/><path d="M189.912 251.618l-17.786-1.668a35.06 35.06 0 0 0-21.585 5.009c-5.51 3.376-11.85 5.162-18.312 5.162H98.887v16.106c0 3.26 2.643 5.902 5.902 5.902 1.013 0 1.865.78 1.928 1.793 1.225 19.75 17.623 35.393 37.682 35.393 20.078 0 36.487-15.67 37.64-35.447.057-.98.88-1.74 1.863-1.74h.096c3.315 0 5.996-2.688 5.974-5.995l-.06-24.516z" fill="#ffddce"/><g fill="#407093"><use xlink:href="#B"/><use xlink:href="#B" y="46.588"/><use xlink:href="#B" y="93.165"/><path d="M392.702 348.043H326.09a7.73 7.73 0 0 1-7.726-7.726 7.73 7.73 0 0 1 7.726-7.726h66.613a7.73 7.73 0 0 1 7.726 7.726 7.73 7.73 0 0 1-7.726 7.726z"/></g><path d="M317.198 97.523H163.922c-4.9 0-8.89-3.98-8.89-8.89v-29.6c0-4.9 3.98-8.89 8.89-8.89H317.2c4.9 0 8.89 3.98 8.89 8.89v29.6c-.001 4.9-3.98 8.89-8.892 8.89z" fill="#ffe07d"/><defs ><path id="B" d="M459.315 208.3H326.09a7.73 7.73 0 0 1-7.726-7.726 7.73 7.73 0 0 1 7.726-7.726h133.225a7.73 7.73 0 0 1 7.726 7.726 7.73 7.73 0 0 1-7.725 7.726z"/></defs></svg>