<svg xmlns="http://www.w3.org/2000/svg" width="1963" height="2500" viewBox="0 0 256 326" preserveAspectRatio="xMinYMin meet" fill="#2ba977" xmlns:v="https://vecta.io/nano"><path d="M114.784 0h53.278v244.2c-27.3 5.162-47.38 7.193-69.117 7.193C33.873 251.316 0 222.245 0 166.412c0-53.795 35.93-88.708 91.608-88.708 8.64 0 15.222.68 23.176 2.717V0zm1.867 124.427c-6.24-2.038-11.382-2.717-17.965-2.717-26.947 0-42.512 16.437-42.512 45.243 0 28.046 14.88 43.532 42.17 43.532 5.896 0 10.696-.332 18.307-1.35v-84.707zM255.187 84.26v122.263c0 42.105-3.154 62.353-12.4 79.8-8.64 16.783-20.022 27.366-43.54 39.055L149.8 302.08c23.52-10.93 34.9-20.588 42.17-35.327 7.6-15.072 10-32.53 10-78.445V84.26h53.2zM196.608 0h53.278v54.135h-53.278V0z"/></svg>