<svg width="256" height="384" viewBox="0 0 256 384" xmlns="http://www.w3.org/2000/svg" xmlns:xlink="http://www.w3.org/1999/xlink" preserveAspectRatio="xMidYMid"><g><path d="M64 384C99.328 384 128 355.328 128 320V256H64C28.672 256 0 284.672.0 320 0 355.328 28.672 384 64 384z" fill="#0acf83"/><path d="M0 192c0-35.328 28.672-64 64-64h64V256H64C28.672 256 0 227.328.0 192z" fill="#a259ff"/><path d="M0 64C0 28.672 28.672.0 64 0h64V128H64C28.672 128 0 99.328.0 64z" fill="#f24e1e"/><path d="M128 0h64c35.328.0 64 28.672 64 64C256 99.328 227.328 128 192 128H128V0z" fill="#ff7262"/><path d="M256 192C256 227.328 227.328 256 192 256 156.672 256 128 227.328 128 192 128 156.672 156.672 128 192 128 227.328 128 256 156.672 256 192z" fill="#1abcfe"/></g></svg>