<svg width="256" height="380" viewBox="0 0 256 380" xmlns="http://www.w3.org/2000/svg" xmlns:xlink="http://www.w3.org/1999/xlink" preserveAspectRatio="xMidYMid"><g><path d="M255.846266 364.169023C255.846266 372.746026 198.585817 379.699467 127.950538 379.699467 57.3152585 379.699467.0548093995 372.746026.0548093995 364.169023.0548093995 355.590684 67.2250653 348.639248 127.950538 348.639248 200.236783 348.639248 255.846266 355.590684 255.846266 364.169023" fill="#1a4658"/><path d="M247.92965 252.109201C243.971342 252.109201 239.707572 250.281775 236.66164 236.274632 233.615708 222.267488 229.049149 207.954883 229.049149 207.954883 233.921838 207.954883 236.66164 205.822663 236.66164 205.822663 233.311582 204.299363 226.003217 199.123885 221.131864 192.728564 216.259843 186.333911 203.773995 175.979614 203.773995 175.979614V155.273692C203.773995 141.265211 212.758057 130.304 212.758057 130.304 206.668198 130.304 203.773995 135.784272 203.773995 135.784272V106.246684C203.773995 77.0132219 218.542454 63.9204595 218.542454 63.9204595 213.974559 63.6163342 210.929963 65.7472167 210.929963 65.7472167 213.061514 44.1275822 219.685431 37.7322611 219.685431 37.7322611 195.324658 31.3369399 181.735269 45.6495457 181.735269 45.6495457 178.994799 32.5561149 189.710037 24.940282 189.710037 24.940282 177.225525 22.199812 166.899969 25.8539948 166.899969 25.8539948 166.899969 6.67003655 174.526496.271373368 174.526496.271373368 136.462037.271373368 114.849755 28.891906 114.849755 28.891906 113.327791 16.7108512 116.679854 6.04240209 116.679854 6.04240209 79.8345692 21.572846 70.0925326 55.9650757 70.0925326 55.9650757 67.6568564 50.1800104 67.3527311 37.0458068 67.3527311 37.0458068c0 0-15.226318599999999 25.5030809-17.9667885 43.163738900000006C46.6454726 97.8722089 51.8216188 148.573577 51.8216188 148.573577 51.8216188 148.573577 49.386611 145.52965 44.2097963 144.920731 44.2097963 144.920731 49.6907363 151.011258 49.6907363 164.714277 49.6907363 164.714277 47.558517 162.886851 43.9050026 163.800564 43.9050026 163.800564 49.6900679 168.97671 50.2996554 177.807708 50.2996554 177.807708 43.6002089 182.375603 39.9460261 186.943499 39.9460261 186.943499 34.159624 187.247624 31.1150287 188.161337 31.1150287 188.161337 35.987718 190.901807 36.9014308 193.338151 36.9014308 193.338151 22.5888251 207.954883 15.2804595 219.830475 15.2804595 219.830475 21.6757807 215.872167 26.2430078 217.090005 26.2430078 217.090005 16.1935039 229.270392 12.8441149 249.368063 12.8441149 249.368063 17.7161358 246.933055 19.8476867 248.150893 19.8476867 248.150893 13.7571593 260.93953 13.4530339 274.338423L6.75425587 278.297399 11.9310705 281.951582C11.9310705 281.951582 7.97209399 298.39507 7.0583812 307.834987c0 0 3.0445953-3.0445950000000153 5.4809399-3.958307999999988.0.0 3.3500575 7.916615999999976 7.9179531 14.007142999999985C25.0251697 323.97435 35.3794674 329.151164 41.4693264 329.151164L52.9158016 328.704668C51.4961044 334.830621 48.6954778 340.025483 42.7921044 340.297525L42.1370653 341.34893C42.0134099 341.339572 41.8917598 341.334225 41.7727833 341.331551 41.655812 343.120209 38.0457441 343.442381 37.0531593 344.681608 34.0353003 348.446747 31.7339739 353.619551 30.2013159 358.23223 29.0783916 361.612366 29.609107 361.611697 28.8310809 365.084073 28.5764178 366.220366 27.3973473 367.434193 27.0043238 368.585191 30.2922193 367.480982 39.4046162 366.74306 44.2044491 366.390809L44.2853264 370.639206C44.2853264 370.639206 45.0767206 371.375123 46.3874674 371.908512 46.4329191 371.899822 46.4763655 371.887123 46.5311749 371.891802 46.9763342 371.927896 47.4061201 371.993399 47.8265483 372.097671 55.0293055 371.453326 60.0443655 372.668491 68.3927728 371.975352 70.0170026 371.782183 71.5403029 371.553587 72.9620052 370.744146 73.3663916 369.536334 73.4205326 369.462141 73.6110287 367.902078 73.6518016 367.624021 73.6518016 367.337943 73.7186423 366.99906 73.8496501 366.977003 73.9766475 366.958287 74.1043133 366.939572 74.153107 366.920856 74.2306423 366.904815 74.402423 366.898131 74.4378486 366.887436 74.4679269 366.870726 74.5080313 366.867384 74.640376 366.855352 74.7720522 366.844658 74.9043969 366.833295 74.9953003 366.799206 75.0821932 366.789849 75.1603969 366.811238 76.6716658 366.676219 79.0973159 366.548554 80.6079164 366.466339 85.518705 366.458319 91.97953 367.023791 91.97953 367.023791 92.3792376 361.519457 92.7789452 352.978548 101.686141 328.084386L103.89389 326.71482C103.89389 326.71482 131.251133 336.35459 156.635238 326.325138 158.643802 331.269347 165.143394 347.88729 166.165389 358.363238 167.038997 359.591102 166.942078 361.149159 166.971488 362.800125 166.996219 364.197097 167.113859 365.594736 167.15129 366.987697 168.064334 366.863373 171.360251 366.459655 175.521086 366.466339 177.031687 366.548554 179.457337 366.676219 180.968606 366.811238 181.047478 366.789849 181.133702 366.799206 181.224606 366.833295 181.35695 366.844658 181.488627 366.855352 181.620971 366.867384 181.661076 366.870726 181.691154 366.887436 181.727248 366.898131 181.89836 366.904815 181.975896 366.920856 182.025358 366.939572 182.152355 366.958287 182.279352 366.977003 182.41036 366.99906 182.477201 367.337943 182.477201 367.624021 182.518642 367.902078 182.70847 369.462141 182.762611 369.536334 183.166997 370.744146 183.297337 370.818339 183.429013 370.882507 183.561358 370.94801 188.106527 370.371175 192.712522 370.265567 197.286433 370.482131 200.883802 370.652574 204.419676 371.327666 207.96023 371.97201 207.960898 372.005431 207.963572 372.03952 207.963572 372.073608 208.320501 372.111708 208.66941 372.137107 209.01765 372.159833 210.917264 372.499384 212.822225 372.81554 214.739217 373.022747 214.775979 370.624501 214.762611 368.527708 214.71248 366.686245 218.526413 366.868721 224.046789 367.628031 226.36282 367.965577 227.281211 368.185483 228.027154 368.32117 228.809859 368.489608 228.916136 368.521023 229.028428 368.553107 229.125347 368.585191 229.121337 368.576501 229.117326 368.566475 229.113316 368.557786 229.899363 368.734245 230.746903 368.957493 231.865817 369.346507 231.695373 367.286475 231.710747 367.329253 231.438037 364.746527 231.228157 362.749326 229.79576 356.680856 227.116115 354.177671 227.116115 354.177671 230.035718 355.439624 230.927373 355.942266 228.049211 352.042778 226.649567 346.467593 217.606684 342.623582 217.606684 342.623582 219.258319 341.844888 220.768251 341.648376 219.190141 340.675843 217.985003 340.293514 216.387509 340.409149 216.930256 338.867802 219.318475 334.979676 221.32236 334.480376 221.32236 334.480376 220.092491 333.625483 218.081253 334.286538 217.333974 334.678225 216.608752 335.098653 215.902914 335.595948 215.636219 335.784439 215.247206 335.589264 215.168334 335.29717 214.536021 332.959081 214.12495 330.583561 213.751979 328.198016 231.974768 327.537629 234.530757 318.189285 234.530757 318.189285 236.053389 319.407791 236.052721 322.147593 236.052721 322.147593 243.969337 311.793963 243.056292 301.440334 243.056292 301.440334 244.883718 301.74446 246.40635 302.962966 246.40635 302.962966 247.320063 287.128397 242.448042 260.026486 242.448042 260.026486 244.884386 261.244324 246.40635 259.72236 246.40635 259.72236 243.66588 258.504522 243.361755 255.45859 243.361755 255.45859 247.320731 255.763384 247.92965 252.109201 247.92965 252.109201" fill="#edf7fa"/><path d="M73.7186423 366.99906C73.7186423 366.99906 74.4325013 359.297671 71.921295 353.740533 71.921295 353.740533 76.6776815 354.063373 77.4770966 366.624752 77.4770966 366.624752 74.1457546 367.01176 73.7186423 366.99906" fill="#cde9ee"/><path d="M49.8424648 341.027426 49.8718747 340.790809C49.8892533 340.907781 49.8865796 340.998016 49.8424648 341.027426" fill="#cde9ee"/><path d="M54.2960627 366.402172C54.268658 366.39482 54.2532846 366.390809 54.2532846 366.390809 54.2532846 366.390809 54.2726684 366.338005 54.3087624 366.246433L54.2960627 366.402172" fill="#cde9ee"/><path d="M114.851091 28.891906C113.329128 16.7108512 116.681191 6.04240209 116.681191 6.04240209 79.8352376 21.572846 70.0925326 55.9650757 70.0925326 55.9650757 67.6568564 50.1800104 67.3527311 37.0458068 67.3527311 37.0458068c0 0-15.226318599999999 25.5030809-17.9667885 43.163738900000006C46.6454726 97.8722089 51.8216188 148.573577 51.8216188 148.573577 51.8216188 148.573577 49.386611 145.52965 44.2097963 144.920731 44.2097963 144.920731 49.6907363 151.011258 49.6907363 164.714277 49.6907363 164.714277 47.558517 162.886851 43.9050026 163.800564 43.9050026 163.800564 49.6900679 168.97671 50.2996554 177.807708 50.2996554 177.807708 43.6002089 182.375603 39.9460261 186.943499 39.9460261 186.943499 34.159624 187.247624 31.1150287 188.161337 31.1150287 188.161337 35.987718 190.901807 36.9014308 193.338151 36.9014308 193.338151 22.5888251 207.954883 15.2804595 219.830475 15.2804595 219.830475 21.6757807 215.872167 26.2430078 217.090005 26.2430078 217.090005 16.1935039 229.270392 12.8441149 249.368063 12.8441149 249.368063 17.7161358 246.933055 19.8476867 248.150893 19.8476867 248.150893 13.7571593 260.93953 13.4530339 274.338423L6.75425587 278.297399 11.9310705 281.951582C11.9310705 281.951582 7.97209399 298.39507 7.0583812 307.834987c0 0 3.0445953-3.0445950000000153 5.4809399-3.958307999999988.0.0 3.3500575 7.916615999999976 7.9179531 14.007142999999985C25.0251697 323.97435 35.3794674 329.151164 41.4693264 329.151164L42.24 329.045556C41.9004491 331.145023 41.5181201 333.23647 40.9606684 335.29717 40.8817963 335.589264 40.4934517 335.784439 40.2260888 335.595948 39.5209191 335.098653 38.7956971 334.678225 38.0477493 334.286538 36.0371802 333.625483 34.8066423 334.480376 34.8066423 334.480376 36.8105274 334.979676 39.1987467 338.867802 39.7421619 340.409149 38.144 340.293514 36.9388616 340.675843 35.360752 341.648376 36.8713525 341.844888 38.5223185 342.623582 38.5223185 342.623582 29.4801044 346.467593 28.0797911 352.042778 25.2022977 355.942266 26.0932846 355.439624 29.0128877 354.177671 29.0128877 354.177671 26.3332428 356.680856 24.9015144 362.749326 24.6909661 364.746527 24.4189243 367.329253 24.4336292 367.286475 24.2638538 369.346507 26.6607624 368.513003 27.8257963 368.430789 29.7661828 367.965577 32.764658 367.529107 41.1444804 366.380115 44.2224961 366.699614L43.7372324 372.619697c0 0 .06149339999999626.0.15105999999999398-.002004999999996926C45.4684073 372.164512 46.7557598 372.225337 48.1654308 372.073608 48.1861514 370.442026 48.2717076 368.811781 48.405389 367.186214 48.3111436 364.408313 48.6560418 361.878392 49.2235196 359.058381 49.242235 358.963467 49.2656292 358.864543 49.2850131 358.769629 50.4032585 354.919603 52.3476554 352.727896 53.6109452 351.379718 54.0300366 350.931885 54.3943185 350.401838 54.7057963 349.858423 55.4597598 348.855144 56.2431332 347.548407 56.8480418 345.898778 58.0999687 342.482548 57.5632376 334.977671 55.0473525 327.653264 57.7002611 331.469201 60.1165535 334.817922 61.2622037 335.963572L61.1860052 326.638621C61.1860052 326.638621 66.0580261 331.5073 70.4187154 335.185546 72.5181828 337.018987 75.1075927 339.403196 76.9463812 340.353003 77.0793943 340.436554 77.1990392 339.550914 77.3454204 340.887728H77.3440836C77.362799 340.887728 77.380846 340.623039 77.3995614 340.633734 79.8693264 342.019342 82.4099426 343.11954 84.7881358 344.658883 85.042799 344.823311 85.3028094 344.902851 85.5527937 345.0753 86.6536606 345.833274 88.5913734 346.675467 90.3325744 347.593191L91.97953 367.041838C93.4640627 346.601274 105.111728 327.028303 105.111728 327.028303L104.685285 326.897295C101.081232 325.78306 74.7105587 316.659969 59.1306527 284.08447 58.1046475 281.938883 64.9163864 286.519478 64.9163864 286.519478 58.5210653 270.989034 56.0847206 246.018674 56.0847206 246.018674 58.2162715 247.846099 60.3484909 248.150225 60.3484909 248.150225 55.7805953 235.360251 53.9538381 219.525681 53.9538381 205.213076 52.736 128.171781 81.2081462 110.510454 81.2081462 110.510454 76.3361253 108.683029 71.1593107 108.835426 71.1593107 108.835426 76.7933159 95.2848042 95.5194151 76.4049713 95.5194151 76.4049713 90.4949974 76.709765 70.8538486 82.0376397 70.8538486 82.0376397 87.1456084 39.5583499 103.589765 28.2916762 103.589765 28.2916762 102.371927 38.4922402 106.330903 49.3030601 106.330903 49.3030601 141.654225 5.6045953 170.034799 7.6432376 170.034799 7.6432376 172.139614 3.25982245 174.530507.271373368 174.530507.271373368c-38.06446.0-59.679416 28.620532632-59.679416 28.620532632" fill="#cde9ee"/><path d="M214.698444 366.758433C214.698444 366.758433 214.354883 355.719018 211.843676 350.16188 211.843676 350.16188 218.390726 354.197055 218.353295 366.947593 218.353295 366.947593 215.125556 366.771133 214.698444 366.758433" fill="#cde9ee"/><path d="M44.3561775 309.98258C48.6687415 267.744585 49.8424648 185.115405 49.8424648 185.115405 40.4787467 203.614245 32.9424543 237.187008 32.9424543 237.187008L34.7692115 244.495373 30.6585065 242.668616C24.0513003 265.598997 28.5216084 296.294266 30.0021305 304.941452 34.2050757 308.268783 39.2114465 309.391039 44.3561775 309.98258" fill="#abd8d7"/><path d="M35.5231749 309.069535C36.8619948 315.829807 38.2509452 322.340094 39.7936292 329.054914 40.9359373 329.226695 42.2206162 329.14047 42.2206162 329.14047 43.2686789 325.056501 43.4424648 318.736042 44.2572533 310.961128 41.2547676 310.609546 38.3090966 310.076157 35.5231749 309.069535" fill="#abd8d7"/><path d="M178.633191 345.466987C178.387885 345.537838 178.201399 345.428219 178.10047 345.260449 177.626569 345.353358 177.264292 345.438914 177.020324 345.501744 177.020324 345.500407 177.020992 345.500407 177.020992 345.500407 183.303352 340.928501 183.880856 336.093911 183.880856 336.093911 179.713337 337.972804 175.289149 338.674632 173.136877 338.921943 187.658026 326.335164 190.070977 302.962966 190.070977 302.962966 184.123488 310.263979 175.682841 316.434047 169.159854 320.575499L169.17389 320.547426C169.17389 320.547426 164.803175 322.991123 160.764658 324.894078 160.58753 324.867342 160.409734 324.914799 160.276721 325.121337 158.201984 326.082507 156.267614 326.866548 155.127979 327.057044 155.127979 327.057044 158.491405 333.267217 159.895728 336.615937L159.620345 336.839185C159.620345 336.839185 164.485681 348.339133 166.256961 359.479478 166.444115 361.361713 166.588491 363.011342 166.68942 364.27129 166.774308 365.900867 166.889943 367.023791 166.889943 367.023791 173.323363 366.071979 182.41036 366.99906 182.41036 366.99906 182.366914 368.047123 182.942413 370.563008 183.048021 371.018862 186.103311 370.607123 189.185337 370.427321 192.2687 370.400585 192.227258 359.603133 191.752689 341.662413 178.633191 345.466987" fill="#cde9ee"/><path d="M44.0186319 313.240397C33.9303603 311.533953 24.7751854 299.93976 24.7751854 299.93976 32.1310078 307.761462 41.288188 308.808856 41.288188 308.808856 42.4966684 299.876261 35.1134413 279.431018 35.1134413 279.431018 40.5816815 286.240752 43.5728042 294.117264 45.2083969 300.564052L44.0186319 313.240397" fill="#83bac0"/><path d="M66.9142559 297.423875C66.9142559 297.423875 74.8509243 311.412303 81.8163969 317.464731 89.3339739 323.995739 96.3188303 333.223102 99.2878956 338.818339 99.2878956 338.818339 103.056376 330.064877 105.111728 327.018945c0 0-22.2673207-6.5283339999999725-38.1974721-29.595069999999964" fill="#abd8d7"/><path d="M170.503352 324.706924C171.606893 323.154214 172.870851 321.711123 174.075321 320.237285 176.050465 317.818987 178.307008 315.47154 179.965326 312.840021 177.103206 314.981598 173.91624 316.837097 170.658423 318.797535 161.202465 325.204888 154.614642 327.018945 154.614642 327.018945 156.669995 330.064877 160.438475 338.818339 160.438475 338.818339 162.235154 335.432188 165.508345 330.715238 169.475342 326.069807 169.808209 325.607937 170.178507 325.164783 170.503352 324.706924" fill="#abd8d7"/><path d="M63.9037493 89.109389C63.0381619 89.1722193 60.2669452 89.2424021 60.2669452 89.2424021 35.1602298 90.9949661 16.7055039 71.5389661 16.7055039 71.5389661 16.7055039 71.5389661 15.0558747 86.7258486 25.9622768 100.033838 36.8720209 113.341828 58.9789243 115.619091 58.9789243 115.619091 59.6974621 118.731196 58.1414099 125.671269 58.1414099 125.671269 58.1414099 125.671269 64.605577 118.520648 66.2471854 104.972031 67.3995196 95.4779739 64.439812 89.0706214 63.9037493 89.109389" fill="#545352"/><path d="M63.9037493 89.109389C63.0709138 89.156846 60.2669452 89.2424021 60.2669452 89.2424021 35.1602298 90.9949661 16.7055039 71.5389661 16.7055039 71.5389661 16.7055039 71.5389661 28.1753734 104.732742 66.4811279 102.109911 66.4811279 102.109911 67.5398851 95.9699217 63.9037493 89.109389" fill="#6e7979"/><path d="M189.256856 89.109389C190.121775 89.1722193 192.892992 89.2424021 192.892992 89.2424021 218.000376 90.9949661 236.454433 71.5389661 236.454433 71.5389661 236.454433 71.5389661 238.104063 86.7258486 227.198329 100.033838 216.287916 113.341828 194.181013 115.619091 194.181013 115.619091 193.463144 118.731196 195.019196 125.671269 195.019196 125.671269 195.019196 125.671269 188.55436 118.520648 186.912752 104.972031 185.760418 95.4779739 188.720794 89.0706214 189.256856 89.109389" fill="#545352"/><path d="M189.256856 89.109389C190.089023 89.156846 192.892992 89.2424021 192.892992 89.2424021 218.000376 90.9949661 236.454433 71.5389661 236.454433 71.5389661 236.454433 71.5389661 224.984564 104.732742 186.679478 102.109911 186.679478 102.109911 185.620052 95.9699217 189.256856 89.109389" fill="#6e7979"/><path d="M50.7989556 201.558893c0 0-18.046997400000002 64.86157700000001.0 106.42782199999999V201.558893" fill="#cde9ee"/><path d="M230.495582 304.158747C221.588386 310.955781 212.320919 311.386235 212.320919 311.386235 211.907843 302.506444 221.615123 283.092554 221.615123 283.092554 219.406037 284.396616 217.630747 285.974057 216.170277 287.704564L216.106778 281.189598 223.11035 275.404533 217.477681 270.836637 224.632982 242.059697 217.781807 246.627593C217.781807 246.627593 215.650924 205.671603 217.172888 188.009608 217.172888 188.009608 208.494287 179.329671 204.231185 175.828554 204.231185 175.828554 205.036616 188.438726 205.955676 208.587196 209.845138 224.749953 215.885535 258.198392 208.3713 287.615666 208.458193 293.578527 208.52236 299.634298 208.557117 305.747551 208.557117 305.747551 212.301535 318.758099 213.518705 327.893222 213.518705 327.893222 214.736543 328.236115 216.563969 327.93199L216.426277 313.941556C225.834778 311.100157 230.495582 304.158747 230.495582 304.158747" fill="#cde9ee"/><path d="M146.067718 178.565013C146.067718 185.483029 150.497922 191.090966 155.964825 191.090966 161.43106 191.090966 165.862601 185.483029 165.862601 178.565013 165.862601 171.645661 161.43106 166.037723 155.964825 166.037723 150.497922 166.037723 146.067718 171.645661 146.067718 178.565013" fill="#cde9ee"/><path d="M146.37318 175.218966C146.37318 182.030037 150.735206 187.551749 156.11789 187.551749 161.499906 187.551749 165.862601 182.030037 165.862601 175.218966 165.862601 168.407227 161.499906 162.886183 156.11789 162.886183 150.735206 162.886183 146.37318 168.407227 146.37318 175.218966" fill="#fff"/><path d="M153.530486 168.860407C153.45295 169.163196 153.399478 169.478684 153.399478 169.813556 153.399478 171.550747 154.53176 172.957076 155.927394 172.957076 157.167958 172.957076 158.1953 171.844846 158.409191 170.379029 159.205264 171.423081 159.695875 172.828742 159.695875 174.381452 159.695875 177.598496 157.599749 180.205285 155.01435 180.205285 152.42895 180.205285 150.332157 177.598496 150.332157 174.381452 150.332157 171.810089 151.672313 169.633086 153.530486 168.860407" fill="#474746"/><path d="M98.563342 178.565013C98.563342 185.483029 102.994214 191.090966 108.461117 191.090966 113.926684 191.090966 118.358225 185.483029 118.358225 178.565013 118.358225 171.645661 113.926684 166.037723 108.461117 166.037723 102.994214 166.037723 98.563342 171.645661 98.563342 178.565013" fill="#cde9ee"/><path d="M98.8688042 175.218966C98.8688042 182.030037 103.231499 187.551749 108.613514 187.551749 113.99553 187.551749 118.358225 182.030037 118.358225 175.218966 118.358225 168.407227 113.99553 162.886183 108.613514 162.886183 103.231499 162.886183 98.8688042 168.407227 98.8688042 175.218966" fill="#fff"/><path d="M107.853535 168.860407C107.776 169.163196 107.722527 169.478684 107.722527 169.813556 107.722527 171.550747 108.854141 172.957076 110.250444 172.957076 111.490339 172.957076 112.51835 171.844846 112.73224 170.379029 113.528313 171.423081 114.018924 172.828742 114.018924 174.381452 114.018924 177.598496 111.922131 180.205285 109.336731 180.205285 106.751332 180.205285 104.655206 177.598496 104.655206 174.381452 104.655206 171.810089 105.995363 169.633086 107.853535 168.860407" fill="#474746"/><path d="M181.727916 188.393274C181.106966 190.262141 178.998141 190.758768 172.989828 191.92046L172.580762 191.999332C166.694099 193.129608 156.169358 192.98189 150.405013 192.139697 150.156366 192.104272 149.916407 192.067509 149.687812 192.02941 144.345232 191.125723 143.736982 190.433922 142.018507 187.66471 140.243885 184.79858 139.153044 176.383332 138.951854 174.723676L138.941828 174.640125C138.728606 172.886225 138.622997 172.007937 140.876198 170.999311 143.906757 169.640439 157.357786 167.742162 162.869473 167.494183 167.220804 167.30235 176.444825 167.907927 180.662475 168.524198 181.32353 168.621786 181.813473 168.710684 182.116261 168.790893 182.601525 168.919896 184.388178 169.788825 184.297274 171.688439 184.178966 174.192292 182.567436 185.866695 181.727916 188.393274v0zM123.063144 174.640125 123.052449 174.723676C122.851927 176.383332 121.761086 184.79858 119.986465 187.66471 118.26799 190.433922 117.659739 191.125723 112.316491 192.02941 112.088564 192.067509 111.848606 192.104272 111.59929 192.139697 105.835614 192.98189 95.3108721 193.129608 89.4235405 191.999332L89.0151436 191.92046C83.0068303 190.758768 80.8980052 190.262141 80.2770548 188.393274 79.4375352 185.866695 77.8260052 174.192292 77.7076971 171.688439 77.6161253 169.788825 79.4034465 168.919896 79.8887102 168.790893 80.1908303 168.710684 80.6807728 168.621786 81.3418277 168.524198 85.5601462 167.907927 94.7834987 167.30235 99.1354987 167.494183 104.647185 167.742162 118.097546 169.640439 121.128104 170.999311 123.381974 172.007937 123.276366 172.886225 123.063144 174.640125v0zM189.443342 163.523843C185.029849 162.87883 177.327123 162.147593 168.081044 162.619488 156.049044 163.238433 145.73953 164.908783 139.580825 165.906047 137.742705 166.204157 136.298277 166.439436 135.196073 166.585149L133.993608 166.74824C132.642757 166.934057 131.757117 167.051697 131.002486 167.089128 130.247854 167.051697 129.361546 166.934057 128.011363 166.74824L126.80823 166.585149C125.706695 166.439436 124.262266 166.204157 122.423478 165.906047 116.265441 164.908783 105.955927 163.238433 93.9239269 162.619488 84.6778486 162.147593 76.9751227 162.87883 72.5616292 163.523843 72.5616292 163.523843 67.8520313 164.123405 63.8242089 165.827175L64.5922089 170.946507C64.5922089 170.946507 68.8479582 169.933201 73.0047833 169.378423 73.7774621 176.597222 75.2807102 185.873379 75.2807102 185.873379L75.3047728 186.160794C75.4190705 186.628679 75.5253473 187.082527 75.6403133 187.577817 76.4965431 191.225316 77.3467572 193.369567 80.7676658 194.655582 84.1270809 195.923551 92.0764491 197.098611 100.093326 197.511687 103.074423 197.666089 106.457901 197.482277 109.880146 196.984313 114.955363 196.24305 119.545984 194.876825 121.299885 193.580115 123.851864 191.693869 125.216752 186.947509 126.120439 183.807332L126.391144 182.881587C126.710642 181.810799 126.988031 180.686538 127.256063 179.595697 127.641734 178.030287 128.039436 176.412073 128.379655 175.853285 128.441149 175.755697 128.727227 175.418151 129.842799 175.254392 130.187697 175.20493 130.576042 175.178193 131.002486 175.172846 131.42893 175.178193 131.816606 175.20493 132.162172 175.254392 133.277076 175.418151 133.563822 175.755697 133.625316 175.853285 133.964867 176.412073 134.363238 178.030287 134.74824 179.595697 135.01694 180.686538 135.294329 181.810799 135.613828 182.881587L135.883864 183.807332C136.787551 186.947509 138.153107 191.693869 140.705086 193.580115 142.458987 194.876825 147.04894 196.24305 152.124157 196.984313 155.546402 197.482277 158.930548 197.666089 161.910977 197.511687 169.928522 197.098611 177.877222 195.923551 181.237305 194.655582 184.657546 193.369567 185.50776 191.225316 186.364658 187.577817 186.479624 187.082527 186.585901 186.628679 186.69953 186.160794L186.723593 185.873379C186.723593 185.873379 188.226841 176.597222 188.99952 169.378423 193.157013 169.933201 197.412762 170.946507 197.412762 170.946507L198.180762 165.827175C194.15294 164.123405 189.443342 163.523843 189.443342 163.523843v0z" fill="#545352"/><path d="M111.515739 150.559415C111.515739 150.559415 100.507739 145.309744 94.2073316 155.057796 94.2073316 155.057796 93.5569713 145.363885 102.446789 144.281065 111.337274 143.19624 111.515739 150.559415 111.515739 150.559415" fill="#a0d1de"/><path d="M107.386987 136.315655C107.386987 136.315655 97.1824125 131.499781 92.5329713 140.755217 92.5329713 140.755217 91.0143499 132.668825 98.2966475 130.717076 105.579614 128.764658 107.386987 136.315655 107.386987 136.315655" fill="#a0d1de"/><path d="M150.94776 156.502893C150.94776 156.502893 159.496689 152.425608 164.390099 159.997326 164.390099 159.997326 164.895415 152.469055 157.991436 151.626862 151.08612 150.784668 150.94776 156.502893 150.94776 156.502893" fill="#a0d1de"/><path d="M157.026924 143.019112C157.026924 143.019112 165.677452 141.618799 167.158642 149.525389 167.158642 149.525389 170.03012 143.817191 165.01506 140.795321 159.999332 137.772115 157.026924 143.019112 157.026924 143.019112" fill="#a0d1de"/><path d="M110.750413 227.354736C110.750413 227.354736 116.790141 223.295499 120.355426 222.73671 120.355426 222.73671 121.133452 230.39599 124.67601 234.170486 124.67601 234.170486 132.321922 227.278538 139.882945 226.788595 139.882945 226.788595 141.834695 230.988867 145.003614 232.546256L144.985567 232.59505C146.129211 233.308909 147.530193 234.030789 148.88706 234.33224 148.88706 234.33224 153.22636 231.706068 154.482298 226.909577 154.482298 226.909577 154.900052 237.035279 148.544167 242.554319 148.544167 242.554319 143.697546 240.188825 140.205786 236.402966 139.157055 235.38164 138.066883 234.19388 137.537504 233.228031 137.537504 233.228031 126.324303 241.160689 125.914569 245.68447 125.914569 245.68447 117.820157 237.792585 115.060303 231.712084 115.060303 231.712084 109.658235 233.417191 108.159666 234.516052 108.159666 234.516052 103.817692 227.414893 102.936063 221.006872 102.936063 221.006872 108.157661 225.993859 110.750413 227.354736" fill="#b2dce5"/><path d="M131.132825 207.453577C130.684992 207.357995 142.506444 208.271708 154.114005 207.8593 154.114005 207.8593 154.734287 205.644867 155.624606 204.428366 155.624606 204.428366 155.430768 208.155405 156.473483 208.918057 156.473483 208.918057 150.665023 211.204679 144.807102 211.187969 144.807102 211.187969 151.190392 210.122527 153.3313 209.020992 153.3313 209.020992 141.682966 209.669347 131.132825 207.453577" fill="#545352"/></g></svg>