<svg width="256" height="236" viewBox="0 0 256 236" xmlns="http://www.w3.org/2000/svg" xmlns:xlink="http://www.w3.org/1999/xlink" preserveAspectRatio="xMidYMid"><g><path d="M128.07485 236.074667v0L175.17885 91.1043048H80.9708495L128.07485 236.074667v0z" fill="#e24329"/><path d="M128.07485 236.074423 80.9708495 91.104061H14.9557638L128.07485 236.074423v0z" fill="#fc6d26"/><path d="M14.9558857 91.1044267v0L.641828571 135.159589C-.663771429 139.17757.766171429 143.57955 4.18438095 146.06275L128.074971 236.074789 14.9558857 91.1044267v0z" fill="#fca326"/><path d="M14.9558857 91.1045486H80.9709714L52.6000762 3.79026286C51.1408762-.703146667 44.7847619-.701927619 43.3255619 3.79026286L14.9558857 91.1045486v0z" fill="#e24329"/><path d="M128.07485 236.074423 175.17885 91.104061h66.015085L128.07485 236.074423v0z" fill="#fc6d26"/><path d="M241.193935 91.1044267v0L255.507992 135.159589C256.813592 139.17757 255.38365 143.57955 251.96544 146.06275L128.07485 236.074789 241.193935 91.1044267v0z" fill="#fca326"/><path d="M241.193935 91.1045486H175.17885L203.549745 3.79026286C205.008945-.703146667 211.365059-.701927619 212.824259 3.79026286L241.193935 91.1045486v0z" fill="#e24329"/></g></svg>