<svg enable-background="new 0 0 512 512" id="Layer_1" viewBox="0 0 512 512" xmlns="http://www.w3.org/2000/svg" xmlns:xlink="http://www.w3.org/1999/xlink"><circle cx="256" cy="256" fill="#0769ad" id="ellipse" r="256"/><g id="logo"><g><path d="M116.3 174.3C88 215 91.5 268 113.1 311.3c.5 1 1.1 2 1.6 3.1.3.7.7 1.3 1 2 .2.4.4.7.6 1.1.4.7.7 1.3 1.1 2 .7 1.2 1.4 2.4 2.1 3.5.4.7.8 1.3 1.2 1.9.8 1.2 1.6 2.5 2.4 3.8.3.5.7 1.1 1 1.6 1.1 1.7 2.3 3.3 3.5 5 0 0 .1.1.1.1.2.3.4.5.6.8 1 1.4 2.1 2.8 3.2 4.2.4.5.8 1 1.2 1.5 1 1.2 1.9 2.4 2.9 3.6.4.4.7.9 1.1 1.3 1.3 1.6 2.7 3.1 4.1 4.7.0.0.1.1.1.1.1.1.1.1.2.2 1.3 1.5 2.7 2.9 4.1 4.4.4.5.9.9 1.3 1.3 1.1 1.1 2.2 2.2 3.3 3.3.5.4.9.9 1.4 1.3 1.5 1.4 3 2.8 4.5 4.1.0.0.0.0.1.0.3.2.5.5.8.7 1.4 1.2 2.7 2.3 4.1 3.5.6.5 1.1.9 1.7 1.4 1.1.9 2.3 1.8 3.4 2.7.6.5 1.2.9 1.8 1.4 1.3.9 2.5 1.9 3.8 2.8.5.4.9.7 1.4 1 .1.1.3.2.4.3 1.2.9 2.5 1.7 3.8 2.5.5.4 1.1.7 1.6 1.1 1.9 1.2 3.9 2.4 5.9 3.6.5.3 1.1.6 1.6.9 1.5.8 2.9 1.6 4.4 2.5.8.4 1.6.8 2.4 1.2 1.1.5 2.1 1.1 3.1 1.6.2.1.5.2.7.4.4.2.9.4 1.3.6 1.6.8 3.3 1.6 5 2.3.4.2.7.3 1.1.5 1.9.9 3.9 1.7 5.8 2.4.5.2.9.4 1.4.6 1.8.7 3.6 1.4 5.5 2 .2.1.5.1.7.2 2 .7 4.1 1.4 6.1 2 .5.1 1 .3 1.5.4 2.1.7 4.1 1.4 6.3 1.8 137 25 176.8-82.3 176.8-82.3-33.4 43.5-92.7 55-149 42.2-2.1-.5-4.2-1.1-6.3-1.8-.5-.1-1-.3-1.6-.5-2-.6-4-1.3-6-2-.3-.1-.6-.2-.8-.3-1.8-.7-3.6-1.3-5.3-2-.5-.2-1-.4-1.5-.6-1.9-.8-3.9-1.6-5.8-2.4-.4-.2-.8-.3-1.1-.5-1.6-.7-3.2-1.5-4.9-2.3-.5-.2-.9-.4-1.4-.7-1.2-.6-2.5-1.3-3.8-1.9-.8-.4-1.7-.9-2.5-1.3-1.5-.8-3-1.6-4.5-2.5-.5-.3-1-.5-1.5-.8-2-1.2-3.9-2.4-5.9-3.6-.5-.3-1.1-.7-1.6-1-1.4-.9-2.8-1.8-4.2-2.8-.5-.3-.9-.7-1.3-.9-1.3-.9-2.6-1.9-3.9-2.9-.6-.4-1.2-.9-1.7-1.3-1.2-.9-2.4-1.8-3.6-2.8-.5-.4-1.1-.9-1.6-1.3-1.5-1.2-3-2.5-4.4-3.7-.2-.1-.3-.3-.5-.4-1.6-1.4-3.1-2.8-4.7-4.2-.5-.4-.9-.8-1.3-1.2-1.1-1.1-2.3-2.2-3.3-3.3-.4-.4-.9-.9-1.3-1.3-1.4-1.4-2.8-2.9-4.1-4.4-.1-.1-.1-.1-.2-.2-1.4-1.6-2.8-3.1-4.2-4.7-.4-.4-.7-.9-1.1-1.3-1-1.2-2-2.5-3-3.7-.4-.4-.7-.9-1.1-1.4-1.2-1.5-2.3-3.1-3.5-4.6-31.2-42.6-42.4-101.3-17.5-149.5" fill="#fff"/><path d="M204.3 139.9c-20.5 29.5-19.4 69-3.4 100.1 2.7 5.2 5.7 10.3 9.1 15.1 3.1 4.4 6.5 9.6 10.5 13.2 1.5 1.6 3 3.2 4.6 4.8.4.4.8.8 1.2 1.2 1.5 1.5 3.1 2.9 4.7 4.4.1.1.1.1.2.2.0.0.0.0.0.0 1.8 1.6 3.6 3.1 5.5 4.5.4.3.8.7 1.2 1 1.9 1.4 3.8 2.8 5.7 4.2.1.0.1.1.2.1.9.6 1.7 1.1 2.6 1.7.4.3.8.6 1.2.8 1.4.9 2.8 1.8 4.2 2.6.2.1.4.2.6.4 1.2.7 2.5 1.4 3.8 2.1.4.2.9.5 1.3.7.9.5 1.7.9 2.6 1.4.1.1.3.1.4.2 1.8.9 3.6 1.7 5.5 2.6.4.2.8.3 1.2.5 1.5.6 3 1.2 4.5 1.8.6.2 1.3.5 1.9.7 1.4.5 2.8 1 4.1 1.4.6.2 1.2.4 1.9.6 2 .6 3.9 1.4 6 1.7C391.6 325.4 416 244 416 244c-22 31.7-64.6 46.8-110.1 35-2-.5-4-1.1-6-1.7-.6-.2-1.2-.4-1.8-.6-1.4-.5-2.8-.9-4.2-1.5-.6-.2-1.3-.5-1.9-.7-1.5-.6-3-1.2-4.5-1.8-.4-.2-.8-.3-1.2-.5-1.9-.8-3.7-1.7-5.5-2.6-.9-.4-1.9-.9-2.8-1.4-.5-.3-1.1-.6-1.6-.8-1.2-.6-2.3-1.3-3.5-2-.3-.2-.6-.3-.8-.5-1.4-.8-2.8-1.7-4.2-2.6-.4-.3-.9-.6-1.3-.9-.9-.6-1.8-1.2-2.7-1.8-2-1.3-3.8-2.8-5.7-4.2-.4-.4-.9-.7-1.3-1-19.9-15.7-35.7-37.2-43.2-61.6-7.9-25.3-6.2-53.6 7.5-76.6" fill="#fff"/><path d="M278.2 114.3c-12.1 17.8-13.3 39.8-4.9 59.5 8.8 20.9 26.9 37.2 48.1 44.9.9.3 1.7.6 2.6.9.4.1.8.2 1.2.4 1.2.4 2.5.8 3.8 1.1 58.4 11.3 74.2-30 78.5-36.1-13.9 20-37.2 24.8-65.8 17.8-2.3-.5-4.7-1.4-6.9-2.1-2.8-1-5.6-2.1-8.2-3.4-5.1-2.4-9.9-5.4-14.4-8.8-25.6-19.4-41.5-56.5-24.8-86.7" fill="#fff"/></g></g></svg>