<svg id="Capa_1" xmlns="http://www.w3.org/2000/svg" xmlns:xlink="http://www.w3.org/1999/xlink" viewBox="0 0 512 512" style="enable-background:new 0 0 512 512"><g transform="translate(1 1)"><path style="fill:#ffe100" d="M7.501 502.498H502.498V7.501H7.501z"/><path style="fill:#ffa800" d="M476.895 502.498H502.498V7.501H476.895z"/><path style="fill:#fff" d="M7.501 502.498H33.104V7.501H7.501z"/><path d="M502.499 511H7.501C2.806 511-1 507.194-1 502.499V7.501C-1 2.806 2.806-1 7.501-1h494.998C507.194-1 511 2.806 511 7.501v494.998C511 507.194 507.194 511 502.499 511zM16.002 493.998h477.996V16.002H16.002V493.998z"/><path d="M391.551 468.328c-42.334.0-76.777-34.442-76.777-76.777.0-4.695 3.807-8.501 8.501-8.501 4.695.0 8.501 3.806 8.501 8.501.0 32.959 26.815 59.775 59.775 59.775s59.775-26.815 59.775-59.775-26.815-59.775-59.775-59.775c-42.334.0-76.777-34.442-76.777-76.777s34.442-76.776 76.777-76.776 76.777 34.442 76.777 76.777c0 4.695-3.806 8.501-8.501 8.501-4.695.0-8.501-3.806-8.501-8.501.0-32.96-26.815-59.775-59.775-59.775S331.776 222.04 331.776 255c0 32.959 26.815 59.775 59.775 59.775 42.334.0 76.777 34.442 76.777 76.777S433.885 468.328 391.551 468.328z"/><path d="M212.328 468.328c-42.334.0-76.777-34.442-76.777-76.777.0-4.695 3.806-8.501 8.501-8.501s8.501 3.806 8.501 8.501c0 32.959 26.814 59.775 59.775 59.775s59.775-26.815 59.775-59.775V186.724c0-4.695 3.806-8.501 8.501-8.501s8.501 3.806 8.501 8.501v204.826C289.103 433.885 254.662 468.328 212.328 468.328z"/></g><g/><g/><g/><g/><g/><g/><g/><g/><g/><g/><g/><g/><g/><g/><g/></svg>