<svg width="50" height="50" enable-background="new 0 0 512 512" id="Layer_1" viewBox="0 0 512 512" xmlns="http://www.w3.org/2000/svg" xmlns:xlink="http://www.w3.org/1999/xlink"><circle cx="256" cy="256" fill="#f55247" id="ellipse" r="256"/><path d="M290.1 375.6c-3.3-1.1-5.4-3.5-7.2-6.4-2.5-4.2-5.2-8.3-7.6-12.6-9.1-16.3-18.2-32.4-27.3-48.7-.3-.4-.5-.8-.8-1.3-1.5.4-2.9.8-4.4 1.1-20.1 5.2-40 10.4-60.1 15.5-2.4.6-4.7 1.3-7.1 1.3-4.8.0-8.5-2.1-11-6.2-.6-1-1.1-2-1.5-3.2-18.4-39.8-36.9-79.7-55.2-119.4-3.3-7.1-6.6-14.3-9.7-21.3-.8-1.8-1.3-3.7-2-5.6-.1-.3-.3-.5-.4-.8.0-.8.0-1.5.0-2.3.1-.4.4-.6.5-1 .4-1.1 1.1-1.9 2.3-2.4.9-.4 1.8-.6 2.7-.6 4.8-.5 9.6-.9 14.4-1.3 6.6-.5 13.3-1 19.8-1.5 8.5-.6 17-1.4 25.5-2 1.4-.1 2.8-.3 4-.5 1.4.0 2.8.0 4.3.0.3.1.5.1.8.3 2 .3 3.5 1.3 4.7 3 1 1.5 2 3 3 4.5 25 41.9 50.1 83.7 75.1 125.6.3.4.5.9.9 1.4 32.2-7.7 64.4-15.4 96.8-23.2-.4-.5-.5-.9-.8-1.1-10.4-14.6-20.6-29.2-30.9-43.8-.4-.5-.8-1.1-1-1.8-.8-1.5-.4-2.8 1.1-3.5 1.1-.5 2.3-1 3.5-1.3 5.9-1 11.9-2 17.7-3 7.8-1.3 15.7-2.7 23.4-3.9 2-.4 3.9-.6 5.9-.9 1.8-.3 3.4.3 4.9 1.3 1.5 1.1 2.8 2.5 4 3.9 8 9.8 15.9 19.7 23.9 29.5 4.2 5.2 8.5 10.4 12.6 15.5.4.4.6.9.9 1.3.0.6.0 1.4.0 2-.8 1.3-2.1 1.6-3.4 2-14 3.8-28 7.4-42 11.2-.4.1-.9.3-1.4.4.4.5.5.8.8 1.1 6.4 8.6 12.7 17 19.2 25.6 6.4 8.6 12.7 17.2 19.1 25.8.5.8 1 1.5 1.4 2.4.8 1.5.4 2.8-1 3.7-.9.6-1.8 1.1-2.8 1.4-3.2 1.3-6.3 2.4-9.5 3.5-26 9.3-52 18.7-78 28-6.3 2.3-12.6 4.4-19.1 6.6-1.6.5-3.4.9-5 1.4C292.8 375.6 291.5 375.6 290.1 375.6zM163.8 165.7c-4 .4-8.1.8-12.2 1-4.3.4-8.5.8-12.7 1.1-5.3.5-10.7.9-16 1.4-3.5.3-7.1.6-10.6.9-.9.1-1.1.4-1 1.3.1.5.3 1 .5 1.4.4.9.8 1.6 1.3 2.5 16.3 33.5 32.6 67 48.7 100.5 5.3 10.9 10.5 21.7 15.7 32.6.3.6.6.9 1.3.8.9-.1 1.8-.3 2.5-.5 17.4-4.2 34.7-8.3 52.1-12.4 1.8-.4 3.7-.9 5.4-1.3 1.3-.4 1.6-1 1.1-2.3-.3-.6-.5-1.1-.9-1.6-23.9-41.2-47.6-82.2-71.4-123.3C166.2 165.5 166.2 165.5 163.8 165.7zM260.7 303.1c.3.5.4.8.6 1 7.1 12.2 14.3 24.6 21.5 36.9 2.8 4.8 5.7 9.6 8.6 14.4.6 1 1.4 2 2.1 2.9.9.9 2 1.1 3.2.6.5-.3 1-.4 1.5-.5 21.1-7.2 42.2-14.4 63.2-21.5 9.6-3.3 19.2-6.4 28.8-9.7.5-.1 1.1-.4 1.6-.6 1-.5 1.1-1 .5-1.9-.4-.6-.9-1.4-1.3-2-3.8-5.3-7.7-10.5-11.5-15.8-6.3-8.6-12.5-17.2-18.8-25.8-.5-.8-1-1.5-1.6-2.3s-1.4-1.1-2.4-.8c-.8.3-1.4.4-2.1.6-10.2 2.7-20.4 5.3-30.7 8-20.6 5.3-41.2 10.7-61.7 16C261.7 302.7 261.2 302.9 260.7 303.1zM361.1 265.6c.3.0.5-.1.8-.1 12.1-3 24.4-5.9 36.5-9 .5-.1 1-.3 1.5-.5 1.1-.5 1.4-1.1.5-2.1-.1-.1-.3-.4-.4-.5-9-11.4-17.8-22.7-26.8-34-.1-.3-.4-.5-.5-.6-.9-1-1.9-1.3-3.3-1-10.9 2-21.7 3.9-32.6 5.9-1.3.3-2.7.4-3.9.8-1.1.3-1.3.8-.8 1.6.3.4.5.9.9 1.3 9.1 12.4 18.1 24.9 27.1 37.2C360.5 264.9 360.7 265.3 361.1 265.6z" fill="#fff" id="logo"/></svg>