<svg xmlns="http://www.w3.org/2000/svg" xmlns:xlink="http://www.w3.org/1999/xlink" viewBox="0 0 496 496" xmlns:v="https://vecta.io/nano"><path d="M162.4 77.6h170.4v340.8H162.4z" fill="#fff"/><path d="M162.4 77.6H48c-26.4 0-48 21.6-48 48.8v243.2c0 27.2 21.6 48.8 48 48.8h115.2V77.6h-.8z" fill="#006847"/><path d="M448 77.6H333.6v340.8H448c26.4 0 48-21.6 48-48.8V126.4c0-27.2-21.6-48.8-48-48.8z" fill="#ce1126"/><path d="M448 77.6H333.6v243.2L448 418.4c26.4 0 48-21.6 48-48.8V126.4c0-27.2-21.6-48.8-48-48.8z" fill="#b50b24"/><path d="M333.6 320.8V77.6H162.4v97.6z" fill="#dfe5e2"/><path d="M162.4 77.6H48l114.4 97.6z" fill="#01563a"/><path d="M333.6 418.4H448c26.4 0 48-21.6 48-48.8H333.6v48.8z" fill="#8c072d"/><path d="M162.4 369.6h170.4v48.8H162.4z" fill="#c6ceca"/><path d="M0 369.6c0 27.2 21.6 48.8 48 48.8h115.2v-48.8H0z" fill="#03442d"/><path d="M448 77.6H333.6v87.2L496 214.4v-88c0-27.2-21.6-48.8-48-48.8z" fill="#8c072d"/><path d="M333.6 164.8V77.6H162.4v35.2z" fill="#c6ceca"/><path d="M162.4 77.6H48l114.4 35.2z" fill="#03442d"/><g fill="#006847"><use xlink:href="#B"/><path d="M178.4 264h0zm12.8-22.4l1.6 2.4-.8.8h.8v.8h-.8v-.8l-1.6 1.6h.8v.8l.8.8h1.6c0 .8 0 1.6.8 2.4.8 1.6 1.6 2.4 2.4 2.4 0 .8-.8 1.6-.8 3.2v.8h-.8s0 .8.8.8h0c.8 1.6 1.6 3.2 3.2 4.8h0-1.6s.8.8 1.6.8h.8c1.6.8 3.2 1.6 4 2.4v.8l-.8.8s1.6 0 1.6-.8v-.8c1.6.8 3.2.8 4 .8h0c0 .8.8 1.6 1.6 3.2h0c-.8 0-1.6 1.6-1.6 1.6s1.6 0 1.6-.8h.8c1.6.8 3.2 1.6 5.6 2.4v.8s.8-.8 1.6-.8h0c0 .8-.8 1.6-.8 1.6s.8 0 1.6-.8c0 0 0-.8.8-.8h2.4c3.2 0 5.6-.8 6.4-1.6 0 1.6.8 2.4 1.6 4 .8.8 1.6.8 2.4 1.6v.8h-.8.8s.8 0 .8-.8h.8c.8 0 2.4.8 4.8.8 0 .8-.8 1.6-.8 1.6s.8 0 1.6-.8h4c0 .8-.8 1.6-.8 1.6s.8 0 .8-.8l.8-.8v1.6s.8-.8.8-1.6v-.8c1.6-.8 2.4-.8 3.2-1.6v6.4h-10.4c-.8-.8-.8-.8-1.6-.8h0c-.8 0-1.6.8-1.6.8-.8.8-.8 1.6-.8 2.4h0-.8c-.8 0-1.6-.8-2.4-.8-.8-.8-1.6-1.6-2.4-3.2 0-.8-.8-.8-.8-.8.8-.8.8-.8.8-1.6 0-1.6-.8-2.4-2.4-2.4s-2.4.8-2.4 2.4.8 2.4 1.6 2.4v1.6H224c-1.6-.8-4.8-1.6-7.2-3.2-1.6-.8-2.4-1.6-3.2-1.6s-.8-.8-.8-.8h0c-.8-1.6-6.4-3.2-6.4-1.6-.8 1.6 1.6 4.8 4 4.8h2.4c.8 0 2.4 1.6 4 2.4.8.8 1.6.8 1.6 1.6l.8.8v.8s-.8 0-.8.8h-.8c-.8-.8-.8-.8-1.6-.8-1.6 0-2.4.8-2.4 2.4s.8 2.4 2.4 2.4 2.4-.8 2.4-2.4h0c1.6 0 4 0 6.4.8 1.6 0 2.4.8 3.2.8s.8.8.8.8v1.6s-.8.8-1.6.8H224c-1.6.8-3.2 2.4-2.4 3.2s3.2 1.6 4.8.8c.8-.8 1.6-.8 2.4-1.6h6.4c0 .8.8.8.8 1.6.8.8.8.8 1.6.8h.8c.8.8 1.6 1.6 2.4 1.6 0 0 .8 0 1.6.8 1.6 0 4.8.8 8 .8h10.4c1.6 0 2.4-.8 3.2-2.4 0 0 .8 0 .8-.8l.8-.8c.8-.8 2.4-1.6 4-1.6 2.4-.8 3.2-.8 4.8-.8h.8c.8.8 1.6 1.6 2.4 1.6 1.6 0 2.4-.8 2.4-2.4s-.8-2.4-2.4-2.4c-.8 0-2.4.8-2.4 1.6 0 0-.8 0-.8-.8l-.8-.8v-.8l.8-.8c.8-.8 3.2-1.6 4.8-1.6.8 0 1.6-.8 2.4-.8h0c1.6 1.6 3.2 0 4-.8s2.4-1.6 1.6-3.2c-.8-.8-2.4-.8-3.2-.8s-1.6.8-2.4 1.6c-.8 0-1.6 0-3.2.8s-4.8 1.6-8.8 1.6h-2.4v-.8c0-.8-.8-1.6-.8-2.4l-.8-.8h-.8c-.8 0-.8 0-1.6.8 0 0-.8 0-.8.8h0l-.8-.8c0-.8.8-.8.8-.8s.8-.8 1.6-.8.8-.8.8-.8h.8l2.4-.8h1.6c.8 0 2.4 0 3.2-.8.8 0 1.6.8 3.2 1.6h.8s0 .8.8 1.6 1.6.8 1.6.8l-.8-1.6c1.6.8 4 .8 5.6.8h0c1.6 0 3.2-.8 4.8-.8 0 0 0 .8.8.8h1.6s-.8-.8-1.6-.8l-.8-.8.8.8h1.6s-1.6 0-1.6-.8h0s.8 0 .8-.8c.8-.8 1.6-.8 2.4-1.6l1.6-1.6h.8c.8 0 1.6-.8 1.6-.8h-1.6v-4c.8 0 .8-.8 1.6-.8.8-.8 1.6-1.6 1.6-2.4h1.6v-1.6h-.8v-.8h.8l1.6-2.4h.8c.8 0 .8 0 1.6-.8v-.8c0-.8 0-.8-.8-1.6h0-.8c-.8 0-.8 0-1.6.8v1.6l-2.4 1.6h-.8v-.8l-1.6-.8v.8h-.8l-.8.8v.8h.8c-.8 0-1.6.8-2.4 1.6l-1.6 1.6c-.8 0-.8-.8-1.6-.8s-.8-.8-1.6-.8h-.8l.8-1.6s-.8 0-1.6.8v.8c-.8 0-.8.8-1.6.8-.8.8-1.6.8-2.4 1.6h0V268l-.8.8v1.6l-3.2 3.2h-3.2v-4s1.6 0 1.6.8c.8 1.6-1.6 1.6-1.6 1.6h2.4s.8 0 .8-.8h0v-.8c0-.8 0-1.6-.8-1.6h0l-.8-.8v-.8l-.8-.8h-2.4s0-.8-.8-.8l-1.6-1.6c0-.8-.8-.8-.8-.8h0s0-.8-.8-.8c0 0-.8 0-.8-.8v-2.4c.8.8 1.6 1.6 1.6.8.8 0 0-1.6 0-2.4v-2.4l5.6 6.4s.8.8 2.4.8c.8 0 1.6-.8 1.6-.8s.8 1.6 3.2 1.6c1.6 0 2.4-.8 3.2-1.6.8 0 .8.8.8.8 2.4.8 5.6-1.6 6.4-1.6h.8c4 .8 6.4-2.4 6.4-2.4l-1.6-1.6s-4.8-4-12-8.8c-5.6-4-11.2-8.8-13.6-10.4 0-1.6 0-4-.8-5.6-.8-2.4-1.6-3.2-1.6-4 .8-.8.8-1.6.8-2.4h.8c.8.8 1.6 2.4 3.2 3.2s1.6 0 2.4.8 4.8 6.4 4.8 6.4h0c.8.8.8 1.6.8 1.6h0l.8.8c.8 0 .8 0 .8-.8 0 0-1.6-1.6-2.4-3.2s-1.6-4.8-2.4-6.4h1.6c.8 0 4 3.2 4 4s0 1.6 1.6 4c1.6 3.2 2.4 4 2.4 4h0c0 .8.8 1.6 1.6 1.6s0-.8-.8-1.6c0-.8-.8-2.4-1.6-4.8s-1.6-5.6-1.6-5.6l-.8-.8h.8l.8.8c.8.8 2.4 3.2 2.4 4 .8 1.6.8 4 1.6 6.4s1.6 4.8 2.4 4c0-.8 0-4.8-1.6-8-.8-3.2-1.6-7.2-1.6-8h0s.8.8 1.6 2.4 0 3.2 1.6 8 2.4 5.6 3.2 7.2-.8 6.4.8 7.2v-10.4c0-2.4 0-2.4-.8-8s-.8-6.4-.8-6.4h0s.8.8 1.6 3.2c.8 4 .8 9.6 1.6 11.2s.8.8 1.6 3.2c.8 1.6-.8 10.4.8 10.4s.8-11.2.8-14.4-.8-12.8-.8-13.6h0c.8.8 1.6 2.4 1.6 3.2h0c0 2.4 0 11.2.8 13.6 0 3.2.8 3.2.8 6.4 0 2.4-.8 5.6-.8 6.4s0 2.4.8 2.4 0-1.6.8-2.4c0-.8.8-.8.8-1.6.8-1.6.8-11.2 1.6-16s1.6-4 1.6-9.6c0-4.8-1.6-8.8-1.6-9.6h1.6c.8 0 .8-.8.8-.8 0-.8-.8-.8-2.4-1.6l-1.6-3.2c-1.6-3.2-3.2-8-7.2-13.6-4.8-7.2-12-12-12.8-12h0s0-.8.8-.8c0 0 1.6-1.6.8-1.6h-3.2c-.8 0-1.6 0-4.8-2.4 0 0-8.8-6.4-23.2-7.2-4.8 0-6.4 1.6-6.4 2.4h0v.8h-1.6c-.8 0-2.4 0-3.2.8-6.4-.8-7.2 0-7.2 2.4h0c0 .8 0 1.6.8 2.4 0 .8.8.8 1.6.8s1.6 0 3.2.8c1.6 0 2.4.8 4 2.4 1.6.8 1.6 2.4 2.4 3.2v4.8c-.8-.8-.8-1.6-1.6-2.4-.8-1.6-2.4-3.2-3.2-3.2v-1.6s0 .8-1.6.8c-.8 0-1.6-.8-4-1.6-1.6-.8-2.4-.8-3.2-.8h0-1.6c0-2.4-1.6-4-1.6-4h0s0 .8-.8 1.6c0 .8-1.6 1.6-1.6 2.4 0-1.6-.8-3.2-.8-3.2h0c0-1.6-.8-1.6-.8-1.6h0v.8c0 2.4-.8 4.8-.8 5.6-.8.8-1.6.8-1.6.8.8-.8.8-.8.8-2.4 0-2.4-1.6-2.4-1.6-2.4h0v3.2c0 1.6-1.6 3.2-1.6 3.2V192c0-2.4-.8-2.4-.8-2.4h0s0 .8-.8 2.4c-.8 2.4-1.6 2.4-2.4 4-2.4 2.4-3.2 2.4-3.2 3.2v2.4s-.8 0-1.6.8h0c-.8 0-1.6.8-4 .8-.8 0-1.6 0-1.6-.8v-1.6c.8 0 .8 0 1.6-.8 0 0 .8-.8 1.6-.8 1.6-.8 2.4-2.4 2.4-2.4h0-.8s-.8.8-1.6.8c-1.6.8-3.2.8-3.2.8v-.8s.8-.8.8-1.6l.8-.8c0-.8 0-.8.8-1.6v-.8s0-.8.8-.8c0 0 .8.8.8 1.6v1.6c1.6 0 .8-4 .8-4.8h0v-.8l-.8-.8-1.6.8h-1.6c-.8 0-5.6 4-5.6 5.6s.8 2.4.8 3.2h0c0 1.6 0 6.4 2.4 7.2s6.4 0 6.4 0h0c0 .8.8.8 1.6 1.6s2.4 1.6 3.2 1.6.8 0 1.6-.8h0v.8c-1.6 3.2-4.8 4.8-7.2 7.2-1.6.8-2.4 2.4-4 4-3.2 4-4 5.6-4 8.8v.8c0 4.8 2.4 8 4 8.8s4 1.6 4.8 1.6h7.2v.8s0 .8-.8.8h0c0-.8.8-.8.8-.8h-4c-.8 0-1.6.8-1.6.8 0 .8-.8.8-.8 1.6h0-.8s-.8 0-.8.8c0 0-.8.8-.8 1.6h0-.8v1.6h-.8c-.8 0-.8 0-1.6-.8s-.8-1.6-.8-2.4 0-1.6-.8-3.2-2.4-2.4-3.2-4c-1.6-.8-2.4-2.4-3.2-3.2v-.8c0-.8.8-1.6.8-3.2v-.8c0-.8.8-1.6.8-2.4v-1.6c0-1.6-1.6-3.2-3.2-4.8-.8-.8-1.6-.8-2.4-1.6h0s0-.8-.8-.8l-.8-.8h-.8s0 .8-.8.8h0v-.8l-.8-.8h-.8l-.8-.8h-.8s0 .8-.8.8h0-.8l-.8.8c0 .8 0 .8.8.8h0v.8h4.8v.8h.8c.8 0 .8 0 .8-.8h0s.8 0 .8.8c.8.8.8.8.8 1.6v.8c0 .8-.8 1.6-.8 3.2-.8 1.6-.8 3.2-.8 4.8v2.4c0 .8.8 1.6.8 2.4l1.6 1.6c1.6.8 3.2 1.6 4 3.2s.8 3.2 1.6 4.8c0 .8 0 1.6.8 2.4 0 .8.8 1.6 1.6 1.6.8.8 1.6.8 3.2.8h2.4c.8 0 1.6 0 1.6-.8.8 0 1.6-.8 1.6-.8s.8.8 1.6.8h0c.8 0 1.6-.8 2.4-.8s1.6-.8 1.6-.8h.8l.8.8h.8s.8 0 .8-.8l1.6-1.6.8.8c-.8 0-1.6.8-1.6.8h0s.8.8 3.2 1.6 4 .8 4 .8h0c-.8.8-.8 1.6 0 1.6h0s.8.8 4.8 0c3.2-.8 3.2-.8 3.2-1.6h.8s.8 2.4 1.6 2.4c1.6 0 1.6-4 1.6-5.6 2.4 2.4 4 4.8 4 4.8s.8.8 1.6.8h0l1.6 3.2c.8 1.6 1.6 3.2 2.4 2.4.8 0 .8-1.6.8-1.6h0v-.8l1.6 1.6h-.8c-.8 0-.8.8-1.6.8 0 0-.8 0-.8.8h-2.4l-.8-.8c-.8 0-.8 0-1.6.8l-.8.8H248c-.8 0-2.4.8-2.4 1.6h0c-.8 0-.8-.8-1.6-.8s-.8-.8-1.6-.8v-.8c0-.8-.8-1.6-.8-1.6v2.4h-.8v-.8c0-.8-.8-.8-.8-.8v1.6c-.8 0-1.6-.8-2.4-.8s-1.6-.8-2.4-.8v-.8l-1.6-1.6s0 .8.8 1.6c-.8-.8-1.6-.8-1.6-.8s.8.8.8 1.6v.8c-.8 0-1.6.8-1.6.8-.8 0-.8.8-1.6.8l-.8-.8-1.6-.8s0 .8.8.8c0 .8.8.8.8.8h0c-.8.8-.8 1.6-1.6 1.6l-4.8-4.8v-4l.8.8h.8l.8-.8v-.8h.8l-1.6-1.6v.8h-.8v-1.6s-.8 0-.8-.8v-.8c.8 0 .8-.8 1.6-.8h0c0-.8-.8-.8-.8-1.6h0c-.8 0-.8.8-1.6.8h0v.8l.8 9.6-.8.8-.8-.8H220l-.8.8v.8l.8.8c-.8.8-.8 1.6-.8 2.4h-4.8l-1.6-.8v.8c-1.6 0-2.4.8-3.2 1.6 0-.8 0-2.4-.8-4.8.8 0 .8-1.6.8-1.6s-.8 0-.8.8h0c-.8-.8-1.6-2.4-2.4-3.2s-2.4-1.6-3.2-2.4v-.8c0-.8-.8-1.6-.8-1.6v2.4c-.8 0-1.6-.8-2.4-.8h-.8c0-.8 0-1.6-.8-2.4-.8-1.6-1.6-2.4-3.2-2.4h1.6v-2.4s-.8 0-.8-.8v-.8c0-.8-2.4 0-2.4 0h.8s-.8 0-.8.8h0-.8v-.8h-.8v-.8l.8-.8v-.8l-.8-.8h-.8l-.8.8v.8c0 1.6.8 1.6.8 1.6zm32.8 17.6h0zm40-29.6h0zM224 244s0-.8 0 0h0zm26.4-42.4h0zm-32 32h0-2.4c-.8 0-.8-.8-1.6-.8-.8-.8-.8-2.4-.8-3.2h0c0-1.6.8-3.2 1.6-4 1.6-2.4 4.8-4 7.2-6.4s4-4.8 4.8-7.2v-.8c0-1.6-.8-3.2-1.6-4 .8 0 1.6-.8 2.4-.8s1.6-.8 2.4-1.6l.8-.8v-.8h.8c.8.8.8 1.6.8 1.6h0s0 .8-.8 1.6c.8.8 0 1.6 0 1.6l.8.8c0 .8-1.6 1.6-1.6 3.2-.8 1.6-2.4 3.2-1.6 3.2h.8v.8c-.8.8-3.2 4.8-3.2 6.4 0 2.4.8 1.6.8 4 .8 2.4.8 5.6.8 5.6h0s.8 0 1.6-.8c0 .8.8 1.6 1.6 2.4 0 .8 0 3.2.8 4.8s3.2 4 4 4.8h0l-.8-.8s0-.8-.8-.8h-1.6s.8 1.6.8 2.4c0 0 1.6.8 2.4 1.6-.8 0-2.4 0-2.4.8 0 0-.8 0-.8.8 0 0-.8 0-.8-.8V244h-.8c0-.8-.8-.8-.8-1.6l-1.6-1.6c0-2.4-.8-4-1.6-5.6-1.6-1.6-3.2-1.6-4.8-1.6h-4.8zm12 8.8h0zm15.2-26.4h0zm-6.4-7.2h0zm6.4 7.2h0zm-5.6-7.2h0zm0 0h0zm-2.4-4h0zm.8 2.4s0-.8-.8-.8l.8.8zm-5.6 7.2h0zm9.6-16h0zm-17.6 12.8h0zm.8.8h0l.8.8c0-.8-.8-.8-.8-.8zm10.4-4c-.8 0-.8.8-1.6.8 0 0 .8 0 1.6-.8zm10.4-3.2s-.8 0 0 0c-.8 0 0 0 0 0 0-.8 0 0 0 0zm-2.4 2.4h0zm-17.6 5.6h0zm9.6 30.4h0zm11.2-40h0zm15.2 28h0zm0-.8h0zm-37.6-29.6h0c.8 0 1.6-.8 3.2-.8-1.6 0-1.6.8-3.2.8zm-6.4 21.6h0s0-.8 0 0h0zm43.2 37.6h0zm-24.8-69.6h0c0-.8 0-.8 0 0zm-26.4 52.8v-.8.8zm72.8-53.6l-.8-.8c.8 0 .8 0 .8.8zm-59.2-.8h0zm-6.4 11.2h0zm-2.4 48h0zm-18.4-24.8h0zm38.4 40c0 .8 0 .8 0 0 0 .8 0 .8 0 0 0 .8 0 .8 0 0zm-40-17.6h0z"/><path d="M278.4 239.2h0zm15.2 19.2h0zm-62.4-72.8h0z"/><use xlink:href="#B"/><path d="M178.4 264h0z"/></g><g fill="#03442d"><path d="M289.6 279.2l1.6-1.6h.8c.8 0 1.6-.8 1.6-.8H292v-4c.8 0 .8-.8 1.6-.8.8-.8 1.6-1.6 1.6-2.4h1.6V268h-.8v-.8h.8l1.6-2.4h.8c.8 0 .8 0 1.6-.8v-.8c0-.8 0-.8-.8-1.6h-.8c-.8 0-.8 0-1.6.8v1.6l-2.4 1.6h-.8v-.8l-1.6-.8v.8h-.8l-.8.8v.8h.8c-.8 0-1.6.8-2.4 1.6l-1.6 1.6c-.8 0-.8-.8-1.6-.8s-.8-.8-1.6-.8h-.8l.8-1.6s-.8 0-1.6.8v.8c-.8 0-.8.8-1.6.8-.8.8-1.6.8-2.4 1.6h0v-1.6l-.8.8v1.6l-.8.8 8.8 7.2c1.6.8 2.4 0 3.2 0zm-16.8-12l-.8-.8h-2.4s0-.8-.8-.8h-.8l7.2 6.4c0-.8 0-.8-.8-1.6h0l-.8-.8c0-1.6 0-2.4-.8-2.4z"/><path d="M304.8 217.6l-1.6-3.2c-1.6-3.2-3.2-8-7.2-13.6-4.8-7.2-12-12-12.8-12 0 0 .8 0 .8.8l-.8-.8s0-.8.8-.8c0 0 1.6-1.6.8-1.6h-3.2c-.8 0-1.6 0-4.8-2.4 0 0-8.8-6.4-23.2-7.2-4.8 0-6.4 1.6-6.4 2.4h0v.8h-1.6c-.8 0-2.4 0-3.2.8-1.6 0-2.4.8-2.4 3.2h0c0 .8 0 1.6.8 2.4 0 .8.8.8 1.6.8s1.6 0 3.2.8c1.6 0 2.4.8 4 2.4 1.6.8 1.6 2.4 2.4 3.2v4.8c-.8-.8-.8-1.6-1.6-2.4-.8-1.6-2.4-3.2-3.2-3.2v-1.6s0 .8-1.6.8c-.8 0-1.6-.8-4-1.6-1.6-.8-2.4-.8-3.2-.8h0-1.6c0-2.4-1.6-4-1.6-4h0s0 .8-.8 1.6c0 .8-1.6 1.6-1.6 2.4 0-1.6-.8-3.2-.8-3.2h0c0-1.6-.8-1.6-.8-1.6h0v.8c0 2.4-.8 4.8-.8 5.6-.8.8-1.6.8-1.6.8.8-.8.8-.8.8-2.4 0-2.4-1.6-2.4-1.6-2.4v3.2c0 1.6-1.6 3.2-1.6 3.2V192c0-2.4-.8-2.4-.8-2.4h0s0 .8-.8 2.4c-.8 2.4-1.6 2.4-2.4 4-2.4 2.4-3.2 2.4-3.2 3.2v2.4s-.8 0-1.6.8h0c-.8 0-1.6.8-4 .8-.8 0-1.6 0-1.6-.8v-1.6c.8 0 .8 0 1.6-.8 0 0 .8-.8 1.6-.8 1.6-.8 2.4-2.4 2.4-2.4h0-.8s-.8.8-1.6.8c-1.6.8-3.2.8-3.2.8v-.8s.8-.8.8-1.6l.8-.8c0-.8 0-.8.8-1.6v-.8s0-.8.8-.8c0 0 .8.8.8 1.6v1.6c1.6 0 .8-4 .8-4.8h0v-.8l-.8-.8-1.6.8h-1.6c-.8 0-5.6 4-5.6 5.6s.8 2.4.8 3.2h0c0 1.6 0 6.4 2.4 7.2s6.4 0 6.4 0h0c0 .8.8.8 1.6 1.6s2.4 1.6 3.2 1.6.8 0 1.6-.8h0v.8c-1.6 3.2-4.8 4.8-7.2 7.2l4.8 4c1.6-1.6 3.2-2.4 4.8-4 2.4-2.4 4-4.8 4.8-7.2v-.8c0-1.6-.8-3.2-1.6-4 .8 0 1.6-.8 2.4-.8s1.6-.8 2.4-1.6l.8-.8v-.8h.8c.8.8.8 1.6.8 1.6h0s0 .8-.8 1.6c-2.4 4-3.2 4.8-3.2 4.8l.8.8c0 .8-1.6 1.6-1.6 3.2-.8 1.6-2.4 3.2-1.6 3.2h.8v.8c-.8.8-3.2 4.8-3.2 6.4 0 2.4.8 1.6.8 4 .8 2.4.8 5.6.8 5.6h0s.8 0 1.6-.8c0 .8.8 1.6 1.6 2.4v1.6l32 27.2V260c.8.8 1.6 1.6 1.6.8.8 0 0-1.6 0-2.4V256l5.6 6.4s.8.8 2.4.8c.8 0 1.6-.8 1.6-.8s.8 1.6 3.2 1.6c1.6 0 2.4-.8 3.2-1.6.8 0 .8.8.8.8 2.4.8 5.6-1.6 6.4-1.6h.8c4 .8 6.4-2.4 6.4-2.4l-1.6-1.6s-4.8-4-12-8.8c-5.6-4-11.2-8.8-13.6-10.4 0-1.6 0-4-.8-5.6-.8-2.4-1.6-3.2-1.6-4 .8-.8.8-1.6.8-2.4h.8c.8.8 1.6 2.4 3.2 3.2s1.6 0 2.4.8 4.8 6.4 4.8 6.4c.8.8.8 1.6.8 1.6l.8.8c.8 0 .8 0 .8-.8 0 0-1.6-1.6-2.4-3.2s-1.6-4.8-2.4-6.4h1.6c.8 0 4 3.2 4 4s0 1.6 1.6 4c1.6 3.2 2.4 4 2.4 4 0 .8.8 1.6 1.6 1.6s0-.8-.8-1.6c0-.8-.8-2.4-1.6-4.8s-1.6-5.6-1.6-5.6l-.8-.8h.8l.8.8c.8.8 2.4 3.2 2.4 4 .8 1.6.8 4 1.6 6.4s1.6 4.8 2.4 4c0-.8 0-4.8-1.6-8-.8-3.2-1.6-7.2-1.6-8h0s.8.8 1.6 2.4 0 3.2 1.6 8 2.4 5.6 3.2 7.2-.8 6.4.8 7.2v-10.4c0-2.4 0-2.4-.8-8s-.8-6.4-.8-6.4h0s.8.8 1.6 3.2c.8 4 .8 9.6 1.6 11.2s.8.8 1.6 3.2c.8 1.6-.8 10.4.8 10.4s.8-11.2.8-14.4-.8-12.8-.8-13.6h0c.8.8 1.6 2.4 1.6 3.2h0c0 2.4 0 11.2.8 13.6 0 3.2.8 3.2.8 6.4 0 2.4-.8 5.6-.8 6.4s0 2.4.8 2.4 0-1.6.8-2.4c0-.8.8-.8.8-1.6.8-1.6.8-11.2 1.6-16s1.6-4 1.6-9.6c0-4.8-1.6-8.8-1.6-9.6h1.6c.8 0 .8-.8.8-.8 0-1.6-1.6-1.6-2.4-3.2zm-86.4 4.8s0-.8 0 0h0zm8-9.6h0l-.8-.8s.8 0 .8.8zm-1.6-12h0c.8 0 1.6-.8 3.2-.8-1.6 0-1.6.8-3.2.8zm8 13.6h0zm6.4-5.6h0zm.8 0h0zm0 0h0zm5.6 7.2h0zm.8-11.2s-.8 0 0 0c-.8 0 0 0 0 0 0-.8 0 0 0 0zm16 26.4h0zm0-.8h0zm1.6-.8h0z"/></g><path d="M278.4 239.2h0zm15.2 19.2h0zm-62.4-72.8h0z" fill="#006847"/><defs ><path id="B" d="M324.8 242.4c0-.8 0-.8 0 0v-.8s-.8.8-.8 1.6v1.6s0-1.6-.8-3.2l-1.6-3.2s-1.6 1.6-2.4 3.2-.8 4-.8 5.6c0-.8-.8-2.4-1.6-4-1.6-2.4-2.4-1.6-2.4-1.6h0s1.6 1.6.8 3.2c0 1.6-.8 4.8 0 6.4s1.6 2.4 2.4 3.2v4l-2.4-1.6v-.8c0-.8-.8-1.6-1.6-1.6s-1.6 1.6-1.6 2.4.8 1.6 1.6 1.6h.8l2.4 2.4c0 .8-.8 1.6-.8 1.6h-.8c-.8.8-2.4 3.2-2.4 3.2v-3.2l-4.8 2.4c-2.4 2.4-4 4.8-3.2 6.4 0 1.6 1.6 4 1.6 6.4v4s0 .8-.8.8l-3.2-3.2.8-.8c0-.8-.8-1.6-1.6-1.6s-1.6.8-1.6 1.6.8 1.6 1.6 1.6h0l2.4 4c-.8.8-.8.8-1.6.8 0 0-.8 0-3.2.8-1.6.8-3.2 2.4-3.2 2.4s.8-.8.8-2.4c0-2.4-.8-3.2-.8-3.2h0v2.4s0 .8-.8.8c-.8 1.6-6.4 4.8-7.2 7.2s0 2.4-.8 3.2c-.8 1.6-1.6 2.4-1.6 3.2l-.8.8s-.8 0-.8.8l-.8-3.2.8-.8c0-.8-.8-1.6-1.6-1.6s-1.6.8-1.6 1.6.8 1.6 1.6 1.6h0v4l-.8.8c0 .8-.8.8-.8 1.6h0c-.8 0-1.6-.8-2.4-.8H276s.8-.8 1.6-.8l.8-.8s-2.4-.8-4-.8-4 0-5.6 1.6c-1.6.8-2.4 3.2-4.8 4-1.6.8-4 1.6-4 1.6h-.8c-1.6 0-2.4-.8-4-.8H252v-1.6h-5.6s-.8 0-.8.8v1.6c-.8 0-1.6-.8-3.2-.8-3.2 0-4.8.8-5.6.8h-.8c-1.6-.8-1.6-2.4-2.4-2.4s0 2.4-.8 2.4-2.4-4-4.8-4.8c-1.6 0-2.4 0-2.4.8s2.4 3.2 1.6 3.2-3.2-4-5.6-4c-1.6 0-2.4.8-1.6.8 0 .8 2.4.8 1.6 2.4s-2.4-2.4-4-1.6H216l-.8-4.8s.8 0 .8-.8l.8-.8v-.8h-1.6v-.8l-.8-.8s-.8 0-.8.8v1.6h-.8v.8c0 .8 0 .8.8.8h1.6v3.2l-1.6-1.6s-1.6-.8-2.4-2.4 0-4-.8-4-.8 2.4-1.6 1.6 0-4-.8-5.6-2.4-3.2-3.2-2.4 0 4-1.6 3.2c-.8-.8 0-4 0-5.6s-.8-2.4-1.6-2.4 0 3.2-.8 3.2-.8-1.6-1.6-2.4h-.8s0-1.6-.8-1.6v3.2s-.8-.8-1.6-.8v-4h.8l.8-.8s0-.8-.8-.8h-.8v-1.6l-.8-.8s-.8 0-.8.8v1.6h-.8l-.8.8c0 .8 0 .8.8.8h.8v3.2l-2.4-2.4s-.8-1.6-.8-3.2c0-2.4 1.6-5.6 1.6-6.4-.8-.8-1.6 2.4-2.4 1.6s.8-4 0-5.6-.8-2.4-1.6-2.4c-1.6 0-1.6 4-2.4 4-.8-.8 0-2.4 0-4-3.2-3.2-3.2-3.2-4-3.2s-.8 2.4-1.6 2.4l-1.6-1.6v-3.2l1.6-4h1.6l.8-.8v-.8l-.8-.8.8-.8v-1.6c-.8 0-.8 0-1.6.8v.8h-.8s-.8 0-.8.8v.8c0 .8 0 .8.8 1.6l-1.6 2.4c-.8-1.6-.8-2.4-.8-4s.8-1.6.8-2.4-.8.8-.8-.8c0-.8 4-3.2 3.2-4s-4 1.6-3.2 0 4-1.6 4-4.8c0-1.6-3.2.8-3.2 0s1.6-2.4 1.6-4c0-.8.8-1.6 0-1.6h-.8c-1.6.8-.8 1.6-2.4 1.6 0 0-.8-1.6-.8-.8-.8 0-1.6 1.6-1.6 2.4v3.2c-.8.8-.8-1.6-2.4-1.6-.8 0-1.6 1.6-1.6 2.4s2.4 3.2 1.6 4-2.4-2.4-4-.8c-.8 1.6 3.2 4 4 4s0 .8.8 1.6 1.6 1.6 2.4 1.6c.8.8 1.6 2.4 1.6 4l-3.2-1.6v-1.6l-.8-.8h-.8l-.8.8-.8-.8h-.8s-.8 0-.8.8h0c0 .8 0 .8.8 1.6h.8v.8s0 .8.8.8h.8c.8 0 .8 0 1.6-.8l4 3.2v3.2c-.8 0-1.6-.8-1.6 0s1.6 1.6.8 2.4c0 0-3.2-.8-3.2 0s0 2.4 1.6 2.4c1.6.8 5.6 1.6 4.8 1.6-.8.8-4.8-2.4-4.8 0s1.6 3.2 2.4 3.2 4.8 0 4.8.8-3.2 0-3.2.8c0 1.6 2.4 1.6 2.4 1.6.8 0 2.4 0 3.2.8l4 4h-2.4c0-.8 0-.8-.8-1.6l-.8-.8h-.8v1.6h-1.6s.8.8 1.6.8h0v.8l.8.8c.8 0 1.6-.8 1.6-1.6h4c1.6.8 2.4 1.6 2.4 1.6h0-2.4c0 .8 6.4 3.2 4 4-1.6.8-4-1.6-4 0-.8 1.6 1.6 3.2 2.4 3.2.8.8 6.4 0 5.6 1.6s-4.8-.8-5.6.8c0 1.6 2.4 4 4 4s3.2-2.4 4-.8-.8 1.6 0 2.4c1.6 0 2.4-1.6 4-.8 1.6 0 4 1.6 4.8 2.4h-3.2s0-.8-.8-.8l-.8-.8h-.8v1.6h-.8l-.8.8s0 .8.8.8h1.6v.8h.8s.8 0 .8-.8v-1.6h4l1.6 1.6s-1.6 0-2.4.8c-.8 0-1.6 1.6-1.6 1.6v.8h1.6l.8-.8s0 .8.8.8 2.4-1.6 4-.8-2.4 1.6-1.6 3.2 3.2.8 4 0c.8 0 2.4-3.2 4-1.6.8 1.6-2.4 2.4-1.6 4s2.4.8 4 .8c.8-.8 3.2-4 4-3.2.8 1.6-1.6 2.4-1.6 4 .8.8 2.4 0 3.2-.8s1.6-2.4 3.2-3.2l1.6-.8s.8-.8 1.6-.8c.8-.8 2.4-1.6 4-1.6.8 0 1.6 0 1.6.8-1.6.8-4 1.6-5.6 2.4s-2.4 1.6-3.2 2.4h0s.8.8 1.6.8 1.6-.8 1.6-.8 1.6-.8 3.2-2.4c.8-.8 3.2-1.6 4-1.6v1.6c0 .8-1.6.8-4 3.2s-3.2 4.8-3.2 4.8.8-.8 1.6-.8 1.6-.8 1.6-.8h.8c.8 0 .8.8 1.6.8l.8.8c0 .8.8.8.8.8s.8-1.6 2.4-2.4l1.6-1.6c0 .8.8.8 1.6 1.6s2.4.8 3.2 1.6 1.6.8 1.6.8l2.4-2.4h2.4c1.6 0 1.6.8 1.6.8s-1.6-2.4-2.4-3.2-3.2-1.6-4.8-2.4l-1.6-1.6v-.8c.8 0 2.4.8 4 1.6s2.4 1.6 2.4 2.4c0 0 .8.8 1.6.8s1.6-.8.8-.8h0s-.8-1.6-4-3.2c-2.4-.8-4-1.6-4.8-1.6v-.8c.8 0 4.8 0 6.4.8l4.8 2.4c1.6 1.6 4.8 4 6.4 4 3.2 0 9.6-4 11.2-4 1.6-.8 3.2-.8 3.2-.8h0-.8.8s-.8-.8-2.4-.8c-.8 0-.8-.8-.8-.8h-2.4s1.6-1.6 2.4-1.6c.8-.8 2.4-1.6 2.4-1.6h0l1.6-1.6 4 2.4v.8l.8.8h.8c.8 0 .8-.8.8-1.6v-.8l-.8-.8h-.8l-2.4-2.4c.8-.8 1.6-.8 2.4-.8 1.6 0 9.6 0 12.8-1.6 4-2.4 3.2-6.4 3.2-7.2s.8-1.6.8-1.6h-1.6c-.8 0-1.6.8-1.6.8s0-1.6.8-2.4v-1.6c.8 0 .8 0 1.6-.8l3.2.8c0 .8.8 1.6 1.6 1.6s1.6-.8 1.6-1.6-.8-1.6-1.6-1.6-.8 0-1.6.8l-2.4-.8c0-.8.8-.8 1.6-1.6 0 0 .8-.8 1.6-.8s2.4 0 4.8-1.6c3.2-1.6 4.8-6.4 5.6-8.8s3.2-4 3.2-4h0s-1.6-.8-4.8 2.4v-8l4.8-1.6.8.8c.8 0 1.6-.8 1.6-1.6s-.8-1.6-1.6-1.6-1.6.8-1.6 1.6h-4v-.8c0-.8 1.6-1.6 2.4-3.2 1.6-1.6 5.6-3.2 5.6-7.2h0c.8-4.8-.8-5.6-1.6-6.4zm-112 52.8h0zm39.2 13.6s-.8 0 0 0c-.8 0-.8 0 0 0h0zm31.2-4.8h0zm21.6-18.4h0z"/></defs></svg>