<?xml version="1.0" encoding="iso-8859-1"?>
<!-- Generator: Adobe Illustrator 19.0.0, SVG Export Plug-In . SVG Version: 6.00 Build 0)  -->
<svg version="1.1" id="Capa_1" xmlns="http://www.w3.org/2000/svg" xmlns:xlink="http://www.w3.org/1999/xlink" x="0px" y="0px"
	 viewBox="0 0 496 496" style="enable-background:new 0 0 496 496;" xml:space="preserve">
<rect x="162.4" y="77.6" style="fill:#FFFFFF;" width="170.4" height="340.8"/>
<path style="fill:#006847;" d="M162.4,77.6H48c-26.4,0-48,21.6-48,48.8v243.2c0,27.2,21.6,48.8,48,48.8h115.2V77.6H162.4z"/>
<path style="fill:#CE1126;" d="M448,77.6H333.6v340.8H448c26.4,0,48-21.6,48-48.8V126.4C496,99.2,474.4,77.6,448,77.6z"/>
<path style="fill:#B50B24;" d="M448,77.6H333.6v243.2L448,418.4c26.4,0,48-21.6,48-48.8V126.4C496,99.2,474.4,77.6,448,77.6z"/>
<polygon style="fill:#DFE5E2;" points="333.6,320.8 333.6,77.6 162.4,77.6 162.4,175.2 "/>
<polygon style="fill:#01563A;" points="162.4,77.6 48,77.6 162.4,175.2 "/>
<path style="fill:#8C072D;" d="M333.6,418.4H448c26.4,0,48-21.6,48-48.8H333.6V418.4z"/>
<rect x="162.4" y="369.6" style="fill:#C6CECA;" width="170.4" height="48.8"/>
<path style="fill:#03442D;" d="M0,369.6c0,27.2,21.6,48.8,48,48.8h115.2v-48.8H0z"/>
<path style="fill:#8C072D;" d="M448,77.6H333.6v87.2L496,214.4v-88C496,99.2,474.4,77.6,448,77.6z"/>
<polygon style="fill:#C6CECA;" points="333.6,164.8 333.6,77.6 162.4,77.6 162.4,112.8 "/>
<polygon style="fill:#03442D;" points="162.4,77.6 48,77.6 162.4,112.8 "/>
<path id="SVGCleanerId_0" style="fill:#006847;" d="M324.8,242.4C324.8,241.6,324.8,241.6,324.8,242.4c0-0.8,0-0.8,0-0.8
	s-0.8,0.8-0.8,1.6c0,0,0,0.8,0,1.6c0,0,0-1.6-0.8-3.2c-0.8-1.6-1.6-3.2-1.6-3.2l0,0l0,0c0,0-1.6,1.6-2.4,3.2c-0.8,1.6-0.8,4-0.8,5.6
	c0-0.8-0.8-2.4-1.6-4c-1.6-2.4-2.4-1.6-2.4-1.6l0,0l0,0l0,0c0,0,1.6,1.6,0.8,3.2c0,1.6-0.8,4.8,0,6.4s1.6,2.4,2.4,3.2
	c0,0.8,0,2.4,0,3.2l0,0v0.8l-2.4-1.6c0,0,0,0,0-0.8s-0.8-1.6-1.6-1.6s-1.6,1.6-1.6,2.4s0.8,1.6,1.6,1.6h0.8l2.4,2.4
	c0,0.8-0.8,1.6-0.8,1.6s0,0-0.8,0l0,0c-0.8,0.8-2.4,3.2-2.4,3.2s0-0.8,0-1.6c0-0.8,0-1.6,0-1.6l0,0l0,0c0,0-1.6,0.8-4.8,2.4
	c-2.4,2.4-4,4.8-3.2,6.4c0,1.6,1.6,4,1.6,6.4c0,1.6,0,4,0,4l0,0c0,0,0,0.8-0.8,0.8l-3.2-3.2l0.8-0.8c0-0.8-0.8-1.6-1.6-1.6
	c-0.8,0-1.6,0.8-1.6,1.6s0.8,1.6,1.6,1.6l0,0l2.4,4c-0.8,0.8-0.8,0.8-1.6,0.8c0,0-0.8,0-3.2,0.8c-1.6,0.8-3.2,2.4-3.2,2.4
	s0.8-0.8,0.8-2.4c0-2.4-0.8-3.2-0.8-3.2l0,0l0,0c0,0,0,0.8,0,1.6v0.8c0,0,0,0.8-0.8,0.8c-0.8,1.6-6.4,4.8-7.2,7.2
	c-0.8,2.4,0,2.4-0.8,3.2c-0.8,1.6-1.6,2.4-1.6,3.2c0,0,0,0-0.8,0.8c0,0-0.8,0-0.8,0.8l-0.8-3.2l0.8-0.8c0-0.8-0.8-1.6-1.6-1.6
	c-0.8,0-1.6,0.8-1.6,1.6c0,0.8,0.8,1.6,1.6,1.6l0,0v4l-0.8,0.8c0,0.8-0.8,0.8-0.8,1.6l0,0l0,0l0,0c-0.8,0-1.6-0.8-2.4-0.8
	s-1.6,0-2.4,0c0,0,0.8-0.8,1.6-0.8c0.8-0.8,0.8-0.8,0.8-0.8l0,0c0,0-2.4-0.8-4-0.8s-4,0-5.6,1.6c-1.6,0.8-2.4,3.2-4.8,4
	c-1.6,0.8-4,1.6-4,1.6s0,0-0.8,0c-1.6,0-2.4-0.8-4-0.8s-3.2,0-3.2,0c0-0.8,0-0.8,0-0.8s0,0,0-0.8h-1.6l0,0H248l0,0l0,0h-1.6
	c0,0-0.8,0-0.8,0.8c0,0,0,0.8,0,1.6c-0.8,0-1.6-0.8-3.2-0.8c-3.2,0-4.8,0.8-5.6,0.8H236c-1.6-0.8-1.6-2.4-2.4-2.4
	c-0.8,0,0,2.4-0.8,2.4s-2.4-4-4.8-4.8c-1.6,0-2.4,0-2.4,0.8s2.4,3.2,1.6,3.2c-0.8,0-3.2-4-5.6-4c-1.6,0-2.4,0.8-1.6,0.8
	c0,0.8,2.4,0.8,1.6,2.4c-0.8,1.6-2.4-2.4-4-1.6c-0.8,0-1.6,0-1.6,0l0,0l-0.8-4.8c0,0,0.8,0,0.8-0.8l0.8-0.8c0,0,0,0,0-0.8l0,0
	c0,0,0,0-0.8,0c0,0,0,0-0.8,0l0,0v-0.8l-0.8-0.8c0,0-0.8,0-0.8,0.8v0.8v0.8h-0.8c0,0,0,0,0,0.8l0,0c0,0.8,0,0.8,0.8,0.8
	c0,0,0.8,0,1.6,0l0,0v3.2c-0.8-0.8-1.6-1.6-1.6-1.6l0,0c0,0-1.6-0.8-2.4-2.4c-0.8-1.6,0-4-0.8-4s-0.8,2.4-1.6,1.6s0-4-0.8-5.6
	s-2.4-3.2-3.2-2.4c-0.8,0.8,0,4-1.6,3.2c-0.8-0.8,0-4,0-5.6s-0.8-2.4-1.6-2.4s0,3.2-0.8,3.2s-0.8-1.6-1.6-2.4c-0.8,0-0.8,0-0.8,0
	s0-1.6-0.8-1.6c0,0,0,0,0,0.8s0,1.6,0,2.4c0,0-0.8-0.8-1.6-0.8v-4h0.8l0.8-0.8l0,0l0,0l0,0l0,0c0,0,0-0.8-0.8-0.8c0,0,0,0-0.8,0V280
	c0-0.8,0-0.8,0-0.8l-0.8-0.8c0,0-0.8,0-0.8,0.8v0.8v0.8l0,0h-0.8c0,0,0,0-0.8,0.8l0,0c0,0.8,0,0.8,0.8,0.8h0.8v3.2
	c-0.8-0.8-1.6-1.6-2.4-2.4c0,0-0.8-1.6-0.8-3.2c0-2.4,1.6-5.6,1.6-6.4c-0.8-0.8-1.6,2.4-2.4,1.6s0.8-4,0-5.6s-0.8-2.4-1.6-2.4
	c-1.6,0-1.6,4-2.4,4c-0.8-0.8,0-2.4,0-4c-3.2-3.2-3.2-3.2-4-3.2s-0.8,2.4-1.6,2.4c0,0-0.8-0.8-1.6-1.6c0-0.8,0-1.6,0-3.2l1.6-4h0.8
	c0.8,0,0.8,0,0.8,0l0.8-0.8V256l-0.8-0.8l0,0l0.8-0.8l0,0l0,0v-0.8v-0.8l0,0c-0.8,0-0.8,0-1.6,0.8v0.8l0,0l0,0l0,0c0,0,0,0-0.8,0
	c0,0-0.8,0-0.8,0.8v0.8c0,0.8,0,0.8,0.8,1.6l-1.6,2.4c-0.8-1.6-0.8-2.4-0.8-4s0.8-1.6,0.8-2.4s-0.8,0.8-0.8-0.8c0-0.8,4-3.2,3.2-4
	s-4,1.6-3.2,0s4-1.6,4-4.8c0-1.6-3.2,0.8-3.2,0s1.6-2.4,1.6-4c0-0.8,0.8-1.6,0-1.6c0,0,0,0-0.8,0c-1.6,0.8-0.8,1.6-2.4,1.6
	c0,0-0.8-1.6-0.8-0.8c-0.8,0-1.6,1.6-1.6,2.4c0,0.8,0,2.4,0,3.2c-0.8,0.8-0.8-1.6-2.4-1.6c-0.8,0-1.6,1.6-1.6,2.4s2.4,3.2,1.6,4
	s-2.4-2.4-4-0.8c-0.8,1.6,3.2,4,4,4s0,0.8,0.8,1.6c0.8,0.8,1.6,1.6,2.4,1.6c0.8,0.8,1.6,2.4,1.6,4l-3.2-1.6v-0.8v-0.8l-0.8-0.8h-0.8
	c0,0,0,0-0.8,0.8c0,0,0,0-0.8-0.8l0,0l0,0h-0.8c0,0-0.8,0-0.8,0.8l0,0c0,0.8,0,0.8,0.8,1.6c0,0,0,0,0.8,0l0,0l0,0l0,0c0,0,0,0,0,0.8
	c0,0,0,0.8,0.8,0.8h0.8c0.8,0,0.8,0,1.6-0.8l4,3.2c0,1.6,0,2.4,0,2.4l0,0l0,0v0.8c-0.8,0-1.6-0.8-1.6,0s1.6,1.6,0.8,2.4
	c0,0-3.2-0.8-3.2,0s0,2.4,1.6,2.4c1.6,0.8,5.6,1.6,4.8,1.6c-0.8,0.8-4.8-2.4-4.8,0s1.6,3.2,2.4,3.2c0.8,0,4.8,0,4.8,0.8
	s-3.2,0-3.2,0.8c0,1.6,2.4,1.6,2.4,1.6c0.8,0,2.4,0,3.2,0.8s3.2,3.2,4,4l0,0l0,0h-2.4c0-0.8,0-0.8-0.8-1.6l-0.8-0.8l0,0l0,0
	c0,0,0,0-0.8,0c0,0,0,0,0,0.8l0,0c0,0,0,0,0,0.8H184c-0.8,0-0.8,0-0.8,0l0,0l0,0l0,0c0,0,0.8,0.8,1.6,0.8l0,0l0,0l0,0v0.8
	c0,0,0,0,0.8,0.8l0,0c0.8,0,1.6-0.8,1.6-1.6h4c1.6,0.8,2.4,1.6,2.4,1.6l0,0l0,0l0,0l0,0c-0.8,0-2.4,0-2.4,0c0,0.8,6.4,3.2,4,4
	c-1.6,0.8-4-1.6-4,0c-0.8,1.6,1.6,3.2,2.4,3.2c0.8,0.8,6.4,0,5.6,1.6c-0.8,1.6-4.8-0.8-5.6,0.8c0,1.6,2.4,4,4,4s3.2-2.4,4-0.8
	s-0.8,1.6,0,2.4c1.6,0,2.4-1.6,4-0.8c1.6,0,4,1.6,4.8,2.4h-3.2c0,0,0-0.8-0.8-0.8l-0.8-0.8h-0.8v0.8c0,0,0,0,0,0.8l0,0
	c-0.8,0-0.8,0-0.8,0l-0.8,0.8c0,0,0,0.8,0.8,0.8h0.8h0.8l0,0v0.8h0.8l0,0c0,0,0.8,0,0.8-0.8v-0.8v-0.8h4c0.8,0.8,1.6,1.6,1.6,1.6
	s-1.6,0-2.4,0.8c-0.8,0-1.6,1.6-1.6,1.6s0,0,0,0.8l0,0l0,0l0,0l0,0h1.6l0.8-0.8c0,0,0,0.8,0.8,0.8s2.4-1.6,4-0.8
	c1.6,0.8-2.4,1.6-1.6,3.2s3.2,0.8,4,0c0.8,0,2.4-3.2,4-1.6c0.8,1.6-2.4,2.4-1.6,4c0.8,1.6,2.4,0.8,4,0.8c0.8-0.8,3.2-4,4-3.2
	c0.8,1.6-1.6,2.4-1.6,4c0.8,0.8,2.4,0,3.2-0.8s1.6-2.4,3.2-3.2c1.6-0.8,1.6-0.8,1.6-0.8l0,0c0,0,0.8-0.8,1.6-0.8
	c0.8-0.8,2.4-1.6,4-1.6c0.8,0,1.6,0,1.6,0.8c-1.6,0.8-4,1.6-5.6,2.4s-2.4,1.6-3.2,2.4l0,0c0,0,0.8,0.8,1.6,0.8s1.6-0.8,1.6-0.8
	s1.6-0.8,3.2-2.4c0.8-0.8,3.2-1.6,4-1.6c0,0.8,0,0.8,0,1.6c0,0.8-1.6,0.8-4,3.2c-2.4,2.4-3.2,4.8-3.2,4.8s0.8-0.8,1.6-0.8
	s1.6-0.8,1.6-0.8l0,0c0,0,0,0,0.8,0s0.8,0.8,1.6,0.8c0,0,0,0,0.8,0.8c0,0.8,0.8,0.8,0.8,0.8s0.8-1.6,2.4-2.4c0,0,0.8-0.8,1.6-1.6
	c0,0.8,0.8,0.8,1.6,1.6c0.8,0.8,2.4,0.8,3.2,1.6c0.8,0.8,1.6,0.8,1.6,0.8l0.8-0.8l0.8-0.8l0,0c0,0,0,0,0.8-0.8c0.8,0,0.8,0,0.8,0
	l0,0c0,0,0,0,1.6,0s1.6,0.8,1.6,0.8s-1.6-2.4-2.4-3.2c-0.8-0.8-3.2-1.6-4.8-2.4c-0.8-0.8-1.6-1.6-1.6-1.6l0,0V308
	c0.8,0,2.4,0.8,4,1.6c1.6,0.8,2.4,1.6,2.4,2.4c0,0,0.8,0.8,1.6,0.8c0.8,0,1.6-0.8,0.8-0.8l0,0l0,0l0,0l0,0c0,0-0.8-1.6-4-3.2
	c-2.4-0.8-4-1.6-4.8-1.6c0,0,0,0,0-0.8c0.8,0,4.8,0,6.4,0.8s3.2,1.6,4.8,2.4c1.6,1.6,4.8,4,6.4,4c3.2,0,9.6-4,11.2-4
	c1.6-0.8,3.2-0.8,3.2-0.8l0,0l0,0l0,0l0,0l0,0l0,0l0,0c0,0,0,0-0.8,0c0,0,0,0,0.8,0c0,0-0.8-0.8-2.4-0.8c-0.8,0-0.8-0.8-0.8-0.8
	c-0.8,0-2.4,0-2.4,0s1.6-1.6,2.4-1.6c0.8-0.8,2.4-1.6,2.4-1.6l0,0c0,0,0.8-0.8,1.6-1.6l4,2.4l0,0v0.8l0,0l0,0l0,0l0.8,0.8h0.8
	c0.8,0,0.8-0.8,0.8-1.6V304l-0.8-0.8h-0.8l0,0l-2.4-2.4c0.8-0.8,1.6-0.8,2.4-0.8c1.6,0,9.6,0,12.8-1.6c4-2.4,3.2-6.4,3.2-7.2
	c0-0.8,0.8-1.6,0.8-1.6s-0.8,0-1.6,0c-0.8,0-1.6,0.8-1.6,0.8s0-1.6,0.8-2.4c0-0.8,0-0.8,0-1.6l0,0l0,0c0.8,0,0.8,0,1.6-0.8l3.2,0.8
	c0,0.8,0.8,1.6,1.6,1.6c0.8,0,1.6-0.8,1.6-1.6c0-0.8-0.8-1.6-1.6-1.6c-0.8,0-0.8,0-1.6,0.8l-2.4-0.8c0-0.8,0.8-0.8,1.6-1.6
	c0,0,0.8-0.8,1.6-0.8c0.8,0,2.4,0,4.8-1.6c3.2-1.6,4.8-6.4,5.6-8.8c0.8-2.4,3.2-4,3.2-4l0,0c0,0-1.6-0.8-4.8,2.4c0,0,0-2.4,0-4
	c0-0.8,0-1.6,0-2.4v-0.8l0,0v-0.8l4.8-1.6l0.8,0.8c0.8,0,1.6-0.8,1.6-1.6c0-0.8-0.8-1.6-1.6-1.6c-0.8,0-1.6,0.8-1.6,1.6h-4v-0.8
	c0-0.8,1.6-1.6,2.4-3.2c1.6-1.6,5.6-3.2,5.6-7.2l0,0C327.2,244,325.6,243.2,324.8,242.4z M212.8,295.2L212.8,295.2L212.8,295.2
	L212.8,295.2z M252,308.8C252,308.8,251.2,308.8,252,308.8C251.2,308.8,251.2,308.8,252,308.8L252,308.8z M283.2,304L283.2,304
	L283.2,304z M304.8,285.6L304.8,285.6L304.8,285.6z"/>
<g>
	<path style="fill:#006847;" d="M178.4,264L178.4,264L178.4,264z"/>
	<path style="fill:#006847;" d="M191.2,241.6l1.6,2.4l-0.8,0.8h0.8v0.8H192v-0.8l-1.6,1.6c0,0,0,0,0.8,0v0.8l0.8,0.8
		c0,0,0.8,0,1.6,0l0,0c0,0.8,0,1.6,0.8,2.4c0.8,1.6,1.6,2.4,2.4,2.4c0,0.8-0.8,1.6-0.8,3.2v0.8l0,0h-0.8c0,0,0,0.8,0.8,0.8l0,0
		c0.8,1.6,1.6,3.2,3.2,4.8l0,0h-1.6c0,0,0.8,0.8,1.6,0.8h0.8c1.6,0.8,3.2,1.6,4,2.4c0,0,0,0,0,0.8l-0.8,0.8l0,0c0,0,1.6,0,1.6-0.8
		v-0.8c1.6,0.8,3.2,0.8,4,0.8l0,0l0,0l0,0c0,0.8,0.8,1.6,1.6,3.2l0,0c-0.8,0-1.6,1.6-1.6,1.6s1.6,0,1.6-0.8c0,0,0,0,0.8,0
		c1.6,0.8,3.2,1.6,5.6,2.4c0,0.8,0,0.8,0,0.8s0.8-0.8,1.6-0.8l0,0l0,0l0,0c0,0.8-0.8,1.6-0.8,1.6s0.8,0,1.6-0.8c0,0,0-0.8,0.8-0.8
		h0.8c0.8,0,0.8,0,1.6,0c3.2,0,5.6-0.8,6.4-1.6c0,1.6,0.8,2.4,1.6,4c0.8,0.8,1.6,0.8,2.4,1.6v0.8H232h0.8c0,0,0.8,0,0.8-0.8h0.8
		c0.8,0,2.4,0.8,4.8,0.8c0,0.8-0.8,1.6-0.8,1.6s0.8,0,1.6-0.8l0,0c0.8,0,1.6,0,1.6,0c0.8,0,1.6,0,2.4,0l0,0c0,0.8-0.8,1.6-0.8,1.6
		s0.8,0,0.8-0.8l0.8-0.8c0,0.8,0,1.6,0,1.6s0.8-0.8,0.8-1.6c0,0,0,0,0-0.8l0,0c1.6-0.8,2.4-0.8,3.2-1.6c0,0,0,0,0,0.8s0,1.6,0,3.2
		c0,0.8,0,1.6,0,2.4c-0.8,0-0.8,0-1.6,0l0,0c-0.8,0-3.2,0-3.2,0l0,0c0,0,0,0-0.8,0h-0.8c0,0,0,0-0.8,0s-1.6,0-1.6,0l0,0h-0.8h-0.8
		l0,0c-0.8-0.8-0.8-0.8-1.6-0.8l0,0c-0.8,0-1.6,0.8-1.6,0.8c-0.8,0.8-0.8,1.6-0.8,2.4l0,0c0,0,0,0-0.8,0s-1.6-0.8-2.4-0.8
		c-0.8-0.8-1.6-1.6-2.4-3.2c0-0.8-0.8-0.8-0.8-0.8c0.8-0.8,0.8-0.8,0.8-1.6c0-1.6-0.8-2.4-2.4-2.4s-2.4,0.8-2.4,2.4s0.8,2.4,1.6,2.4
		v0.8v0.8l0,0l0,0l0,0c0,0-0.8,0-1.6,0c-1.6-0.8-4.8-1.6-7.2-3.2c-1.6-0.8-2.4-1.6-3.2-1.6s-0.8-0.8-0.8-0.8l0,0
		c-0.8-1.6-6.4-3.2-6.4-1.6c-0.8,1.6,1.6,4.8,4,4.8c0.8,0,1.6,0,2.4,0c0.8,0,2.4,1.6,4,2.4c0.8,0.8,1.6,0.8,1.6,1.6l0.8,0.8l0,0l0,0
		v0.8c0,0-0.8,0-0.8,0.8c0,0,0,0-0.8,0c-0.8-0.8-0.8-0.8-1.6-0.8c-1.6,0-2.4,0.8-2.4,2.4s0.8,2.4,2.4,2.4c1.6,0,2.4-0.8,2.4-2.4l0,0
		c1.6,0,4,0,6.4,0.8c1.6,0,2.4,0.8,3.2,0.8s0.8,0.8,0.8,0.8v0.8l0,0v0.8c0,0-0.8,0.8-1.6,0.8h-0.8l0,0c-0.8,0-1.6,0-2.4,0
		c-1.6,0.8-3.2,2.4-2.4,3.2c0.8,0.8,3.2,1.6,4.8,0.8c0.8-0.8,1.6-0.8,2.4-1.6c0,0,0,0,0.8,0s2.4,0,4,0c0.8,0,1.6,0,1.6,0l0,0
		c0,0.8,0.8,0.8,0.8,1.6c0.8,0.8,0.8,0.8,1.6,0.8c0,0,0,0,0.8,0l0,0c0.8,0.8,1.6,1.6,2.4,1.6c0,0,0.8,0,1.6,0.8c1.6,0,4.8,0.8,8,0.8
		c2.4,0,4,0,6.4,0c0.8,0,1.6,0,2.4,0s0.8,0,1.6,0c1.6,0,2.4-0.8,3.2-2.4c0,0,0.8,0,0.8-0.8c0,0,0,0,0.8-0.8s2.4-1.6,4-1.6
		c2.4-0.8,3.2-0.8,4.8-0.8h0.8c0.8,0.8,1.6,1.6,2.4,1.6c1.6,0,2.4-0.8,2.4-2.4s-0.8-2.4-2.4-2.4c-0.8,0-2.4,0.8-2.4,1.6
		c0,0-0.8,0-0.8-0.8l-0.8-0.8v-0.8l0,0l0,0c0,0,0,0,0.8-0.8s3.2-1.6,4.8-1.6c0.8,0,1.6-0.8,2.4-0.8l0,0l0,0c1.6,1.6,3.2,0,4-0.8
		s2.4-1.6,1.6-3.2c-0.8-0.8-2.4-0.8-3.2-0.8c-0.8,0-1.6,0.8-2.4,1.6c-0.8,0-1.6,0-3.2,0.8s-4.8,1.6-8.8,1.6c-0.8,0-2.4,0-2.4,0v-0.8
		c0-0.8-0.8-1.6-0.8-2.4l-0.8-0.8h-0.8c-0.8,0-0.8,0-1.6,0.8c0,0-0.8,0-0.8,0.8l0,0l-0.8-0.8c0-0.8,0.8-0.8,0.8-0.8s0.8-0.8,1.6-0.8
		c0.8,0,0.8-0.8,0.8-0.8s0,0,0.8,0l2.4-0.8c0.8,0,0.8,0,1.6,0c0.8,0,2.4,0,3.2-0.8c0.8,0,1.6,0.8,3.2,1.6h0.8c0,0,0,0.8,0.8,1.6
		c0.8,0.8,1.6,0.8,1.6,0.8l-0.8-1.6l0,0c1.6,0.8,4,0.8,5.6,0.8l0,0c1.6,0,3.2-0.8,4.8-0.8c0,0,0,0.8,0.8,0.8s1.6,0,1.6,0
		s-0.8-0.8-1.6-0.8c0,0,0,0-0.8-0.8l0,0l0.8,0.8c0.8,0,1.6,0,1.6,0s-1.6,0-1.6-0.8l0,0c0,0,0.8,0,0.8-0.8c0.8-0.8,1.6-0.8,2.4-1.6
		l0.8-0.8c0,0,0,0,0.8-0.8h0.8c0.8,0,1.6-0.8,1.6-0.8H296h-0.8l0,0v-0.8c0-0.8,0-1.6,0-2.4c0,0,0,0,0-0.8c0.8,0,0.8-0.8,1.6-0.8
		c0.8-0.8,1.6-1.6,1.6-2.4l0,0c0,0,0.8,0,1.6,0V268l0,0v-1.6v0.8c0,0,0,0-0.8,0l0,0c0,0,0,0,0-0.8c0,0,0,0,0.8,0l0,0l1.6-2.4h0.8
		c0.8,0,0.8,0,1.6-0.8v-0.8c0-0.8,0-0.8-0.8-1.6l0,0h-0.8c-0.8,0-0.8,0-1.6,0.8v0.8c0,0,0,0,0,0.8l-2.4,1.6l0,0l0,0l0,0h-0.8V264
		l0,0l-1.6-0.8c0,0,0,0,0,0.8h-0.8l-0.8,0.8l0,0v0.8h0.8c-0.8,0-1.6,0.8-2.4,1.6c-0.8,0.8-0.8,0.8-1.6,1.6c-0.8,0-0.8-0.8-1.6-0.8
		c-0.8,0-0.8-0.8-1.6-0.8h-0.8l0,0l0,0l0,0l0.8-1.6c0,0-0.8,0-1.6,0.8v0.8c-0.8,0-0.8,0.8-1.6,0.8c-0.8,0.8-1.6,0.8-2.4,1.6l0,0
		c0-0.8,0-1.6,0-1.6l-0.8,0.8c0,0,0,0.8,0,1.6l0,0c-0.8,0.8-1.6,1.6-2.4,2.4l-0.8,0.8c0,0-0.8,0-1.6,0l0,0c-0.8,0-1.6,0-1.6,0
		s0,0,0-0.8l0,0l0,0l0,0c0-0.8,0-0.8,0-1.6c0-0.8,0-1.6,0-1.6s1.6,0,1.6,0.8c0.8,1.6-1.6,1.6-1.6,1.6s0.8,0,1.6,0l0,0h0.8
		c0,0,0.8,0,0.8-0.8l0,0l0,0v-0.8c0-0.8,0-1.6-0.8-1.6l0,0l0,0l0,0l0,0c-0.8-0.8-0.8-0.8-0.8-0.8l0,0l0,0l0,0l0,0v-0.8l-0.8-0.8
		h-0.8c-0.8,0-0.8,0-1.6,0c0,0,0-0.8-0.8-0.8l-0.8-0.8l0,0l0,0c0,0,0,0-0.8-0.8c0-0.8-0.8-0.8-0.8-0.8l0,0c0,0,0-0.8-0.8-0.8
		c0,0-0.8,0-0.8-0.8s0-1.6,0-2.4c0.8,0.8,1.6,1.6,1.6,0.8c0.8,0,0-1.6,0-2.4c0,0,0-0.8,0-1.6c0,0,0,0,0-0.8l5.6,6.4
		c0,0,0.8,0.8,2.4,0.8c0.8,0,1.6-0.8,1.6-0.8s0.8,1.6,3.2,1.6c1.6,0,2.4-0.8,3.2-1.6c0.8,0,0.8,0.8,0.8,0.8c2.4,0.8,5.6-1.6,6.4-1.6
		h0.8c4,0.8,6.4-2.4,6.4-2.4l-1.6-1.6l0,0l0,0l0,0l0,0c0,0-4.8-4-12-8.8c-5.6-4-11.2-8.8-13.6-10.4c0-1.6,0-4-0.8-5.6
		c-0.8-2.4-1.6-3.2-1.6-4c0.8-0.8,0.8-1.6,0.8-2.4c0,0,0,0,0.8,0c0.8,0.8,1.6,2.4,3.2,3.2s1.6,0,2.4,0.8s4.8,6.4,4.8,6.4l0,0
		c0.8,0.8,0.8,1.6,0.8,1.6l0,0l0.8,0.8c0.8,0,0.8,0,0.8-0.8c0,0-1.6-1.6-2.4-3.2c-0.8-1.6-1.6-4.8-2.4-6.4l0,0c0,0,0.8,0,1.6,0
		c0.8,0,4,3.2,4,4s0,1.6,1.6,4c1.6,3.2,2.4,4,2.4,4l0,0l0,0c0,0.8,0.8,1.6,1.6,1.6c0.8,0,0-0.8-0.8-1.6c0-0.8-0.8-2.4-1.6-4.8
		c-0.8-2.4-1.6-5.6-1.6-5.6s0,0-0.8-0.8c0,0,0,0,0.8,0l0.8,0.8l0,0c0.8,0.8,2.4,3.2,2.4,4c0.8,1.6,0.8,4,1.6,6.4
		c0.8,2.4,1.6,4.8,2.4,4c0-0.8,0-4.8-1.6-8c-0.8-3.2-1.6-7.2-1.6-8l0,0c0,0,0.8,0.8,1.6,2.4c0.8,1.6,0,3.2,1.6,8s2.4,5.6,3.2,7.2
		c0.8,1.6-0.8,6.4,0.8,7.2c0,0,0-8,0-10.4s0-2.4-0.8-8s-0.8-6.4-0.8-6.4l0,0c0,0,0.8,0.8,1.6,3.2c0.8,4,0.8,9.6,1.6,11.2
		c0.8,1.6,0.8,0.8,1.6,3.2c0.8,1.6-0.8,10.4,0.8,10.4c1.6,0,0.8-11.2,0.8-14.4s-0.8-12.8-0.8-13.6l0,0c0.8,0.8,1.6,2.4,1.6,3.2l0,0
		l0,0c0,2.4,0,11.2,0.8,13.6c0,3.2,0.8,3.2,0.8,6.4c0,2.4-0.8,5.6-0.8,6.4s0,2.4,0.8,2.4s0-1.6,0.8-2.4c0-0.8,0.8-0.8,0.8-1.6
		c0.8-1.6,0.8-11.2,1.6-16s1.6-4,1.6-9.6c0-4.8-1.6-8.8-1.6-9.6c0.8,0,0.8,0,1.6,0c0.8,0,0.8-0.8,0.8-0.8c0-0.8-0.8-0.8-2.4-1.6
		l-1.6-3.2c-1.6-3.2-3.2-8-7.2-13.6c-4.8-7.2-12-12-12.8-12l0,0l0,0l0,0l0,0l0,0c0,0,0-0.8,0.8-0.8c0,0,1.6-1.6,0.8-1.6
		c-0.8,0-2.4,0-3.2,0c-0.8,0-1.6,0-4.8-2.4c0,0-8.8-6.4-23.2-7.2c-4.8,0-6.4,1.6-6.4,2.4l0,0c0,0,0,0,0,0.8c0,0-0.8,0-1.6,0
		c-0.8,0-2.4,0-3.2,0.8c-6.4-0.8-7.2,0-7.2,2.4l0,0c0,0.8,0,1.6,0.8,2.4c0,0.8,0.8,0.8,1.6,0.8s1.6,0,3.2,0.8c1.6,0,2.4,0.8,4,2.4
		c1.6,0.8,1.6,2.4,2.4,3.2c0,0.8,0,1.6,0,2.4c0,0.8,0,1.6,0,1.6s0,0,0,0.8c-0.8-0.8-0.8-1.6-1.6-2.4c-0.8-1.6-2.4-3.2-3.2-3.2
		c0-0.8,0-1.6,0-1.6s0,0.8-1.6,0.8c-0.8,0-1.6-0.8-4-1.6c-1.6-0.8-2.4-0.8-3.2-0.8l0,0c0,0,0,0-0.8,0h-0.8c0-2.4-1.6-4-1.6-4l0,0
		l0,0l0,0l0,0l0,0l0,0c0,0,0,0.8-0.8,1.6c0,0.8-1.6,1.6-1.6,2.4c0-1.6-0.8-3.2-0.8-3.2l0,0c0-1.6-0.8-1.6-0.8-1.6l0,0l0,0l0,0l0,0
		c0,0,0,0,0,0.8c0,2.4-0.8,4.8-0.8,5.6c-0.8,0.8-1.6,0.8-1.6,0.8c0.8-0.8,0.8-0.8,0.8-2.4c0-2.4-1.6-2.4-1.6-2.4l0,0l0,0l0,0l0,0
		c0,0,0,0.8,0,3.2c0,1.6-1.6,3.2-1.6,3.2s0-0.8,0-1.6c0-2.4-0.8-2.4-0.8-2.4l0,0l0,0l0,0l0,0l0,0l0,0l0,0l0,0l0,0c0,0,0,0.8-0.8,2.4
		c-0.8,2.4-1.6,2.4-2.4,4c-2.4,2.4-3.2,2.4-3.2,3.2v0.8l0,0l0,0l0,0l0,0l0,0l0,0l0,0l0,0l0,0l0,0l0,0l0,0l0,0l0,0l0,0l0,0
		c0,0,0,0,0,0.8c0,0,0,0,0,0.8l0,0l0,0l0,0l0,0c0,0-0.8,0-1.6,0.8l0,0c-0.8,0-1.6,0.8-4,0.8c-0.8,0-1.6,0-1.6-0.8s0-0.8,0-1.6
		c0.8,0,0.8,0,1.6-0.8c0,0,0.8-0.8,1.6-0.8c1.6-0.8,2.4-2.4,2.4-2.4l0,0c0,0,0,0-0.8,0c0,0-0.8,0.8-1.6,0.8
		c-1.6,0.8-3.2,0.8-3.2,0.8s0,0,0-0.8l0,0c0,0,0.8-0.8,0.8-1.6l0.8-0.8c0-0.8,0-0.8,0.8-1.6v-0.8c0,0,0-0.8,0.8-0.8
		c0,0,0.8,0.8,0.8,1.6s0,1.6,0,1.6c1.6,0,0.8-4,0.8-4.8l0,0v-0.8l-0.8-0.8l-1.6,0.8c0,0-0.8,0-1.6,0s-5.6,4-5.6,5.6s0.8,2.4,0.8,3.2
		l0,0l0,0c0,1.6,0,6.4,2.4,7.2s6.4,0,6.4,0l0,0c0,0.8,0.8,0.8,1.6,1.6s2.4,1.6,3.2,1.6s0.8,0,1.6-0.8l0,0l0,0v0.8l0,0l0,0l0,0
		c-1.6,3.2-4.8,4.8-7.2,7.2c-1.6,0.8-2.4,2.4-4,4c-3.2,4-4,5.6-4,8.8c0,0,0,0,0,0.8c0,4.8,2.4,8,4,8.8s4,1.6,4.8,1.6l0,0l0,0l0,0
		c0,0,0.8,0,1.6,0s1.6,0,3.2,0c0.8,0,1.6,0,1.6,0c0.8,0,0.8,0,0.8,0s0,0,0,0.8c0,0,0,0.8-0.8,0.8l0,0c0-0.8,0.8-0.8,0.8-0.8h-0.8
		h-0.8c0,0,0,0-0.8,0c0,0-0.8,0-1.6,0l0,0c-0.8,0-1.6,0.8-1.6,0.8c0,0.8-0.8,0.8-0.8,1.6l0,0c0,0,0,0-0.8,0c0,0-0.8,0-0.8,0.8
		c0,0-0.8,0.8-0.8,1.6l0,0c0,0,0,0-0.8,0c0,0,0,0.8,0,1.6l0,0h-0.8c-0.8,0-0.8,0-1.6-0.8s-0.8-1.6-0.8-2.4c0-0.8,0-1.6-0.8-3.2
		c-0.8-1.6-2.4-2.4-3.2-4c-1.6-0.8-2.4-2.4-3.2-3.2v-0.8c0-0.8,0.8-1.6,0.8-3.2v-0.8c0-0.8,0.8-1.6,0.8-2.4v-0.8v-0.8
		c0-1.6-1.6-3.2-3.2-4.8c-0.8-0.8-1.6-0.8-2.4-1.6l0,0c0,0,0-0.8-0.8-0.8l-0.8-0.8l0,0c0,0,0,0-0.8,0c0,0,0,0.8-0.8,0.8l0,0l0,0l0,0
		l0,0c0,0,0,0,0-0.8L196,216l0,0c0,0,0,0-0.8,0l0,0l0,0l-0.8-0.8l0,0h-0.8c0,0,0,0.8-0.8,0.8l0,0l0,0l0,0H192l-0.8,0.8l0,0
		c0,0.8,0,0.8,0.8,0.8l0,0l0,0l0,0l0,0v0.8c0,0,0,0,0.8,0c0,0,0,0,0.8,0h0.8l0,0h0.8c0.8,0,1.6,0,1.6,0l0,0l0,0l0,0c0,0,0,0,0,0.8
		c0,0,0,0,0.8,0l0,0c0.8,0,0.8,0,0.8-0.8l0,0c0,0,0.8,0,0.8,0.8c0.8,0.8,0.8,0.8,0.8,1.6c0,0,0,0,0,0.8s-0.8,1.6-0.8,3.2
		c-0.8,1.6-0.8,3.2-0.8,4.8v0.8c0,0.8,0,0.8,0,1.6s0.8,1.6,0.8,2.4c0.8,0.8,0.8,0.8,1.6,1.6c1.6,0.8,3.2,1.6,4,3.2s0.8,3.2,1.6,4.8
		c0,0.8,0,1.6,0.8,2.4c0,0.8,0.8,1.6,1.6,1.6c0.8,0.8,1.6,0.8,3.2,0.8l0,0c0,0,0,0,0.8,0s0.8,0,1.6,0s1.6,0,1.6-0.8
		c0.8,0,1.6-0.8,1.6-0.8s0.8,0.8,1.6,0.8l0,0c0.8,0,1.6-0.8,2.4-0.8c0.8,0,1.6-0.8,1.6-0.8l0,0c0.8,0,0.8,0,0.8,0l0,0l0.8,0.8h0.8
		l0,0l0,0c0,0,0.8,0,0.8-0.8c0.8-0.8,1.6-1.6,1.6-1.6l0,0l0.8,0.8l0,0c-0.8,0-1.6,0.8-1.6,0.8l0,0l0,0l0,0l0,0l0,0
		c0,0,0.8,0.8,3.2,1.6c2.4,0.8,4,0.8,4,0.8l0,0l0,0l0,0l0,0c-0.8,0.8-0.8,1.6,0,1.6l0,0l0,0l0,0l0,0l0,0c0,0,0.8,0.8,4.8,0
		c3.2-0.8,3.2-0.8,3.2-1.6c0.8,0,0.8,0,0.8,0l0,0l0,0l0,0l0,0l0,0c0,0,0.8,2.4,1.6,2.4c1.6,0,1.6-4,1.6-5.6c2.4,2.4,4,4.8,4,4.8
		s0.8,0.8,1.6,0.8l0,0l0,0c0,0,0.8,1.6,1.6,3.2c0.8,1.6,1.6,3.2,2.4,2.4c0.8,0,0.8-1.6,0.8-1.6l0,0v-0.8l0,0c0,0,0.8,0.8,1.6,1.6
		l0,0c0,0,0,0-0.8,0s-0.8,0.8-1.6,0.8c0,0-0.8,0-0.8,0.8h-0.8l0,0l0,0l0,0c0,0,0,0-0.8,0l0,0c-0.8,0-0.8,0-0.8,0l0,0l-0.8-0.8l0,0
		c-0.8,0-0.8,0-1.6,0.8l-0.8,0.8c0,0-0.8,0-1.6,0c-0.8,0-2.4,0.8-2.4,1.6l0,0c-0.8,0-0.8-0.8-1.6-0.8s-0.8-0.8-1.6-0.8v-0.8
		c0-0.8-0.8-1.6-0.8-1.6s0,0.8,0,1.6v0.8l0,0h-0.8v-0.8c0-0.8-0.8-0.8-0.8-0.8v0.8v0.8l0,0c-0.8,0-1.6-0.8-2.4-0.8
		c-0.8,0-1.6-0.8-2.4-0.8V256l-1.6-1.6c0,0,0,0.8,0.8,1.6c-0.8-0.8-1.6-0.8-1.6-0.8s0.8,0.8,0.8,1.6c0,0,0,0,0,0.8
		c-0.8,0-1.6,0.8-1.6,0.8c-0.8,0-0.8,0.8-1.6,0.8c0,0,0,0-0.8-0.8l-1.6-0.8c0,0,0,0.8,0.8,0.8c0,0.8,0.8,0.8,0.8,0.8l0,0
		c-0.8,0.8-0.8,1.6-1.6,1.6c-0.8-0.8-1.6-1.6-3.2-3.2c-0.8-0.8-0.8-0.8-1.6-1.6v-0.8c0-0.8,0-2.4,0-3.2l0.8,0.8c0,0,0,0,0.8,0
		l0.8-0.8v-0.8c0,0,0,0,0.8,0l-1.6-1.6v0.8H224l0,0c0,0,0,0,0-0.8c0,0,0,0,0-0.8c0,0-0.8,0-0.8-0.8v-0.8l0,0c0.8,0,0.8-0.8,1.6-0.8
		l0,0c0-0.8-0.8-0.8-0.8-1.6l0,0l0,0l0,0l0,0c-0.8,0-0.8,0.8-1.6,0.8l0,0v0.8l0.8,9.6l0,0l0,0l0,0c0,0,0,0-0.8,0.8l-0.8-0.8l0,0H220
		l0,0l-0.8,0.8v0.8l0,0l0.8,0.8l0,0c-0.8,0.8-0.8,1.6-0.8,2.4c-0.8,0-1.6,0-2.4,0c0,0,0,0-0.8,0s-0.8,0-1.6,0l0,0l-1.6-0.8v0.8l0,0
		c-1.6,0-2.4,0.8-3.2,1.6c0-0.8,0-2.4-0.8-4.8c0.8,0,0.8-1.6,0.8-1.6s-0.8,0-0.8,0.8l0,0c-0.8-0.8-1.6-2.4-2.4-3.2
		c-0.8-0.8-2.4-1.6-3.2-2.4c0,0,0,0,0-0.8s-0.8-1.6-0.8-1.6s0,0.8,0,1.6c0,0,0,0,0,0.8c-0.8,0-1.6-0.8-2.4-0.8h-0.8
		c0-0.8,0-1.6-0.8-2.4c-0.8-1.6-1.6-2.4-3.2-2.4c0,0,0.8,0,1.6,0c0,0,0,0,0-0.8v-1.6c0,0-0.8,0-0.8-0.8c0,0,0,0,0-0.8s-2.4,0-2.4,0
		h0.8c0,0-0.8,0-0.8,0.8l0,0c0,0,0,0-0.8,0v-0.8c0,0,0,0-0.8,0l0-0.8l0.8-0.8v-0.8l-0.8-0.8h-0.8l0,0l-0.8,0.8v0.8
		C190.4,241.6,191.2,241.6,191.2,241.6z M224,259.2L224,259.2L224,259.2L224,259.2z M264,229.6L264,229.6L264,229.6L264,229.6
		L264,229.6z M224,244C224,244,224,243.2,224,244L224,244L224,244L224,244z M250.4,201.6L250.4,201.6L250.4,201.6L250.4,201.6z
		 M218.4,233.6L218.4,233.6c-0.8,0-1.6,0-1.6,0H216c-0.8,0-0.8-0.8-1.6-0.8c-0.8-0.8-0.8-2.4-0.8-3.2l0,0c0-1.6,0.8-3.2,1.6-4
		c1.6-2.4,4.8-4,7.2-6.4s4-4.8,4.8-7.2c0,0,0,0,0-0.8c0-1.6-0.8-3.2-1.6-4c0.8,0,1.6-0.8,2.4-0.8c0.8,0,1.6-0.8,2.4-1.6l0.8-0.8
		v-0.8l0,0l0,0l0,0l0,0l0,0l0,0l0,0l0,0h0.8c0.8,0.8,0.8,1.6,0.8,1.6l0,0l0,0l0,0l0,0l0,0c0,0,0,0.8-0.8,1.6c0.8,0.8,0,1.6,0,1.6
		s0,0,0.8,0.8l0,0l0,0l0,0l0,0c0,0.8-1.6,1.6-1.6,3.2c-0.8,1.6-2.4,3.2-1.6,3.2s0.8,0,0.8,0l0,0l0,0l0,0c0,0,0,0,0,0.8
		c-0.8,0.8-3.2,4.8-3.2,6.4c0,2.4,0.8,1.6,0.8,4c0.8,2.4,0.8,5.6,0.8,5.6l0,0c0,0,0.8,0,1.6-0.8c0,0.8,0.8,1.6,1.6,2.4
		c0,0.8,0,3.2,0.8,4.8s3.2,4,4,4.8l0,0l-0.8-0.8c0,0,0-0.8-0.8-0.8s-1.6,0-1.6,0l0,0l0,0c0,0,0.8,1.6,0.8,2.4c0,0,1.6,0.8,2.4,1.6
		c-0.8,0-2.4,0-2.4,0.8c0,0-0.8,0-0.8,0.8c0,0-0.8,0-0.8-0.8c0,0,0,0,0-0.8l0,0v-0.8l0,0V244c0,0,0,0-0.8,0l0,0
		c0-0.8-0.8-0.8-0.8-1.6c-0.8-0.8-0.8-0.8-1.6-1.6l0,0c0-2.4-0.8-4-1.6-5.6c-1.6-1.6-3.2-1.6-4.8-1.6
		C222.4,233.6,220,233.6,218.4,233.6z M230.4,242.4L230.4,242.4L230.4,242.4L230.4,242.4L230.4,242.4z M245.6,216L245.6,216
		L245.6,216L245.6,216z M239.2,208.8L239.2,208.8L239.2,208.8L239.2,208.8z M245.6,216L245.6,216L245.6,216L245.6,216z M240,208.8
		L240,208.8L240,208.8L240,208.8z M240,208.8L240,208.8L240,208.8L240,208.8z M237.6,204.8L237.6,204.8L237.6,204.8L237.6,204.8z
		 M238.4,207.2c0,0,0-0.8-0.8-0.8C237.6,206.4,237.6,206.4,238.4,207.2z M232.8,214.4L232.8,214.4L232.8,214.4L232.8,214.4z
		 M242.4,198.4L242.4,198.4L242.4,198.4L242.4,198.4z M224.8,211.2L224.8,211.2L224.8,211.2L224.8,211.2L224.8,211.2z M225.6,212
		L225.6,212l0.8,0.8l0,0C226.4,212,225.6,212,225.6,212z M236,208c-0.8,0-0.8,0.8-1.6,0.8C234.4,208.8,235.2,208.8,236,208z
		 M246.4,204.8C246.4,204.8,245.6,204.8,246.4,204.8C245.6,204.8,246.4,204.8,246.4,204.8C246.4,204,246.4,204.8,246.4,204.8z
		 M244,207.2L244,207.2L244,207.2L244,207.2L244,207.2L244,207.2L244,207.2L244,207.2L244,207.2L244,207.2z M226.4,212.8
		L226.4,212.8L226.4,212.8L226.4,212.8L226.4,212.8z M236,243.2L236,243.2L236,243.2z M247.2,203.2L247.2,203.2L247.2,203.2z
		 M262.4,231.2L262.4,231.2L262.4,231.2L262.4,231.2L262.4,231.2z M262.4,230.4L262.4,230.4L262.4,230.4L262.4,230.4z M224.8,200.8
		L224.8,200.8L224.8,200.8c0.8,0,1.6-0.8,3.2-0.8C226.4,200,226.4,200.8,224.8,200.8z M218.4,222.4L218.4,222.4
		C218.4,222.4,218.4,221.6,218.4,222.4L218.4,222.4z M261.6,260L261.6,260L261.6,260L261.6,260z M236.8,190.4L236.8,190.4
		C236.8,189.6,236.8,189.6,236.8,190.4z M210.4,243.2v-0.8l0,0V243.2C211.2,243.2,210.4,243.2,210.4,243.2z M283.2,189.6l-0.8-0.8
		l0,0C283.2,188.8,283.2,188.8,283.2,189.6z M224,188.8L224,188.8L224,188.8L224,188.8z M217.6,200L217.6,200L217.6,200L217.6,200z
		 M215.2,248L215.2,248L215.2,248L215.2,248z M196.8,223.2L196.8,223.2L196.8,223.2L196.8,223.2z M235.2,263.2
		C235.2,264,235.2,264,235.2,263.2C235.2,264,235.2,264,235.2,263.2C235.2,264,235.2,264,235.2,263.2z M195.2,245.6
		C196,245.6,196,245.6,195.2,245.6C196,245.6,195.2,245.6,195.2,245.6L195.2,245.6L195.2,245.6z"/>
	<path style="fill:#006847;" d="M278.4,239.2L278.4,239.2L278.4,239.2z"/>
	<path style="fill:#006847;" d="M293.6,258.4L293.6,258.4L293.6,258.4z"/>
	<path style="fill:#006847;" d="M231.2,185.6L231.2,185.6L231.2,185.6z"/>
</g>
<g>
	<path id="SVGCleanerId_0_1_" style="fill:#006847;" d="M324.8,242.4C324.8,241.6,324.8,241.6,324.8,242.4c0-0.8,0-0.8,0-0.8
		s-0.8,0.8-0.8,1.6c0,0,0,0.8,0,1.6c0,0,0-1.6-0.8-3.2c-0.8-1.6-1.6-3.2-1.6-3.2l0,0l0,0c0,0-1.6,1.6-2.4,3.2
		c-0.8,1.6-0.8,4-0.8,5.6c0-0.8-0.8-2.4-1.6-4c-1.6-2.4-2.4-1.6-2.4-1.6l0,0l0,0l0,0c0,0,1.6,1.6,0.8,3.2c0,1.6-0.8,4.8,0,6.4
		s1.6,2.4,2.4,3.2c0,0.8,0,2.4,0,3.2l0,0v0.8l-2.4-1.6c0,0,0,0,0-0.8s-0.8-1.6-1.6-1.6s-1.6,1.6-1.6,2.4s0.8,1.6,1.6,1.6h0.8
		l2.4,2.4c0,0.8-0.8,1.6-0.8,1.6s0,0-0.8,0l0,0c-0.8,0.8-2.4,3.2-2.4,3.2s0-0.8,0-1.6c0-0.8,0-1.6,0-1.6l0,0l0,0
		c0,0-1.6,0.8-4.8,2.4c-2.4,2.4-4,4.8-3.2,6.4c0,1.6,1.6,4,1.6,6.4c0,1.6,0,4,0,4l0,0c0,0,0,0.8-0.8,0.8l-3.2-3.2l0.8-0.8
		c0-0.8-0.8-1.6-1.6-1.6c-0.8,0-1.6,0.8-1.6,1.6s0.8,1.6,1.6,1.6l0,0l2.4,4c-0.8,0.8-0.8,0.8-1.6,0.8c0,0-0.8,0-3.2,0.8
		c-1.6,0.8-3.2,2.4-3.2,2.4s0.8-0.8,0.8-2.4c0-2.4-0.8-3.2-0.8-3.2l0,0l0,0c0,0,0,0.8,0,1.6v0.8c0,0,0,0.8-0.8,0.8
		c-0.8,1.6-6.4,4.8-7.2,7.2c-0.8,2.4,0,2.4-0.8,3.2c-0.8,1.6-1.6,2.4-1.6,3.2c0,0,0,0-0.8,0.8c0,0-0.8,0-0.8,0.8l-0.8-3.2l0.8-0.8
		c0-0.8-0.8-1.6-1.6-1.6c-0.8,0-1.6,0.8-1.6,1.6c0,0.8,0.8,1.6,1.6,1.6l0,0v4l-0.8,0.8c0,0.8-0.8,0.8-0.8,1.6l0,0l0,0l0,0
		c-0.8,0-1.6-0.8-2.4-0.8s-1.6,0-2.4,0c0,0,0.8-0.8,1.6-0.8c0.8-0.8,0.8-0.8,0.8-0.8l0,0c0,0-2.4-0.8-4-0.8s-4,0-5.6,1.6
		c-1.6,0.8-2.4,3.2-4.8,4c-1.6,0.8-4,1.6-4,1.6s0,0-0.8,0c-1.6,0-2.4-0.8-4-0.8s-3.2,0-3.2,0c0-0.8,0-0.8,0-0.8s0,0,0-0.8h-1.6l0,0
		H248l0,0l0,0h-1.6c0,0-0.8,0-0.8,0.8c0,0,0,0.8,0,1.6c-0.8,0-1.6-0.8-3.2-0.8c-3.2,0-4.8,0.8-5.6,0.8H236c-1.6-0.8-1.6-2.4-2.4-2.4
		c-0.8,0,0,2.4-0.8,2.4s-2.4-4-4.8-4.8c-1.6,0-2.4,0-2.4,0.8s2.4,3.2,1.6,3.2c-0.8,0-3.2-4-5.6-4c-1.6,0-2.4,0.8-1.6,0.8
		c0,0.8,2.4,0.8,1.6,2.4c-0.8,1.6-2.4-2.4-4-1.6c-0.8,0-1.6,0-1.6,0l0,0l-0.8-4.8c0,0,0.8,0,0.8-0.8l0.8-0.8c0,0,0,0,0-0.8l0,0
		c0,0,0,0-0.8,0c0,0,0,0-0.8,0l0,0v-0.8l-0.8-0.8c0,0-0.8,0-0.8,0.8v0.8v0.8h-0.8c0,0,0,0,0,0.8l0,0c0,0.8,0,0.8,0.8,0.8
		c0,0,0.8,0,1.6,0l0,0v3.2c-0.8-0.8-1.6-1.6-1.6-1.6l0,0c0,0-1.6-0.8-2.4-2.4c-0.8-1.6,0-4-0.8-4s-0.8,2.4-1.6,1.6s0-4-0.8-5.6
		s-2.4-3.2-3.2-2.4c-0.8,0.8,0,4-1.6,3.2c-0.8-0.8,0-4,0-5.6s-0.8-2.4-1.6-2.4s0,3.2-0.8,3.2s-0.8-1.6-1.6-2.4c-0.8,0-0.8,0-0.8,0
		s0-1.6-0.8-1.6c0,0,0,0,0,0.8s0,1.6,0,2.4c0,0-0.8-0.8-1.6-0.8v-4h0.8l0.8-0.8l0,0l0,0l0,0l0,0c0,0,0-0.8-0.8-0.8c0,0,0,0-0.8,0
		V280c0-0.8,0-0.8,0-0.8l-0.8-0.8c0,0-0.8,0-0.8,0.8v0.8v0.8l0,0h-0.8c0,0,0,0-0.8,0.8l0,0c0,0.8,0,0.8,0.8,0.8h0.8v3.2
		c-0.8-0.8-1.6-1.6-2.4-2.4c0,0-0.8-1.6-0.8-3.2c0-2.4,1.6-5.6,1.6-6.4c-0.8-0.8-1.6,2.4-2.4,1.6s0.8-4,0-5.6s-0.8-2.4-1.6-2.4
		c-1.6,0-1.6,4-2.4,4c-0.8-0.8,0-2.4,0-4c-3.2-3.2-3.2-3.2-4-3.2s-0.8,2.4-1.6,2.4c0,0-0.8-0.8-1.6-1.6c0-0.8,0-1.6,0-3.2l1.6-4h0.8
		c0.8,0,0.8,0,0.8,0l0.8-0.8V256l-0.8-0.8l0,0l0.8-0.8l0,0l0,0v-0.8v-0.8l0,0c-0.8,0-0.8,0-1.6,0.8v0.8l0,0l0,0l0,0c0,0,0,0-0.8,0
		c0,0-0.8,0-0.8,0.8v0.8c0,0.8,0,0.8,0.8,1.6l-1.6,2.4c-0.8-1.6-0.8-2.4-0.8-4s0.8-1.6,0.8-2.4s-0.8,0.8-0.8-0.8c0-0.8,4-3.2,3.2-4
		s-4,1.6-3.2,0s4-1.6,4-4.8c0-1.6-3.2,0.8-3.2,0s1.6-2.4,1.6-4c0-0.8,0.8-1.6,0-1.6c0,0,0,0-0.8,0c-1.6,0.8-0.8,1.6-2.4,1.6
		c0,0-0.8-1.6-0.8-0.8c-0.8,0-1.6,1.6-1.6,2.4c0,0.8,0,2.4,0,3.2c-0.8,0.8-0.8-1.6-2.4-1.6c-0.8,0-1.6,1.6-1.6,2.4s2.4,3.2,1.6,4
		s-2.4-2.4-4-0.8c-0.8,1.6,3.2,4,4,4s0,0.8,0.8,1.6c0.8,0.8,1.6,1.6,2.4,1.6c0.8,0.8,1.6,2.4,1.6,4l-3.2-1.6v-0.8v-0.8l-0.8-0.8
		h-0.8c0,0,0,0-0.8,0.8c0,0,0,0-0.8-0.8l0,0l0,0h-0.8c0,0-0.8,0-0.8,0.8l0,0c0,0.8,0,0.8,0.8,1.6c0,0,0,0,0.8,0l0,0l0,0l0,0
		c0,0,0,0,0,0.8c0,0,0,0.8,0.8,0.8h0.8c0.8,0,0.8,0,1.6-0.8l4,3.2c0,1.6,0,2.4,0,2.4l0,0l0,0v0.8c-0.8,0-1.6-0.8-1.6,0
		s1.6,1.6,0.8,2.4c0,0-3.2-0.8-3.2,0s0,2.4,1.6,2.4c1.6,0.8,5.6,1.6,4.8,1.6c-0.8,0.8-4.8-2.4-4.8,0s1.6,3.2,2.4,3.2
		c0.8,0,4.8,0,4.8,0.8s-3.2,0-3.2,0.8c0,1.6,2.4,1.6,2.4,1.6c0.8,0,2.4,0,3.2,0.8s3.2,3.2,4,4l0,0l0,0h-2.4c0-0.8,0-0.8-0.8-1.6
		l-0.8-0.8l0,0l0,0c0,0,0,0-0.8,0c0,0,0,0,0,0.8l0,0c0,0,0,0,0,0.8H184c-0.8,0-0.8,0-0.8,0l0,0l0,0l0,0c0,0,0.8,0.8,1.6,0.8l0,0l0,0
		l0,0v0.8c0,0,0,0,0.8,0.8l0,0c0.8,0,1.6-0.8,1.6-1.6h4c1.6,0.8,2.4,1.6,2.4,1.6l0,0l0,0l0,0l0,0c-0.8,0-2.4,0-2.4,0
		c0,0.8,6.4,3.2,4,4c-1.6,0.8-4-1.6-4,0c-0.8,1.6,1.6,3.2,2.4,3.2c0.8,0.8,6.4,0,5.6,1.6c-0.8,1.6-4.8-0.8-5.6,0.8c0,1.6,2.4,4,4,4
		s3.2-2.4,4-0.8s-0.8,1.6,0,2.4c1.6,0,2.4-1.6,4-0.8c1.6,0,4,1.6,4.8,2.4h-3.2c0,0,0-0.8-0.8-0.8l-0.8-0.8h-0.8v0.8c0,0,0,0,0,0.8
		l0,0c-0.8,0-0.8,0-0.8,0l-0.8,0.8c0,0,0,0.8,0.8,0.8h0.8h0.8l0,0v0.8h0.8l0,0c0,0,0.8,0,0.8-0.8v-0.8v-0.8h4
		c0.8,0.8,1.6,1.6,1.6,1.6s-1.6,0-2.4,0.8c-0.8,0-1.6,1.6-1.6,1.6s0,0,0,0.8l0,0l0,0l0,0l0,0h1.6l0.8-0.8c0,0,0,0.8,0.8,0.8
		s2.4-1.6,4-0.8c1.6,0.8-2.4,1.6-1.6,3.2s3.2,0.8,4,0c0.8,0,2.4-3.2,4-1.6c0.8,1.6-2.4,2.4-1.6,4c0.8,1.6,2.4,0.8,4,0.8
		c0.8-0.8,3.2-4,4-3.2c0.8,1.6-1.6,2.4-1.6,4c0.8,0.8,2.4,0,3.2-0.8s1.6-2.4,3.2-3.2c1.6-0.8,1.6-0.8,1.6-0.8l0,0
		c0,0,0.8-0.8,1.6-0.8c0.8-0.8,2.4-1.6,4-1.6c0.8,0,1.6,0,1.6,0.8c-1.6,0.8-4,1.6-5.6,2.4s-2.4,1.6-3.2,2.4l0,0c0,0,0.8,0.8,1.6,0.8
		s1.6-0.8,1.6-0.8s1.6-0.8,3.2-2.4c0.8-0.8,3.2-1.6,4-1.6c0,0.8,0,0.8,0,1.6c0,0.8-1.6,0.8-4,3.2c-2.4,2.4-3.2,4.8-3.2,4.8
		s0.8-0.8,1.6-0.8s1.6-0.8,1.6-0.8l0,0c0,0,0,0,0.8,0s0.8,0.8,1.6,0.8c0,0,0,0,0.8,0.8c0,0.8,0.8,0.8,0.8,0.8s0.8-1.6,2.4-2.4
		c0,0,0.8-0.8,1.6-1.6c0,0.8,0.8,0.8,1.6,1.6c0.8,0.8,2.4,0.8,3.2,1.6c0.8,0.8,1.6,0.8,1.6,0.8l0.8-0.8l0.8-0.8l0,0c0,0,0,0,0.8-0.8
		c0.8,0,0.8,0,0.8,0l0,0c0,0,0,0,1.6,0s1.6,0.8,1.6,0.8s-1.6-2.4-2.4-3.2c-0.8-0.8-3.2-1.6-4.8-2.4c-0.8-0.8-1.6-1.6-1.6-1.6l0,0
		V308c0.8,0,2.4,0.8,4,1.6c1.6,0.8,2.4,1.6,2.4,2.4c0,0,0.8,0.8,1.6,0.8c0.8,0,1.6-0.8,0.8-0.8l0,0l0,0l0,0l0,0c0,0-0.8-1.6-4-3.2
		c-2.4-0.8-4-1.6-4.8-1.6c0,0,0,0,0-0.8c0.8,0,4.8,0,6.4,0.8s3.2,1.6,4.8,2.4c1.6,1.6,4.8,4,6.4,4c3.2,0,9.6-4,11.2-4
		c1.6-0.8,3.2-0.8,3.2-0.8l0,0l0,0l0,0l0,0l0,0l0,0l0,0c0,0,0,0-0.8,0c0,0,0,0,0.8,0c0,0-0.8-0.8-2.4-0.8c-0.8,0-0.8-0.8-0.8-0.8
		c-0.8,0-2.4,0-2.4,0s1.6-1.6,2.4-1.6c0.8-0.8,2.4-1.6,2.4-1.6l0,0c0,0,0.8-0.8,1.6-1.6l4,2.4l0,0v0.8l0,0l0,0l0,0l0.8,0.8h0.8
		c0.8,0,0.8-0.8,0.8-1.6V304l-0.8-0.8h-0.8l0,0l-2.4-2.4c0.8-0.8,1.6-0.8,2.4-0.8c1.6,0,9.6,0,12.8-1.6c4-2.4,3.2-6.4,3.2-7.2
		c0-0.8,0.8-1.6,0.8-1.6s-0.8,0-1.6,0c-0.8,0-1.6,0.8-1.6,0.8s0-1.6,0.8-2.4c0-0.8,0-0.8,0-1.6l0,0l0,0c0.8,0,0.8,0,1.6-0.8l3.2,0.8
		c0,0.8,0.8,1.6,1.6,1.6c0.8,0,1.6-0.8,1.6-1.6c0-0.8-0.8-1.6-1.6-1.6c-0.8,0-0.8,0-1.6,0.8l-2.4-0.8c0-0.8,0.8-0.8,1.6-1.6
		c0,0,0.8-0.8,1.6-0.8c0.8,0,2.4,0,4.8-1.6c3.2-1.6,4.8-6.4,5.6-8.8c0.8-2.4,3.2-4,3.2-4l0,0c0,0-1.6-0.8-4.8,2.4c0,0,0-2.4,0-4
		c0-0.8,0-1.6,0-2.4v-0.8l0,0v-0.8l4.8-1.6l0.8,0.8c0.8,0,1.6-0.8,1.6-1.6c0-0.8-0.8-1.6-1.6-1.6c-0.8,0-1.6,0.8-1.6,1.6h-4v-0.8
		c0-0.8,1.6-1.6,2.4-3.2c1.6-1.6,5.6-3.2,5.6-7.2l0,0C327.2,244,325.6,243.2,324.8,242.4z M212.8,295.2L212.8,295.2L212.8,295.2
		L212.8,295.2z M252,308.8C252,308.8,251.2,308.8,252,308.8C251.2,308.8,251.2,308.8,252,308.8L252,308.8z M283.2,304L283.2,304
		L283.2,304z M304.8,285.6L304.8,285.6L304.8,285.6z"/>
</g>
<path style="fill:#006847;" d="M178.4,264L178.4,264L178.4,264z"/>
<g>
	<path style="fill:#03442D;" d="M289.6,279.2l0.8-0.8c0,0,0,0,0.8-0.8h0.8c0.8,0,1.6-0.8,1.6-0.8h-0.8H292l0,0V276
		c0-0.8,0-1.6,0-2.4c0,0,0,0,0-0.8c0.8,0,0.8-0.8,1.6-0.8c0.8-0.8,1.6-1.6,1.6-2.4c0,0,0.8,0,1.6,0v-0.8l0,0v-1.6v0.8c0,0,0,0-0.8,0
		l0,0c0,0,0,0,0-0.8c0,0,0,0,0.8,0l0,0l1.6-2.4h0.8c0.8,0,0.8,0,1.6-0.8v-0.8c0-0.8,0-0.8-0.8-1.6h-0.8c-0.8,0-0.8,0-1.6,0.8v0.8
		c0,0,0,0,0,0.8l-2.4,1.6l0,0l0,0l0,0h-0.8v-0.8l0,0l-1.6-0.8c0,0,0,0,0,0.8H292l-0.8,0.8v0.8h0.8c-0.8,0-1.6,0.8-2.4,1.6
		c-0.8,0.8-0.8,0.8-1.6,1.6c-0.8,0-0.8-0.8-1.6-0.8c-0.8,0-0.8-0.8-1.6-0.8H284l0,0l0,0l0,0l0.8-1.6c0,0-0.8,0-1.6,0.8v0.8
		c-0.8,0-0.8,0.8-1.6,0.8c-0.8,0.8-1.6,0.8-2.4,1.6l0,0c0-0.8,0-1.6,0-1.6l-0.8,0.8c0,0,0,0.8,0,1.6l0,0l-0.8,0.8l8.8,7.2l0,0
		C288,280,288.8,279.2,289.6,279.2z"/>
	<path style="fill:#03442D;" d="M272.8,267.2l-0.8-0.8h-0.8c-0.8,0-0.8,0-1.6,0c0,0,0-0.8-0.8-0.8H268l7.2,6.4c0-0.8,0-0.8-0.8-1.6
		l0,0l0,0l0,0l0,0c-0.8-0.8-0.8-0.8-0.8-0.8l0,0l0,0l0,0l0,0C273.6,268,273.6,267.2,272.8,267.2z"/>
	<path style="fill:#03442D;" d="M304.8,217.6l-1.6-3.2c-1.6-3.2-3.2-8-7.2-13.6c-4.8-7.2-12-12-12.8-12c0,0,0.8,0,0.8,0.8l-0.8-0.8
		l0,0l0,0l0,0l0,0c0,0,0-0.8,0.8-0.8c0,0,1.6-1.6,0.8-1.6c-0.8,0-2.4,0-3.2,0c-0.8,0-1.6,0-4.8-2.4c0,0-8.8-6.4-23.2-7.2
		c-4.8,0-6.4,1.6-6.4,2.4l0,0c0,0,0,0,0,0.8c0,0-0.8,0-1.6,0s-2.4,0-3.2,0.8c-1.6,0-2.4,0.8-2.4,3.2l0,0c0,0.8,0,1.6,0.8,2.4
		c0,0.8,0.8,0.8,1.6,0.8s1.6,0,3.2,0.8c1.6,0,2.4,0.8,4,2.4c1.6,0.8,1.6,2.4,2.4,3.2c0,0.8,0,1.6,0,2.4c0,0.8,0,1.6,0,1.6s0,0,0,0.8
		c-0.8-0.8-0.8-1.6-1.6-2.4c-0.8-1.6-2.4-3.2-3.2-3.2c0-0.8,0-1.6,0-1.6s0,0.8-1.6,0.8c-0.8,0-1.6-0.8-4-1.6
		c-1.6-0.8-2.4-0.8-3.2-0.8l0,0c0,0,0,0-0.8,0h-0.8c0-2.4-1.6-4-1.6-4l0,0l0,0c0,0,0,0.8-0.8,1.6c0,0.8-1.6,1.6-1.6,2.4
		c0-1.6-0.8-3.2-0.8-3.2l0,0c0-1.6-0.8-1.6-0.8-1.6l0,0l0,0c0,0,0,0,0,0.8c0,2.4-0.8,4.8-0.8,5.6c-0.8,0.8-1.6,0.8-1.6,0.8
		c0.8-0.8,0.8-0.8,0.8-2.4c0-2.4-1.6-2.4-1.6-2.4s0,0.8,0,3.2c0,1.6-1.6,3.2-1.6,3.2s0-0.8,0-1.6c0-2.4-0.8-2.4-0.8-2.4l0,0
		c0,0,0,0.8-0.8,2.4c-0.8,2.4-1.6,2.4-2.4,4c-2.4,2.4-3.2,2.4-3.2,3.2v0.8l0,0l0,0l0,0l0,0l0,0l0,0l0,0c0,0,0,0,0,0.8c0,0,0,0,0,0.8
		l0,0l0,0l0,0l0,0c0,0-0.8,0-1.6,0.8l0,0c-0.8,0-1.6,0.8-4,0.8c-0.8,0-1.6,0-1.6-0.8s0-0.8,0-1.6c0.8,0,0.8,0,1.6-0.8
		c0,0,0.8-0.8,1.6-0.8c1.6-0.8,2.4-2.4,2.4-2.4l0,0c0,0,0,0-0.8,0c0,0-0.8,0.8-1.6,0.8c-1.6,0.8-3.2,0.8-3.2,0.8s0,0,0-0.8l0,0
		c0,0,0.8-0.8,0.8-1.6l0.8-0.8c0-0.8,0-0.8,0.8-1.6v-0.8c0,0,0-0.8,0.8-0.8c0,0,0.8,0.8,0.8,1.6s0,1.6,0,1.6c1.6,0,0.8-4,0.8-4.8
		l0,0v-0.8l-0.8-0.8l-1.6,0.8c0,0-0.8,0-1.6,0s-5.6,4-5.6,5.6s0.8,2.4,0.8,3.2l0,0l0,0c0,1.6,0,6.4,2.4,7.2s6.4,0,6.4,0l0,0
		c0,0.8,0.8,0.8,1.6,1.6s2.4,1.6,3.2,1.6s0.8,0,1.6-0.8l0,0l0,0v0.8l0,0l0,0l0,0c-1.6,3.2-4.8,4.8-7.2,7.2l4.8,4
		c1.6-1.6,3.2-2.4,4.8-4c2.4-2.4,4-4.8,4.8-7.2c0,0,0,0,0-0.8c0-1.6-0.8-3.2-1.6-4c0.8,0,1.6-0.8,2.4-0.8c0.8,0,1.6-0.8,2.4-1.6
		l0.8-0.8V200l0,0l0,0l0,0l0,0l0,0h0.8c0.8,0.8,0.8,1.6,0.8,1.6l0,0l0,0l0,0c0,0,0,0.8-0.8,1.6c-2.4,4-3.2,4.8-3.2,4.8s0,0,0.8,0.8
		l0,0l0,0l0,0l0,0c0,0.8-1.6,1.6-1.6,3.2c-0.8,1.6-2.4,3.2-1.6,3.2s0.8,0,0.8,0l0,0c0,0,0,0,0,0.8c-0.8,0.8-3.2,4.8-3.2,6.4
		c0,2.4,0.8,1.6,0.8,4c0.8,2.4,0.8,5.6,0.8,5.6l0,0l0,0c0,0,0.8,0,1.6-0.8c0,0.8,0.8,1.6,1.6,2.4c0,0,0,0.8,0,1.6l32,27.2
		c0-0.8,0-1.6,0-2.4c0.8,0.8,1.6,1.6,1.6,0.8c0.8,0,0-1.6,0-2.4c0,0,0-0.8,0-1.6c0,0,0,0,0-0.8l5.6,6.4c0,0,0.8,0.8,2.4,0.8
		c0.8,0,1.6-0.8,1.6-0.8s0.8,1.6,3.2,1.6c1.6,0,2.4-0.8,3.2-1.6c0.8,0,0.8,0.8,0.8,0.8c2.4,0.8,5.6-1.6,6.4-1.6h0.8
		c4,0.8,6.4-2.4,6.4-2.4l-1.6-1.6c0,0-4.8-4-12-8.8c-5.6-4-11.2-8.8-13.6-10.4c0-1.6,0-4-0.8-5.6c-0.8-2.4-1.6-3.2-1.6-4
		c0.8-0.8,0.8-1.6,0.8-2.4c0,0,0,0,0.8,0c0.8,0.8,1.6,2.4,3.2,3.2s1.6,0,2.4,0.8s4.8,6.4,4.8,6.4c0.8,0.8,0.8,1.6,0.8,1.6l0.8,0.8
		c0.8,0,0.8,0,0.8-0.8c0,0-1.6-1.6-2.4-3.2c-0.8-1.6-1.6-4.8-2.4-6.4l0,0c0,0,0.8,0,1.6,0c0.8,0,4,3.2,4,4s0,1.6,1.6,4
		c1.6,3.2,2.4,4,2.4,4c0,0.8,0.8,1.6,1.6,1.6c0.8,0,0-0.8-0.8-1.6c0-0.8-0.8-2.4-1.6-4.8c-0.8-2.4-1.6-5.6-1.6-5.6s0,0-0.8-0.8
		c0,0,0,0,0.8,0l0.8,0.8l0,0c0.8,0.8,2.4,3.2,2.4,4c0.8,1.6,0.8,4,1.6,6.4c0.8,2.4,1.6,4.8,2.4,4c0-0.8,0-4.8-1.6-8
		c-0.8-3.2-1.6-7.2-1.6-8l0,0c0,0,0.8,0.8,1.6,2.4c0.8,1.6,0,3.2,1.6,8s2.4,5.6,3.2,7.2c0.8,1.6-0.8,6.4,0.8,7.2c0,0,0-8,0-10.4
		s0-2.4-0.8-8s-0.8-6.4-0.8-6.4l0,0c0,0,0.8,0.8,1.6,3.2c0.8,4,0.8,9.6,1.6,11.2c0.8,1.6,0.8,0.8,1.6,3.2c0.8,1.6-0.8,10.4,0.8,10.4
		c1.6,0,0.8-11.2,0.8-14.4s-0.8-12.8-0.8-13.6l0,0c0.8,0.8,1.6,2.4,1.6,3.2l0,0l0,0c0,2.4,0,11.2,0.8,13.6c0,3.2,0.8,3.2,0.8,6.4
		c0,2.4-0.8,5.6-0.8,6.4s0,2.4,0.8,2.4s0-1.6,0.8-2.4c0-0.8,0.8-0.8,0.8-1.6c0.8-1.6,0.8-11.2,1.6-16s1.6-4,1.6-9.6
		c0-4.8-1.6-8.8-1.6-9.6c0.8,0,0.8,0,1.6,0c0.8,0,0.8-0.8,0.8-0.8C307.2,219.2,305.6,219.2,304.8,217.6z M218.4,222.4
		C218.4,222.4,218.4,221.6,218.4,222.4L218.4,222.4L218.4,222.4z M226.4,212.8L226.4,212.8l-0.8-0.8
		C225.6,212,226.4,212,226.4,212.8z M224.8,200.8L224.8,200.8L224.8,200.8c0.8,0,1.6-0.8,3.2-0.8C226.4,200,226.4,200.8,224.8,200.8
		z M232.8,214.4L232.8,214.4L232.8,214.4L232.8,214.4z M239.2,208.8L239.2,208.8L239.2,208.8L239.2,208.8z M240,208.8L240,208.8
		L240,208.8L240,208.8z M240,208.8L240,208.8L240,208.8L240,208.8z M245.6,216L245.6,216L245.6,216L245.6,216z M246.4,204.8
		C246.4,204.8,245.6,204.8,246.4,204.8C245.6,204.8,246.4,204.8,246.4,204.8C246.4,204,246.4,204.8,246.4,204.8z M262.4,231.2
		L262.4,231.2L262.4,231.2L262.4,231.2z M262.4,230.4L262.4,230.4L262.4,230.4L262.4,230.4z M264,229.6L264,229.6L264,229.6
		L264,229.6L264,229.6z"/>
</g>
<g>
	<path style="fill:#006847;" d="M278.4,239.2L278.4,239.2L278.4,239.2z"/>
	<path style="fill:#006847;" d="M293.6,258.4L293.6,258.4L293.6,258.4z"/>
	<path style="fill:#006847;" d="M231.2,185.6L231.2,185.6L231.2,185.6z"/>
</g>
<g>
</g>
<g>
</g>
<g>
</g>
<g>
</g>
<g>
</g>
<g>
</g>
<g>
</g>
<g>
</g>
<g>
</g>
<g>
</g>
<g>
</g>
<g>
</g>
<g>
</g>
<g>
</g>
<g>
</g>
</svg>
