<svg id="Capa_1" xmlns="http://www.w3.org/2000/svg" xmlns:xlink="http://www.w3.org/1999/xlink" viewBox="0 0 496 496" style="enable-background:new 0 0 496 496"><path style="fill:#fff" d="M162.4 77.6h170.4v340.8H162.4z"/><path style="fill:#006847" d="M162.4 77.6H48c-26.4.0-48 21.6-48 48.8v243.2c0 27.2 21.6 48.8 48 48.8h115.2V77.6H162.4z"/><path style="fill:#ce1126" d="M448 77.6H333.6v340.8H448c26.4.0 48-21.6 48-48.8V126.4C496 99.2 474.4 77.6 448 77.6z"/><path style="fill:#b50b24" d="M448 77.6H333.6v243.2L448 418.4c26.4.0 48-21.6 48-48.8V126.4C496 99.2 474.4 77.6 448 77.6z"/><path style="fill:#dfe5e2" d="M333.6 320.8V77.6H162.4v97.6z"/><path style="fill:#01563a" d="M162.4 77.6H48l114.4 97.6z"/><path style="fill:#8c072d" d="M333.6 418.4H448c26.4.0 48-21.6 48-48.8H333.6V418.4z"/><path style="fill:#c6ceca" d="M162.4 369.6h170.4v48.8H162.4z"/><path style="fill:#03442d" d="M0 369.6c0 27.2 21.6 48.8 48 48.8h115.2v-48.8H0z"/><path style="fill:#8c072d" d="M448 77.6H333.6v87.2L496 214.4v-88C496 99.2 474.4 77.6 448 77.6z"/><path style="fill:#c6ceca" d="M333.6 164.8V77.6H162.4v35.2z"/><path style="fill:#03442d" d="M162.4 77.6H48l114.4 35.2z"/><path id="SVGCleanerId_0" style="fill:#006847" d="M324.8 242.4C324.8 241.6 324.8 241.6 324.8 242.4c0-.8.0-.8.0-.8s-.8.8-.8 1.6c0 0 0 .8.0 1.6.0.0.0-1.6-.8-3.2-.8-1.6-1.6-3.2-1.6-3.2v0 0c0 0-1.6 1.6-2.4 3.2-.8 1.6-.8 4-.8 5.6.0-.8-.8-2.4-1.6-4-1.6-2.4-2.4-1.6-2.4-1.6v0 0 0c0 0 1.6 1.6.8 3.2.0 1.6-.8 4.8.0 6.4s1.6 2.4 2.4 3.2c0 .8.0 2.4.0 3.2v0 .8l-2.4-1.6c0 0 0 0 0-.8s-.8-1.6-1.6-1.6-1.6 1.6-1.6 2.4.8 1.6 1.6 1.6h.8l2.4 2.4c0 .8-.8 1.6-.8 1.6s0 0-.8.0v0c-.8.8-2.4 3.2-2.4 3.2s0-.8.0-1.6c0-.8.0-1.6.0-1.6v0 0c0 0-1.6.8-4.8 2.4-2.4 2.4-4 4.8-3.2 6.4.0 1.6 1.6 4 1.6 6.4.0 1.6.0 4 0 4v0c0 0 0 .8-.8.8l-3.2-3.2.8-.8c0-.8-.8-1.6-1.6-1.6-.8.0-1.6.8-1.6 1.6s.8 1.6 1.6 1.6v0l2.4 4c-.8.8-.8.8-1.6.8.0.0-.8.0-3.2.8-1.6.8-3.2 2.4-3.2 2.4s.8-.8.8-2.4c0-2.4-.8-3.2-.8-3.2v0 0c0 0 0 .8.0 1.6v.8c0 0 0 .8-.8.8-.8 1.6-6.4 4.8-7.2 7.2-.8 2.4.0 2.4-.8 3.2-.8 1.6-1.6 2.4-1.6 3.2.0.0.0.0-.8.8.0.0-.8.0-.8.8l-.8-3.2.8-.8c0-.8-.8-1.6-1.6-1.6-.8.0-1.6.8-1.6 1.6.0.8.8 1.6 1.6 1.6v0 4l-.8.8c0 .8-.8.8-.8 1.6v0 0 0c-.8.0-1.6-.8-2.4-.8s-1.6.0-2.4.0c0 0 .8-.8 1.6-.8.8-.8.8-.8.8-.8v0c0 0-2.4-.8-4-.8s-4 0-5.6 1.6c-1.6.8-2.4 3.2-4.8 4-1.6.8-4 1.6-4 1.6s0 0-.8.0c-1.6.0-2.4-.8-4-.8s-3.2.0-3.2.0c0-.8.0-.8.0-.8s0 0 0-.8h-1.6v0H248v0 0h-1.6c0 0-.8.0-.8.8.0.0.0.8.0 1.6-.8.0-1.6-.8-3.2-.8-3.2.0-4.8.8-5.6.8H236c-1.6-.8-1.6-2.4-2.4-2.4-.8.0.0 2.4-.8 2.4s-2.4-4-4.8-4.8c-1.6.0-2.4.0-2.4.8s2.4 3.2 1.6 3.2c-.8.0-3.2-4-5.6-4-1.6.0-2.4.8-1.6.8.0.8 2.4.8 1.6 2.4-.8 1.6-2.4-2.4-4-1.6-.8.0-1.6.0-1.6.0v0l-.8-4.8c0 0 .8.0.8-.8l.8-.8c0 0 0 0 0-.8v0c0 0 0 0-.8.0.0.0.0.0-.8.0v0-.8l-.8-.8c0 0-.8.0-.8.8v.8.8h-.8c0 0 0 0 0 .8v0c0 .8.0.8.8.8.0.0.8.0 1.6.0v0 3.2c-.8-.8-1.6-1.6-1.6-1.6v0c0 0-1.6-.8-2.4-2.4-.8-1.6.0-4-.8-4s-.8 2.4-1.6 1.6.0-4-.8-5.6-2.4-3.2-3.2-2.4c-.8.8.0 4-1.6 3.2-.8-.8.0-4 0-5.6s-.8-2.4-1.6-2.4.0 3.2-.8 3.2-.8-1.6-1.6-2.4c-.8.0-.8.0-.8.0s0-1.6-.8-1.6c0 0 0 0 0 .8s0 1.6.0 2.4c0 0-.8-.8-1.6-.8v-4h.8l.8-.8v0 0 0 0c0 0 0-.8-.8-.8.0.0.0.0-.8.0V280c0-.8.0-.8.0-.8l-.8-.8c0 0-.8.0-.8.8v.8.8.0h-.8c0 0 0 0-.8.8v0c0 .8.0.8.8.8h.8v3.2c-.8-.8-1.6-1.6-2.4-2.4.0.0-.8-1.6-.8-3.2.0-2.4 1.6-5.6 1.6-6.4-.8-.8-1.6 2.4-2.4 1.6s.8-4 0-5.6-.8-2.4-1.6-2.4c-1.6.0-1.6 4-2.4 4-.8-.8.0-2.4.0-4-3.2-3.2-3.2-3.2-4-3.2s-.8 2.4-1.6 2.4c0 0-.8-.8-1.6-1.6.0-.8.0-1.6.0-3.2l1.6-4h.8c.8.0.8.0.8.0l.8-.8V256l-.8-.8v0l.8-.8v0 0-.8-.8.0c-.8.0-.8.0-1.6.8v.8.0.0.0c0 0 0 0-.8.0.0.0-.8.0-.8.8v.8c0 .8.0.8.8 1.6l-1.6 2.4c-.8-1.6-.8-2.4-.8-4s.8-1.6.8-2.4-.8.8-.8-.8c0-.8 4-3.2 3.2-4s-4 1.6-3.2.0 4-1.6 4-4.8c0-1.6-3.2.8-3.2.0s1.6-2.4 1.6-4c0-.8.8-1.6.0-1.6.0.0.0.0-.8.0-1.6.8-.8 1.6-2.4 1.6.0.0-.8-1.6-.8-.8-.8.0-1.6 1.6-1.6 2.4.0.8.0 2.4.0 3.2-.8.8-.8-1.6-2.4-1.6-.8.0-1.6 1.6-1.6 2.4s2.4 3.2 1.6 4-2.4-2.4-4-.8c-.8 1.6 3.2 4 4 4s0 .8.8 1.6c.8.8 1.6 1.6 2.4 1.6.8.8 1.6 2.4 1.6 4l-3.2-1.6v-.8-.8l-.8-.8h-.8c0 0 0 0-.8.8.0.0.0.0-.8-.8v0 0h-.8c0 0-.8.0-.8.8v0c0 .8.0.8.8 1.6.0.0.0.0.8.0v0 0 0c0 0 0 0 0 .8.0.0.0.8.8.8h.8c.8.0.8.0 1.6-.8l4 3.2c0 1.6.0 2.4.0 2.4v0 0 .8c-.8.0-1.6-.8-1.6.0s1.6 1.6.8 2.4c0 0-3.2-.8-3.2.0s0 2.4 1.6 2.4c1.6.8 5.6 1.6 4.8 1.6-.8.8-4.8-2.4-4.8.0s1.6 3.2 2.4 3.2c.8.0 4.8.0 4.8.8s-3.2.0-3.2.8c0 1.6 2.4 1.6 2.4 1.6.8.0 2.4.0 3.2.8s3.2 3.2 4 4v0 0h-2.4c0-.8.0-.8-.8-1.6l-.8-.8v0 0c0 0 0 0-.8.0.0.0.0.0.0.8v0c0 0 0 0 0 .8H184c-.8.0-.8.0-.8.0v0 0 0c0 0 .8.8 1.6.8v0 0 0 .8c0 0 0 0 .8.8v0c.8.0 1.6-.8 1.6-1.6h4c1.6.8 2.4 1.6 2.4 1.6v0 0 0 0c-.8.0-2.4.0-2.4.0.0.8 6.4 3.2 4 4-1.6.8-4-1.6-4 0-.8 1.6 1.6 3.2 2.4 3.2.8.8 6.4.0 5.6 1.6-.8 1.6-4.8-.8-5.6.8.0 1.6 2.4 4 4 4s3.2-2.4 4-.8-.8 1.6.0 2.4c1.6.0 2.4-1.6 4-.8 1.6.0 4 1.6 4.8 2.4h-3.2c0 0 0-.8-.8-.8l-.8-.8h-.8v.8c0 0 0 0 0 .8v0c-.8.0-.8.0-.8.0l-.8.8c0 0 0 .8.8.8h.8.8v0 .8h.8v0c0 0 .8.0.8-.8v-.8-.8h4c.8.8 1.6 1.6 1.6 1.6s-1.6.0-2.4.8c-.8.0-1.6 1.6-1.6 1.6s0 0 0 .8v0 0 0 0h1.6l.8-.8c0 0 0 .8.8.8s2.4-1.6 4-.8c1.6.8-2.4 1.6-1.6 3.2s3.2.8 4 0c.8.0 2.4-3.2 4-1.6.8 1.6-2.4 2.4-1.6 4 .8 1.6 2.4.8 4 .8.8-.8 3.2-4 4-3.2.8 1.6-1.6 2.4-1.6 4 .8.8 2.4.0 3.2-.8s1.6-2.4 3.2-3.2c1.6-.8 1.6-.8 1.6-.8v0c0 0 .8-.8 1.6-.8.8-.8 2.4-1.6 4-1.6.8.0 1.6.0 1.6.8-1.6.8-4 1.6-5.6 2.4s-2.4 1.6-3.2 2.4v0c0 0 .8.8 1.6.8s1.6-.8 1.6-.8 1.6-.8 3.2-2.4c.8-.8 3.2-1.6 4-1.6.0.8.0.8.0 1.6.0.8-1.6.8-4 3.2-2.4 2.4-3.2 4.8-3.2 4.8s.8-.8 1.6-.8 1.6-.8 1.6-.8v0c0 0 0 0 .8.0s.8.8 1.6.8c0 0 0 0 .8.8.0.8.8.8.8.8s.8-1.6 2.4-2.4c0 0 .8-.8 1.6-1.6.0.8.8.8 1.6 1.6.8.8 2.4.8 3.2 1.6.8.8 1.6.8 1.6.8l.8-.8.8-.8v0c0 0 0 0 .8-.8.8.0.8.0.8.0v0c0 0 0 0 1.6.0s1.6.8 1.6.8-1.6-2.4-2.4-3.2c-.8-.8-3.2-1.6-4.8-2.4-.8-.8-1.6-1.6-1.6-1.6v0V308c.8.0 2.4.8 4 1.6 1.6.8 2.4 1.6 2.4 2.4.0.0.8.8 1.6.8.8.0 1.6-.8.8-.8v0 0 0 0c0 0-.8-1.6-4-3.2-2.4-.8-4-1.6-4.8-1.6.0.0.0.0.0-.8.8.0 4.8.0 6.4.8s3.2 1.6 4.8 2.4c1.6 1.6 4.8 4 6.4 4 3.2.0 9.6-4 11.2-4 1.6-.8 3.2-.8 3.2-.8v0 0 0 0 0 0 0c0 0 0 0-.8.0.0.0.0.0.8.0.0.0-.8-.8-2.4-.8-.8.0-.8-.8-.8-.8-.8.0-2.4.0-2.4.0s1.6-1.6 2.4-1.6c.8-.8 2.4-1.6 2.4-1.6v0c0 0 .8-.8 1.6-1.6l4 2.4v0 .8.0.0.0l.8.8h.8c.8.0.8-.8.8-1.6V304l-.8-.8h-.8v0l-2.4-2.4c.8-.8 1.6-.8 2.4-.8 1.6.0 9.6.0 12.8-1.6 4-2.4 3.2-6.4 3.2-7.2.0-.8.8-1.6.8-1.6s-.8.0-1.6.0c-.8.0-1.6.8-1.6.8s0-1.6.8-2.4c0-.8.0-.8.0-1.6v0 0c.8.0.8.0 1.6-.8l3.2.8c0 .8.8 1.6 1.6 1.6.8.0 1.6-.8 1.6-1.6.0-.8-.8-1.6-1.6-1.6-.8.0-.8.0-1.6.8l-2.4-.8c0-.8.8-.8 1.6-1.6.0.0.8-.8 1.6-.8.8.0 2.4.0 4.8-1.6 3.2-1.6 4.8-6.4 5.6-8.8.8-2.4 3.2-4 3.2-4v0c0 0-1.6-.8-4.8 2.4.0.0.0-2.4.0-4 0-.8.0-1.6.0-2.4v-.8.0-.8l4.8-1.6.8.8c.8.0 1.6-.8 1.6-1.6.0-.8-.8-1.6-1.6-1.6-.8.0-1.6.8-1.6 1.6h-4v-.8c0-.8 1.6-1.6 2.4-3.2 1.6-1.6 5.6-3.2 5.6-7.2v0C327.2 244 325.6 243.2 324.8 242.4zM212.8 295.2v0 0 0zM252 308.8c0 0-.8000000000000114.0.0.0C251.2 308.8 251.2 308.8 252 308.8v0zM283.2 304v0 0zM304.8 285.6v0 0z"/><g><path style="fill:#006847" d="M178.4 264v0 0z"/><path style="fill:#006847" d="M191.2 241.6l1.6 2.4-.8.8h.8v.8H192v-.8l-1.6 1.6c0 0 0 0 .8.0v.8l.8.8c0 0 .8.0 1.6.0v0c0 .8.0 1.6.8 2.4.8 1.6 1.6 2.4 2.4 2.4.0.8-.8 1.6-.8 3.2v.8.0h-.8c0 0 0 .8.8.8v0c.8 1.6 1.6 3.2 3.2 4.8v0h-1.6c0 0 .8.8 1.6.8h.8c1.6.8 3.2 1.6 4 2.4.0.0.0.0.0.8l-.8.8v0c0 0 1.6.0 1.6-.8v-.8c1.6.8 3.2.8 4 .8v0 0 0c0 .8.8 1.6 1.6 3.2v0c-.8.0-1.6 1.6-1.6 1.6s1.6.0 1.6-.8c0 0 0 0 .8.0 1.6.8 3.2 1.6 5.6 2.4.0.8.0.8.0.8s.8-.8 1.6-.8v0 0 0c0 .8-.8 1.6-.8 1.6s.8.0 1.6-.8c0 0 0-.8.8-.8h.8c.8.0.8.0 1.6.0 3.2.0 5.6-.8 6.4-1.6.0 1.6.8 2.4 1.6 4 .8.8 1.6.8 2.4 1.6v.8H232h.8c0 0 .8.0.8-.8h.8c.8.0 2.4.8 4.8.8.0.8-.8 1.6-.8 1.6s.8.0 1.6-.8v0c.8.0 1.6.0 1.6.0.8.0 1.6.0 2.4.0v0c0 .8-.8 1.6-.8 1.6s.8.0.8-.8l.8-.8c0 .8.0 1.6.0 1.6s.8-.8.8-1.6c0 0 0 0 0-.8v0c1.6-.8 2.4-.8 3.2-1.6.0.0.0.0.0.8s0 1.6.0 3.2c0 .8.0 1.6.0 2.4-.8.0-.8.0-1.6.0v0c-.8.0-3.2.0-3.2.0v0c0 0 0 0-.8.0h-.8c0 0 0 0-.8.0s-1.6.0-1.6.0v0h-.8-.8v0c-.8-.8-.8-.8-1.6-.8v0c-.8.0-1.6.8-1.6.8-.8.8-.8 1.6-.8 2.4v0c0 0 0 0-.8.0s-1.6-.8-2.4-.8c-.8-.8-1.6-1.6-2.4-3.2.0-.8-.8-.8-.8-.8.8-.8.8-.8.8-1.6.0-1.6-.8-2.4-2.4-2.4s-2.4.8-2.4 2.4.8 2.4 1.6 2.4v.8.8.0.0.0c0 0-.8.0-1.6.0-1.6-.8-4.8-1.6-7.2-3.2-1.6-.8-2.4-1.6-3.2-1.6s-.8-.8-.8-.8v0c-.8-1.6-6.4-3.2-6.4-1.6-.8 1.6 1.6 4.8 4 4.8.8.0 1.6.0 2.4.0.8.0 2.4 1.6 4 2.4.8.8 1.6.8 1.6 1.6l.8.8v0 0 .8c0 0-.8.0-.8.8.0.0.0.0-.8.0-.8-.8-.8-.8-1.6-.8-1.6.0-2.4.8-2.4 2.4s.8 2.4 2.4 2.4c1.6.0 2.4-.8 2.4-2.4v0c1.6.0 4 0 6.4.8 1.6.0 2.4.8 3.2.8s.8.8.8.8v.8.0.8c0 0-.8.8-1.6.8h-.8v0c-.8.0-1.6.0-2.4.0-1.6.8-3.2 2.4-2.4 3.2.8.8 3.2 1.6 4.8.8.8-.8 1.6-.8 2.4-1.6.0.0.0.0.8.0s2.4.0 4 0c.8.0 1.6.0 1.6.0v0c0 .8.8.8.8 1.6.8.8.8.8 1.6.8.0.0.0.0.8.0v0c.8.8 1.6 1.6 2.4 1.6.0.0.8.0 1.6.8 1.6.0 4.8.8 8 .8 2.4.0 4 0 6.4.0.8.0 1.6.0 2.4.0s.8.0 1.6.0c1.6.0 2.4-.8 3.2-2.4.0.0.8.0.8-.8.0.0.0.0.8-.8s2.4-1.6 4-1.6c2.4-.8 3.2-.8 4.8-.8h.8c.8.8 1.6 1.6 2.4 1.6 1.6.0 2.4-.8 2.4-2.4s-.8-2.4-2.4-2.4c-.8.0-2.4.8-2.4 1.6.0.0-.8.0-.8-.8l-.8-.8v-.8.0.0c0 0 0 0 .8-.8s3.2-1.6 4.8-1.6c.8.0 1.6-.8 2.4-.8v0 0c1.6 1.6 3.2.0 4-.8s2.4-1.6 1.6-3.2c-.8-.8-2.4-.8-3.2-.8-.8.0-1.6.8-2.4 1.6-.8.0-1.6.0-3.2.8s-4.8 1.6-8.8 1.6c-.8.0-2.4.0-2.4.0v-.8c0-.8-.8-1.6-.8-2.4l-.8-.8h-.8c-.8.0-.8.0-1.6.8.0.0-.8.0-.8.8v0l-.8-.8c0-.8.8-.8.8-.8s.8-.8 1.6-.8c.8.0.8-.8.8-.8s0 0 .8.0l2.4-.8c.8.0.8.0 1.6.0.8.0 2.4.0 3.2-.8.8.0 1.6.8 3.2 1.6h.8c0 0 0 .8.8 1.6.8.8 1.6.8 1.6.8l-.8-1.6v0c1.6.8 4 .8 5.6.8v0c1.6.0 3.2-.8 4.8-.8.0.0.0.8.8.8s1.6.0 1.6.0-.8-.8-1.6-.8c0 0 0 0-.8-.8v0l.8.8c.8.0 1.6.0 1.6.0s-1.6.0-1.6-.8v0c0 0 .8.0.8-.8.8-.8 1.6-.8 2.4-1.6l.8-.8c0 0 0 0 .8-.8h.8c.8.0 1.6-.8 1.6-.8H296h-.8v0-.8c0-.8.0-1.6.0-2.4.0.0.0.0.0-.8.8.0.8-.8 1.6-.8.8-.8 1.6-1.6 1.6-2.4v0c0 0 .8.0 1.6.0V268v0-1.6.8c0 0 0 0-.8.0v0c0 0 0 0 0-.8.0.0.0.0.8.0v0l1.6-2.4h.8c.8.0.8.0 1.6-.8v-.8c0-.8.0-.8-.8-1.6v0h-.8c-.8.0-.8.0-1.6.8v.8c0 0 0 0 0 .8l-2.4 1.6v0 0 0h-.8V264v0l-1.6-.8c0 0 0 0 0 .8h-.8l-.8.8v0 .8h.8c-.8.0-1.6.8-2.4 1.6-.8.8-.8.8-1.6 1.6-.8.0-.8-.8-1.6-.8-.8.0-.8-.8-1.6-.8h-.8v0 0 0l.8-1.6c0 0-.8.0-1.6.8v.8c-.8.0-.8.8-1.6.8-.8.8-1.6.8-2.4 1.6v0c0-.8.0-1.6.0-1.6l-.8.8c0 0 0 .8.0 1.6v0c-.8.8-1.6 1.6-2.4 2.4l-.8.8c0 0-.8.0-1.6.0v0c-.8.0-1.6.0-1.6.0s0 0 0-.8v0 0 0c0-.8.0-.8.0-1.6.0-.8.0-1.6.0-1.6s1.6.0 1.6.8c.8 1.6-1.6 1.6-1.6 1.6s.8.0 1.6.0v0h.8c0 0 .8.0.8-.8v0 0-.8c0-.8.0-1.6-.8-1.6v0 0 0 0c-.8-.8-.8-.8-.8-.8v0 0 0 0-.8l-.8-.8h-.8c-.8.0-.8.0-1.6.0.0.0.0-.8-.8-.8l-.8-.8v0 0c0 0 0 0-.8-.8.0-.8-.8-.8-.8-.8v0c0 0 0-.8-.8-.8.0.0-.8.0-.8-.8s0-1.6.0-2.4c.8.8 1.6 1.6 1.6.8.8.0.0-1.6.0-2.4.0.0.0-.8.0-1.6.0.0.0.0.0-.8l5.6 6.4c0 0 .8.8 2.4.8.8.0 1.6-.8 1.6-.8s.8 1.6 3.2 1.6c1.6.0 2.4-.8 3.2-1.6.8.0.8.8.8.8 2.4.8 5.6-1.6 6.4-1.6h.8c4 .8 6.4-2.4 6.4-2.4l-1.6-1.6v0 0 0 0c0 0-4.8-4-12-8.8-5.6-4-11.2-8.8-13.6-10.4.0-1.6.0-4-.8-5.6-.8-2.4-1.6-3.2-1.6-4 .8-.8.8-1.6.8-2.4.0.0.0.0.8.0.8.8 1.6 2.4 3.2 3.2s1.6.0 2.4.8 4.8 6.4 4.8 6.4v0c.8.8.8 1.6.8 1.6v0l.8.8c.8.0.8.0.8-.8.0.0-1.6-1.6-2.4-3.2-.8-1.6-1.6-4.8-2.4-6.4v0c0 0 .8.0 1.6.0.8.0 4 3.2 4 4s0 1.6 1.6 4c1.6 3.2 2.4 4 2.4 4v0 0c0 .8.8 1.6 1.6 1.6.8.0.0-.8-.8-1.6.0-.8-.8-2.4-1.6-4.8-.8-2.4-1.6-5.6-1.6-5.6s0 0-.8-.8c0 0 0 0 .8.0l.8.8v0c.8.8 2.4 3.2 2.4 4 .8 1.6.8 4 1.6 6.4.8 2.4 1.6 4.8 2.4 4 0-.8.0-4.8-1.6-8-.8-3.2-1.6-7.2-1.6-8v0c0 0 .8.8 1.6 2.4.8 1.6.0 3.2 1.6 8s2.4 5.6 3.2 7.2c.8 1.6-.8 6.4.8 7.2.0.0.0-8 0-10.4s0-2.4-.8-8-.8-6.4-.8-6.4v0c0 0 .8.8 1.6 3.2.8 4 .8 9.6 1.6 11.2.8 1.6.8.8 1.6 3.2.8 1.6-.8 10.4.8 10.4 1.6.0.8-11.2.8-14.4s-.8-12.8-.8-13.6v0c.8.8 1.6 2.4 1.6 3.2v0 0c0 2.4.0 11.2.8 13.6.0 3.2.8 3.2.8 6.4.0 2.4-.8 5.6-.8 6.4s0 2.4.8 2.4.0-1.6.8-2.4c0-.8.8-.8.8-1.6.8-1.6.8-11.2 1.6-16s1.6-4 1.6-9.6c0-4.8-1.6-8.8-1.6-9.6.8.0.8.0 1.6.0.8.0.8-.8.8-.8.0-.8-.8-.8-2.4-1.6l-1.6-3.2c-1.6-3.2-3.2-8-7.2-13.6-4.8-7.2-12-12-12.8-12v0 0 0 0 0c0 0 0-.8.8-.8.0.0 1.6-1.6.8-1.6-.8.0-2.4.0-3.2.0-.8.0-1.6.0-4.8-2.4.0.0-8.8-6.4-23.2-7.2-4.8.0-6.4 1.6-6.4 2.4v0c0 0 0 0 0 .8.0.0-.8.0-1.6.0-.8.0-2.4.0-3.2.8-6.4-.8-7.2.0-7.2 2.4v0c0 .8.0 1.6.8 2.4.0.8.8.8 1.6.8s1.6.0 3.2.8c1.6.0 2.4.8 4 2.4 1.6.8 1.6 2.4 2.4 3.2.0.8.0 1.6.0 2.4.0.8.0 1.6.0 1.6s0 0 0 .8c-.8-.8-.8-1.6-1.6-2.4-.8-1.6-2.4-3.2-3.2-3.2.0-.8.0-1.6.0-1.6s0 .8-1.6.8c-.8.0-1.6-.8-4-1.6-1.6-.8-2.4-.8-3.2-.8v0c0 0 0 0-.8.0h-.8c0-2.4-1.6-4-1.6-4v0 0 0 0 0 0c0 0 0 .8-.8 1.6.0.8-1.6 1.6-1.6 2.4.0-1.6-.8-3.2-.8-3.2v0c0-1.6-.8-1.6-.8-1.6v0 0 0 0c0 0 0 0 0 .8.0 2.4-.8 4.8-.8 5.6-.8.8-1.6.8-1.6.8.8-.8.8-.8.8-2.4.0-2.4-1.6-2.4-1.6-2.4v0 0 0 0c0 0 0 .8.0 3.2.0 1.6-1.6 3.2-1.6 3.2s0-.8.0-1.6c0-2.4-.8-2.4-.8-2.4v0 0 0 0 0 0 0 0 0c0 0 0 .8-.8 2.4-.8 2.4-1.6 2.4-2.4 4-2.4 2.4-3.2 2.4-3.2 3.2v.8.0.0.0.0.0.0.0.0.0.0.0.0.0.0.0.0c0 0 0 0 0 .8.0.0.0.0.0.8v0 0 0 0c0 0-.8.0-1.6.8v0c-.8.0-1.6.8-4 .8-.8.0-1.6.0-1.6-.8s0-.8.0-1.6c.8.0.8.0 1.6-.8.0.0.8-.8 1.6-.8 1.6-.8 2.4-2.4 2.4-2.4v0c0 0 0 0-.8.0.0.0-.8.8-1.6.8-1.6.8-3.2.8-3.2.8s0 0 0-.8v0c0 0 .8-.8.8-1.6l.8-.8c0-.8.0-.8.8-1.6v-.8c0 0 0-.8.8-.8.0.0.8.8.8 1.6s0 1.6.0 1.6c1.6.0.8-4 .8-4.8v0-.8l-.8-.8-1.6.8c0 0-.8.0-1.6.0s-5.6 4-5.6 5.6.8 2.4.8 3.2v0 0c0 1.6.0 6.4 2.4 7.2s6.4.0 6.4.0v0c0 .8.8.8 1.6 1.6s2.4 1.6 3.2 1.6.8.0 1.6-.8v0 0 .8.0.0.0c-1.6 3.2-4.8 4.8-7.2 7.2-1.6.8-2.4 2.4-4 4-3.2 4-4 5.6-4 8.8.0.0.0.0.0.8.0 4.8 2.4 8 4 8.8s4 1.6 4.8 1.6v0 0 0c0 0 .8.0 1.6.0s1.6.0 3.2.0c.8.0 1.6.0 1.6.0.8.0.8.0.8.0s0 0 0 .8c0 0 0 .8-.8.8v0c0-.8.8-.8.8-.8h-.8-.8c0 0 0 0-.8.0.0.0-.8.0-1.6.0v0c-.8.0-1.6.8-1.6.8.0.8-.8.8-.8 1.6v0c0 0 0 0-.8.0.0.0-.8.0-.8.8.0.0-.8.8-.8 1.6v0c0 0 0 0-.8.0.0.0.0.8.0 1.6v0h-.8c-.8.0-.8.0-1.6-.8s-.8-1.6-.8-2.4c0-.8.0-1.6-.8-3.2-.8-1.6-2.4-2.4-3.2-4-1.6-.8-2.4-2.4-3.2-3.2v-.8c0-.8.8-1.6.8-3.2v-.8c0-.8.8-1.6.8-2.4v-.8-.8c0-1.6-1.6-3.2-3.2-4.8-.8-.8-1.6-.8-2.4-1.6v0c0 0 0-.8-.8-.8l-.8-.8v0c0 0 0 0-.8.0.0.0.0.8-.8.8v0 0 0 0c0 0 0 0 0-.8L196 216v0c0 0 0 0-.8.0v0 0l-.8-.8v0h-.8c0 0 0 .8-.8.8v0 0 0H192l-.8.8v0c0 .8.0.8.8.8v0 0 0 0 .8c0 0 0 0 .8.0.0.0.0.0.8.0h.8v0h.8c.8.0 1.6.0 1.6.0v0 0 0c0 0 0 0 0 .8.0.0.0.0.8.0v0c.8.0.8.0.8-.8v0c0 0 .8.0.8.8.8.8.8.8.8 1.6.0.0.0.0.0.8s-.8 1.6-.8 3.2c-.8 1.6-.8 3.2-.8 4.8v.8c0 .8.0.8.0 1.6s.8 1.6.8 2.4c.8.8.8.8 1.6 1.6 1.6.8 3.2 1.6 4 3.2s.8 3.2 1.6 4.8c0 .8.0 1.6.8 2.4.0.8.8 1.6 1.6 1.6.8.8 1.6.8 3.2.8v0c0 0 0 0 .8.0s.8.0 1.6.0 1.6.0 1.6-.8c.8.0 1.6-.8 1.6-.8s.8.8 1.6.8v0c.8.0 1.6-.8 2.4-.8.8.0 1.6-.8 1.6-.8v0c.8.0.8.0.8.0v0l.8.8h.8v0 0c0 0 .8.0.8-.8.8-.8 1.6-1.6 1.6-1.6v0l.8.8v0c-.8.0-1.6.8-1.6.8v0 0 0 0 0c0 0 .8.8 3.2 1.6 2.4.8 4 .8 4 .8v0 0 0 0c-.8.8-.8 1.6.0 1.6v0 0 0 0 0c0 0 .8.8 4.8.0 3.2-.8 3.2-.8 3.2-1.6.8.0.8.0.8.0v0 0 0 0 0c0 0 .8 2.4 1.6 2.4 1.6.0 1.6-4 1.6-5.6 2.4 2.4 4 4.8 4 4.8s.8.8 1.6.8v0 0c0 0 .8 1.6 1.6 3.2.8 1.6 1.6 3.2 2.4 2.4.8.0.8-1.6.8-1.6v0-.8.0c0 0 .8.8 1.6 1.6v0c0 0 0 0-.8.0s-.8.8-1.6.8c0 0-.8.0-.8.8h-.8v0 0 0c0 0 0 0-.8.0v0c-.8.0-.8.0-.8.0v0l-.8-.8v0c-.8.0-.8.0-1.6.8l-.8.8c0 0-.8.0-1.6.0-.8.0-2.4.8-2.4 1.6v0c-.8.0-.8-.8-1.6-.8s-.8-.8-1.6-.8v-.8c0-.8-.8-1.6-.8-1.6s0 .8.0 1.6v.8.0h-.8v-.8c0-.8-.8-.8-.8-.8v.8.8.0c-.8.0-1.6-.8-2.4-.8-.8.0-1.6-.8-2.4-.8V256l-1.6-1.6c0 0 0 .8.8 1.6-.8-.8-1.6-.8-1.6-.8s.8.8.8 1.6c0 0 0 0 0 .8-.8.0-1.6.8-1.6.8-.8.0-.8.8-1.6.8.0.0.0.0-.8-.8l-1.6-.8c0 0 0 .8.8.8.0.8.8.8.8.8v0c-.8.8-.8 1.6-1.6 1.6-.8-.8-1.6-1.6-3.2-3.2-.8-.8-.8-.8-1.6-1.6v-.8c0-.8.0-2.4.0-3.2l.8.8c0 0 0 0 .8.0l.8-.8v-.8c0 0 0 0 .8.0l-1.6-1.6v.8H224v0c0 0 0 0 0-.8.0.0.0.0.0-.8.0.0-.8.0-.8-.8v-.8.0c.8.0.8-.8 1.6-.8v0c0-.8-.8-.8-.8-1.6v0 0 0 0c-.8.0-.8.8-1.6.8v0 .8l.8 9.6v0 0 0c0 0 0 0-.8.8l-.8-.8v0H220v0l-.8.8v.8.0l.8.8v0c-.8.8-.8 1.6-.8 2.4-.8.0-1.6.0-2.4.0.0.0.0.0-.8.0s-.8.0-1.6.0v0l-1.6-.8v.8.0c-1.6.0-2.4.8-3.2 1.6.0-.8.0-2.4-.8-4.8.8.0.8-1.6.8-1.6s-.8.0-.8.8v0c-.8-.8-1.6-2.4-2.4-3.2-.8-.8-2.4-1.6-3.2-2.4.0.0.0.0.0-.8s-.8-1.6-.8-1.6.0.8.0 1.6c0 0 0 0 0 .8-.8.0-1.6-.8-2.4-.8h-.8c0-.8.0-1.6-.8-2.4-.8-1.6-1.6-2.4-3.2-2.4.0.0.8.0 1.6.0.0.0.0.0.0-.8v-1.6c0 0-.8.0-.8-.8.0.0.0.0.0-.8s-2.4.0-2.4.0h.8c0 0-.8.0-.8.8v0c0 0 0 0-.8.0v-.8c0 0 0 0-.8.0v-.8l.8-.8v-.8l-.8-.8h-.8v0l-.8.8v.8C190.4 241.6 191.2 241.6 191.2 241.6zM224 259.2v0 0 0zM264 229.6v0 0 0 0zM224 244C224 244 224 243.2 224 244v0 0 0zM250.4 201.6v0 0 0zm-32 32v0c-.8.0-1.6.0-1.6.0H216c-.8.0-.8-.8-1.6-.8-.8-.8-.8-2.4-.8-3.2v0c0-1.6.8-3.2 1.6-4 1.6-2.4 4.8-4 7.2-6.4s4-4.8 4.8-7.2c0 0 0 0 0-.8.0-1.6-.8-3.2-1.6-4 .8.0 1.6-.8 2.4-.8.8.0 1.6-.8 2.4-1.6l.8-.8v-.8.0.0.0.0.0.0.0.0h.8c.8.8.8 1.6.8 1.6v0 0 0 0 0c0 0 0 .8-.8 1.6.8.8.0 1.6.0 1.6s0 0 .8.8v0 0 0 0c0 .8-1.6 1.6-1.6 3.2-.8 1.6-2.4 3.2-1.6 3.2s.8.0.8.0v0 0 0c0 0 0 0 0 .8-.8.8-3.2 4.8-3.2 6.4.0 2.4.8 1.6.8 4 .8 2.4.8 5.6.8 5.6v0c0 0 .8.0 1.6-.8.0.8.8 1.6 1.6 2.4.0.8.0 3.2.8 4.8s3.2 4 4 4.8v0l-.8-.8c0 0 0-.8-.8-.8s-1.6.0-1.6.0v0 0c0 0 .8 1.6.8 2.4.0.0 1.6.8 2.4 1.6-.8.0-2.4.0-2.4.8.0.0-.8.0-.8.8.0.0-.8.0-.8-.8.0.0.0.0.0-.8v0-.8.0V244c0 0 0 0-.8.0v0c0-.8-.8-.8-.8-1.6-.8-.8-.8-.8-1.6-1.6v0c0-2.4-.8-4-1.6-5.6-1.6-1.6-3.2-1.6-4.8-1.6C222.4 233.6 220 233.6 218.4 233.6zM230.4 242.4v0 0 0 0zM245.6 216v0 0 0zM239.2 208.8v0 0 0zM245.6 216v0 0 0zM240 208.8v0 0 0zm0 0v0 0 0zM237.6 204.8v0 0 0zM238.4 207.2c0 0 0-.8-.8-.8C237.6 206.4 237.6 206.4 238.4 207.2zM232.8 214.4v0 0 0zM242.4 198.4v0 0 0zM224.8 211.2v0 0 0 0zM225.6 212v0l.8.8v0C226.4 212 225.6 212 225.6 212zM236 208c-.8.0-.8.8-1.6.8C234.4 208.8 235.2 208.8 236 208zM246.4 204.8c0 0-.8000000000000114.0.0.0-.8000000000000114.0.0.0.0.0.0-.8000000000000114.0.0.0.0zM244 207.2v0 0 0 0 0 0 0 0 0zM226.4 212.8v0 0 0 0zM236 243.2v0 0zM247.2 203.2v0 0zM262.4 231.2v0 0 0 0zM262.4 230.4v0 0 0zM224.8 200.8v0 0c.8.0 1.6-.8 3.2-.8C226.4 2e2 226.4 200.8 224.8 200.8zM218.4 222.4v0c0 0 0-.8000000000000114.0.0v0zM261.6 260v0 0 0zM236.8 190.4v0C236.8 189.6 236.8 189.6 236.8 190.4zM210.4 243.2v-.8.0V243.2c.799999999999983.0.0.0.0.0zM283.2 189.6l-.8-.8v0C283.2 188.8 283.2 188.8 283.2 189.6zM224 188.8v0 0 0zM217.6 2e2v0 0 0zM215.2 248v0 0 0zM196.8 223.2v0 0 0zM235.2 263.2C235.2 264 235.2 264 235.2 263.2 235.2 264 235.2 264 235.2 263.2 235.2 264 235.2 264 235.2 263.2zM195.2 245.6C196 245.6 196 245.6 195.2 245.6c.8000000000000114.0.0.0.0.0v0 0z"/><path style="fill:#006847" d="M278.4 239.2v0 0z"/><path style="fill:#006847" d="M293.6 258.4v0 0z"/><path style="fill:#006847" d="M231.2 185.6v0 0z"/></g><g><path id="SVGCleanerId_0_1_" style="fill:#006847" d="M324.8 242.4C324.8 241.6 324.8 241.6 324.8 242.4c0-.8.0-.8.0-.8s-.8.8-.8 1.6c0 0 0 .8.0 1.6.0.0.0-1.6-.8-3.2-.8-1.6-1.6-3.2-1.6-3.2v0 0c0 0-1.6 1.6-2.4 3.2-.8 1.6-.8 4-.8 5.6.0-.8-.8-2.4-1.6-4-1.6-2.4-2.4-1.6-2.4-1.6v0 0 0c0 0 1.6 1.6.8 3.2.0 1.6-.8 4.8.0 6.4s1.6 2.4 2.4 3.2c0 .8.0 2.4.0 3.2v0 .8l-2.4-1.6c0 0 0 0 0-.8s-.8-1.6-1.6-1.6-1.6 1.6-1.6 2.4.8 1.6 1.6 1.6h.8l2.4 2.4c0 .8-.8 1.6-.8 1.6s0 0-.8.0v0c-.8.8-2.4 3.2-2.4 3.2s0-.8.0-1.6c0-.8.0-1.6.0-1.6v0 0c0 0-1.6.8-4.8 2.4-2.4 2.4-4 4.8-3.2 6.4.0 1.6 1.6 4 1.6 6.4.0 1.6.0 4 0 4v0c0 0 0 .8-.8.8l-3.2-3.2.8-.8c0-.8-.8-1.6-1.6-1.6-.8.0-1.6.8-1.6 1.6s.8 1.6 1.6 1.6v0l2.4 4c-.8.8-.8.8-1.6.8.0.0-.8.0-3.2.8-1.6.8-3.2 2.4-3.2 2.4s.8-.8.8-2.4c0-2.4-.8-3.2-.8-3.2v0 0c0 0 0 .8.0 1.6v.8c0 0 0 .8-.8.8-.8 1.6-6.4 4.8-7.2 7.2-.8 2.4.0 2.4-.8 3.2-.8 1.6-1.6 2.4-1.6 3.2.0.0.0.0-.8.8.0.0-.8.0-.8.8l-.8-3.2.8-.8c0-.8-.8-1.6-1.6-1.6-.8.0-1.6.8-1.6 1.6.0.8.8 1.6 1.6 1.6v0 4l-.8.8c0 .8-.8.8-.8 1.6v0 0 0c-.8.0-1.6-.8-2.4-.8s-1.6.0-2.4.0c0 0 .8-.8 1.6-.8.8-.8.8-.8.8-.8v0c0 0-2.4-.8-4-.8s-4 0-5.6 1.6c-1.6.8-2.4 3.2-4.8 4-1.6.8-4 1.6-4 1.6s0 0-.8.0c-1.6.0-2.4-.8-4-.8s-3.2.0-3.2.0c0-.8.0-.8.0-.8s0 0 0-.8h-1.6v0H248v0 0h-1.6c0 0-.8.0-.8.8.0.0.0.8.0 1.6-.8.0-1.6-.8-3.2-.8-3.2.0-4.8.8-5.6.8H236c-1.6-.8-1.6-2.4-2.4-2.4-.8.0.0 2.4-.8 2.4s-2.4-4-4.8-4.8c-1.6.0-2.4.0-2.4.8s2.4 3.2 1.6 3.2c-.8.0-3.2-4-5.6-4-1.6.0-2.4.8-1.6.8.0.8 2.4.8 1.6 2.4-.8 1.6-2.4-2.4-4-1.6-.8.0-1.6.0-1.6.0v0l-.8-4.8c0 0 .8.0.8-.8l.8-.8c0 0 0 0 0-.8v0c0 0 0 0-.8.0.0.0.0.0-.8.0v0-.8l-.8-.8c0 0-.8.0-.8.8v.8.8h-.8c0 0 0 0 0 .8v0c0 .8.0.8.8.8.0.0.8.0 1.6.0v0 3.2c-.8-.8-1.6-1.6-1.6-1.6v0c0 0-1.6-.8-2.4-2.4-.8-1.6.0-4-.8-4s-.8 2.4-1.6 1.6.0-4-.8-5.6-2.4-3.2-3.2-2.4c-.8.8.0 4-1.6 3.2-.8-.8.0-4 0-5.6s-.8-2.4-1.6-2.4.0 3.2-.8 3.2-.8-1.6-1.6-2.4c-.8.0-.8.0-.8.0s0-1.6-.8-1.6c0 0 0 0 0 .8s0 1.6.0 2.4c0 0-.8-.8-1.6-.8v-4h.8l.8-.8v0 0 0 0c0 0 0-.8-.8-.8.0.0.0.0-.8.0V280c0-.8.0-.8.0-.8l-.8-.8c0 0-.8.0-.8.8v.8.8.0h-.8c0 0 0 0-.8.8v0c0 .8.0.8.8.8h.8v3.2c-.8-.8-1.6-1.6-2.4-2.4.0.0-.8-1.6-.8-3.2.0-2.4 1.6-5.6 1.6-6.4-.8-.8-1.6 2.4-2.4 1.6s.8-4 0-5.6-.8-2.4-1.6-2.4c-1.6.0-1.6 4-2.4 4-.8-.8.0-2.4.0-4-3.2-3.2-3.2-3.2-4-3.2s-.8 2.4-1.6 2.4c0 0-.8-.8-1.6-1.6.0-.8.0-1.6.0-3.2l1.6-4h.8c.8.0.8.0.8.0l.8-.8V256l-.8-.8v0l.8-.8v0 0-.8-.8.0c-.8.0-.8.0-1.6.8v.8.0.0.0c0 0 0 0-.8.0.0.0-.8.0-.8.8v.8c0 .8.0.8.8 1.6l-1.6 2.4c-.8-1.6-.8-2.4-.8-4s.8-1.6.8-2.4-.8.8-.8-.8c0-.8 4-3.2 3.2-4s-4 1.6-3.2.0 4-1.6 4-4.8c0-1.6-3.2.8-3.2.0s1.6-2.4 1.6-4c0-.8.8-1.6.0-1.6.0.0.0.0-.8.0-1.6.8-.8 1.6-2.4 1.6.0.0-.8-1.6-.8-.8-.8.0-1.6 1.6-1.6 2.4.0.8.0 2.4.0 3.2-.8.8-.8-1.6-2.4-1.6-.8.0-1.6 1.6-1.6 2.4s2.4 3.2 1.6 4-2.4-2.4-4-.8c-.8 1.6 3.2 4 4 4s0 .8.8 1.6c.8.8 1.6 1.6 2.4 1.6.8.8 1.6 2.4 1.6 4l-3.2-1.6v-.8-.8l-.8-.8h-.8c0 0 0 0-.8.8.0.0.0.0-.8-.8v0 0h-.8c0 0-.8.0-.8.8v0c0 .8.0.8.8 1.6.0.0.0.0.8.0v0 0 0c0 0 0 0 0 .8.0.0.0.8.8.8h.8c.8.0.8.0 1.6-.8l4 3.2c0 1.6.0 2.4.0 2.4v0 0 .8c-.8.0-1.6-.8-1.6.0s1.6 1.6.8 2.4c0 0-3.2-.8-3.2.0s0 2.4 1.6 2.4c1.6.8 5.6 1.6 4.8 1.6-.8.8-4.8-2.4-4.8.0s1.6 3.2 2.4 3.2c.8.0 4.8.0 4.8.8s-3.2.0-3.2.8c0 1.6 2.4 1.6 2.4 1.6.8.0 2.4.0 3.2.8s3.2 3.2 4 4v0 0h-2.4c0-.8.0-.8-.8-1.6l-.8-.8v0 0c0 0 0 0-.8.0.0.0.0.0.0.8v0c0 0 0 0 0 .8H184c-.8.0-.8.0-.8.0v0 0 0c0 0 .8.8 1.6.8v0 0 0 .8c0 0 0 0 .8.8v0c.8.0 1.6-.8 1.6-1.6h4c1.6.8 2.4 1.6 2.4 1.6v0 0 0 0c-.8.0-2.4.0-2.4.0.0.8 6.4 3.2 4 4-1.6.8-4-1.6-4 0-.8 1.6 1.6 3.2 2.4 3.2.8.8 6.4.0 5.6 1.6-.8 1.6-4.8-.8-5.6.8.0 1.6 2.4 4 4 4s3.2-2.4 4-.8-.8 1.6.0 2.4c1.6.0 2.4-1.6 4-.8 1.6.0 4 1.6 4.8 2.4h-3.2c0 0 0-.8-.8-.8l-.8-.8h-.8v.8c0 0 0 0 0 .8v0c-.8.0-.8.0-.8.0l-.8.8c0 0 0 .8.8.8h.8.8v0 .8h.8v0c0 0 .8.0.8-.8v-.8-.8h4c.8.8 1.6 1.6 1.6 1.6s-1.6.0-2.4.8c-.8.0-1.6 1.6-1.6 1.6s0 0 0 .8v0 0 0 0h1.6l.8-.8c0 0 0 .8.8.8s2.4-1.6 4-.8c1.6.8-2.4 1.6-1.6 3.2s3.2.8 4 0c.8.0 2.4-3.2 4-1.6.8 1.6-2.4 2.4-1.6 4 .8 1.6 2.4.8 4 .8.8-.8 3.2-4 4-3.2.8 1.6-1.6 2.4-1.6 4 .8.8 2.4.0 3.2-.8s1.6-2.4 3.2-3.2c1.6-.8 1.6-.8 1.6-.8v0c0 0 .8-.8 1.6-.8.8-.8 2.4-1.6 4-1.6.8.0 1.6.0 1.6.8-1.6.8-4 1.6-5.6 2.4s-2.4 1.6-3.2 2.4v0c0 0 .8.8 1.6.8s1.6-.8 1.6-.8 1.6-.8 3.2-2.4c.8-.8 3.2-1.6 4-1.6.0.8.0.8.0 1.6.0.8-1.6.8-4 3.2-2.4 2.4-3.2 4.8-3.2 4.8s.8-.8 1.6-.8 1.6-.8 1.6-.8v0c0 0 0 0 .8.0s.8.8 1.6.8c0 0 0 0 .8.8.0.8.8.8.8.8s.8-1.6 2.4-2.4c0 0 .8-.8 1.6-1.6.0.8.8.8 1.6 1.6.8.8 2.4.8 3.2 1.6.8.8 1.6.8 1.6.8l.8-.8.8-.8v0c0 0 0 0 .8-.8.8.0.8.0.8.0v0c0 0 0 0 1.6.0s1.6.8 1.6.8-1.6-2.4-2.4-3.2c-.8-.8-3.2-1.6-4.8-2.4-.8-.8-1.6-1.6-1.6-1.6v0V308c.8.0 2.4.8 4 1.6 1.6.8 2.4 1.6 2.4 2.4.0.0.8.8 1.6.8.8.0 1.6-.8.8-.8v0 0 0 0c0 0-.8-1.6-4-3.2-2.4-.8-4-1.6-4.8-1.6.0.0.0.0.0-.8.8.0 4.8.0 6.4.8s3.2 1.6 4.8 2.4c1.6 1.6 4.8 4 6.4 4 3.2.0 9.6-4 11.2-4 1.6-.8 3.2-.8 3.2-.8v0 0 0 0 0 0 0c0 0 0 0-.8.0.0.0.0.0.8.0.0.0-.8-.8-2.4-.8-.8.0-.8-.8-.8-.8-.8.0-2.4.0-2.4.0s1.6-1.6 2.4-1.6c.8-.8 2.4-1.6 2.4-1.6v0c0 0 .8-.8 1.6-1.6l4 2.4v0 .8.0.0.0l.8.8h.8c.8.0.8-.8.8-1.6V304l-.8-.8h-.8v0l-2.4-2.4c.8-.8 1.6-.8 2.4-.8 1.6.0 9.6.0 12.8-1.6 4-2.4 3.2-6.4 3.2-7.2.0-.8.8-1.6.8-1.6s-.8.0-1.6.0c-.8.0-1.6.8-1.6.8s0-1.6.8-2.4c0-.8.0-.8.0-1.6v0 0c.8.0.8.0 1.6-.8l3.2.8c0 .8.8 1.6 1.6 1.6.8.0 1.6-.8 1.6-1.6.0-.8-.8-1.6-1.6-1.6-.8.0-.8.0-1.6.8l-2.4-.8c0-.8.8-.8 1.6-1.6.0.0.8-.8 1.6-.8.8.0 2.4.0 4.8-1.6 3.2-1.6 4.8-6.4 5.6-8.8.8-2.4 3.2-4 3.2-4v0c0 0-1.6-.8-4.8 2.4.0.0.0-2.4.0-4 0-.8.0-1.6.0-2.4v-.8.0-.8l4.8-1.6.8.8c.8.0 1.6-.8 1.6-1.6.0-.8-.8-1.6-1.6-1.6-.8.0-1.6.8-1.6 1.6h-4v-.8c0-.8 1.6-1.6 2.4-3.2 1.6-1.6 5.6-3.2 5.6-7.2v0C327.2 244 325.6 243.2 324.8 242.4zM212.8 295.2v0 0 0zM252 308.8c0 0-.8000000000000114.0.0.0C251.2 308.8 251.2 308.8 252 308.8v0zM283.2 304v0 0zM304.8 285.6v0 0z"/></g><path style="fill:#006847" d="M178.4 264v0 0z"/><g><path style="fill:#03442d" d="M289.6 279.2l.8-.8c0 0 0 0 .8-.8h.8c.8.0 1.6-.8 1.6-.8h-.8H292v0V276c0-.8.0-1.6.0-2.4.0.0.0.0.0-.8.8.0.8-.8 1.6-.8.8-.8 1.6-1.6 1.6-2.4.0.0.8.0 1.6.0v-.8.0-1.6.8c0 0 0 0-.8.0v0c0 0 0 0 0-.8.0.0.0.0.8.0v0l1.6-2.4h.8c.8.0.8.0 1.6-.8v-.8c0-.8.0-.8-.8-1.6h-.8c-.8.0-.8.0-1.6.8v.8c0 0 0 0 0 .8l-2.4 1.6v0 0 0h-.8v-.8.0l-1.6-.8c0 0 0 0 0 .8H292l-.8.8v.8h.8c-.8.0-1.6.8-2.4 1.6-.8.8-.8.8-1.6 1.6-.8.0-.8-.8-1.6-.8-.8.0-.8-.8-1.6-.8H284v0 0 0l.8-1.6c0 0-.8.0-1.6.8v.8c-.8.0-.8.8-1.6.8-.8.8-1.6.8-2.4 1.6v0c0-.8.0-1.6.0-1.6l-.8.8c0 0 0 .8.0 1.6v0l-.8.8 8.8 7.2v0C288 280 288.8 279.2 289.6 279.2z"/><path style="fill:#03442d" d="M272.8 267.2l-.8-.8h-.8c-.8.0-.8.0-1.6.0.0.0.0-.8-.8-.8H268l7.2 6.4c0-.8.0-.8-.8-1.6v0 0 0 0c-.8-.8-.8-.8-.8-.8v0 0 0 0C273.6 268 273.6 267.2 272.8 267.2z"/><path style="fill:#03442d" d="M304.8 217.6l-1.6-3.2c-1.6-3.2-3.2-8-7.2-13.6-4.8-7.2-12-12-12.8-12 0 0 .8.0.8.8l-.8-.8v0 0 0 0c0 0 0-.8.8-.8.0.0 1.6-1.6.8-1.6-.8.0-2.4.0-3.2.0-.8.0-1.6.0-4.8-2.4.0.0-8.8-6.4-23.2-7.2-4.8.0-6.4 1.6-6.4 2.4v0c0 0 0 0 0 .8.0.0-.8.0-1.6.0s-2.4.0-3.2.8c-1.6.0-2.4.8-2.4 3.2v0c0 .8.0 1.6.8 2.4.0.8.8.8 1.6.8s1.6.0 3.2.8c1.6.0 2.4.8 4 2.4 1.6.8 1.6 2.4 2.4 3.2.0.8.0 1.6.0 2.4.0.8.0 1.6.0 1.6s0 0 0 .8c-.8-.8-.8-1.6-1.6-2.4-.8-1.6-2.4-3.2-3.2-3.2.0-.8.0-1.6.0-1.6s0 .8-1.6.8c-.8.0-1.6-.8-4-1.6-1.6-.8-2.4-.8-3.2-.8v0c0 0 0 0-.8.0h-.8c0-2.4-1.6-4-1.6-4v0 0c0 0 0 .8-.8 1.6.0.8-1.6 1.6-1.6 2.4.0-1.6-.8-3.2-.8-3.2v0c0-1.6-.8-1.6-.8-1.6v0 0c0 0 0 0 0 .8.0 2.4-.8 4.8-.8 5.6-.8.8-1.6.8-1.6.8.8-.8.8-.8.8-2.4.0-2.4-1.6-2.4-1.6-2.4s0 .8.0 3.2c0 1.6-1.6 3.2-1.6 3.2s0-.8.0-1.6c0-2.4-.8-2.4-.8-2.4v0c0 0 0 .8-.8 2.4-.8 2.4-1.6 2.4-2.4 4-2.4 2.4-3.2 2.4-3.2 3.2v.8.0.0.0.0.0.0.0c0 0 0 0 0 .8.0.0.0.0.0.8v0 0 0 0c0 0-.8.0-1.6.8v0c-.8.0-1.6.8-4 .8-.8.0-1.6.0-1.6-.8s0-.8.0-1.6c.8.0.8.0 1.6-.8.0.0.8-.8 1.6-.8 1.6-.8 2.4-2.4 2.4-2.4v0c0 0 0 0-.8.0.0.0-.8.8-1.6.8-1.6.8-3.2.8-3.2.8s0 0 0-.8v0c0 0 .8-.8.8-1.6l.8-.8c0-.8.0-.8.8-1.6v-.8c0 0 0-.8.8-.8.0.0.8.8.8 1.6s0 1.6.0 1.6c1.6.0.8-4 .8-4.8v0-.8l-.8-.8-1.6.8c0 0-.8.0-1.6.0s-5.6 4-5.6 5.6.8 2.4.8 3.2v0 0c0 1.6.0 6.4 2.4 7.2s6.4.0 6.4.0v0c0 .8.8.8 1.6 1.6s2.4 1.6 3.2 1.6.8.0 1.6-.8v0 0 .8.0.0.0c-1.6 3.2-4.8 4.8-7.2 7.2l4.8 4c1.6-1.6 3.2-2.4 4.8-4 2.4-2.4 4-4.8 4.8-7.2.0.0.0.0.0-.8.0-1.6-.8-3.2-1.6-4 .8.0 1.6-.8 2.4-.8.8.0 1.6-.8 2.4-1.6l.8-.8V2e2v0 0 0 0 0h.8c.8.8.8 1.6.8 1.6v0 0 0c0 0 0 .8-.8 1.6-2.4 4-3.2 4.8-3.2 4.8s0 0 .8.8v0 0 0 0c0 .8-1.6 1.6-1.6 3.2-.8 1.6-2.4 3.2-1.6 3.2s.8.0.8.0v0c0 0 0 0 0 .8-.8.8-3.2 4.8-3.2 6.4.0 2.4.8 1.6.8 4 .8 2.4.8 5.6.8 5.6v0 0c0 0 .8.0 1.6-.8.0.8.8 1.6 1.6 2.4.0.0.0.8.0 1.6l32 27.2c0-.8.0-1.6.0-2.4.8.8 1.6 1.6 1.6.8.8.0.0-1.6.0-2.4.0.0.0-.8.0-1.6.0.0.0.0.0-.8l5.6 6.4c0 0 .8.8 2.4.8.8.0 1.6-.8 1.6-.8s.8 1.6 3.2 1.6c1.6.0 2.4-.8 3.2-1.6.8.0.8.8.8.8 2.4.8 5.6-1.6 6.4-1.6h.8c4 .8 6.4-2.4 6.4-2.4l-1.6-1.6c0 0-4.8-4-12-8.8-5.6-4-11.2-8.8-13.6-10.4.0-1.6.0-4-.8-5.6-.8-2.4-1.6-3.2-1.6-4 .8-.8.8-1.6.8-2.4.0.0.0.0.8.0.8.8 1.6 2.4 3.2 3.2s1.6.0 2.4.8 4.8 6.4 4.8 6.4c.8.8.8 1.6.8 1.6l.8.8c.8.0.8.0.8-.8.0.0-1.6-1.6-2.4-3.2-.8-1.6-1.6-4.8-2.4-6.4v0c0 0 .8.0 1.6.0.8.0 4 3.2 4 4s0 1.6 1.6 4c1.6 3.2 2.4 4 2.4 4 0 .8.8 1.6 1.6 1.6.8.0.0-.8-.8-1.6.0-.8-.8-2.4-1.6-4.8-.8-2.4-1.6-5.6-1.6-5.6s0 0-.8-.8c0 0 0 0 .8.0l.8.8v0c.8.8 2.4 3.2 2.4 4 .8 1.6.8 4 1.6 6.4.8 2.4 1.6 4.8 2.4 4 0-.8.0-4.8-1.6-8-.8-3.2-1.6-7.2-1.6-8v0c0 0 .8.8 1.6 2.4.8 1.6.0 3.2 1.6 8s2.4 5.6 3.2 7.2c.8 1.6-.8 6.4.8 7.2.0.0.0-8 0-10.4s0-2.4-.8-8-.8-6.4-.8-6.4v0c0 0 .8.8 1.6 3.2.8 4 .8 9.6 1.6 11.2.8 1.6.8.8 1.6 3.2.8 1.6-.8 10.4.8 10.4 1.6.0.8-11.2.8-14.4s-.8-12.8-.8-13.6v0c.8.8 1.6 2.4 1.6 3.2v0 0c0 2.4.0 11.2.8 13.6.0 3.2.8 3.2.8 6.4.0 2.4-.8 5.6-.8 6.4s0 2.4.8 2.4.0-1.6.8-2.4c0-.8.8-.8.8-1.6.8-1.6.8-11.2 1.6-16s1.6-4 1.6-9.6c0-4.8-1.6-8.8-1.6-9.6.8.0.8.0 1.6.0.8.0.8-.8.8-.8C307.2 219.2 305.6 219.2 304.8 217.6zM218.4 222.4c0 0 0-.8000000000000114.0.0v0 0zM226.4 212.8v0l-.8-.8C225.6 212 226.4 212 226.4 212.8zM224.8 200.8v0 0c.8.0 1.6-.8 3.2-.8C226.4 2e2 226.4 200.8 224.8 200.8zM232.8 214.4v0 0 0zM239.2 208.8v0 0 0zM240 208.8v0 0 0zm0 0v0 0 0zM245.6 216v0 0 0zM246.4 204.8c0 0-.8000000000000114.0.0.0-.8000000000000114.0.0.0.0.0.0-.8000000000000114.0.0.0.0zM262.4 231.2v0 0 0zM262.4 230.4v0 0 0zM264 229.6v0 0 0 0z"/></g><g><path style="fill:#006847" d="M278.4 239.2v0 0z"/><path style="fill:#006847" d="M293.6 258.4v0 0z"/><path style="fill:#006847" d="M231.2 185.6v0 0z"/></g><g/><g/><g/><g/><g/><g/><g/><g/><g/><g/><g/><g/><g/><g/><g/></svg>