<svg xmlns="http://www.w3.org/2000/svg" width="385" height="385" xmlns:v="https://vecta.io/nano"><defs><linearGradient x1="212.624" y1="791.436" x2="472.283" y2="638.007" id="A" gradientUnits="userSpaceOnUse"><stop offset="0" stop-color="#909ca9"/><stop offset="1" stop-color="#ededee"/></linearGradient><linearGradient x1="188.331" y1="215.983" x2="397.26" y2="215.983" id="B" gradientUnits="userSpaceOnUse"><stop offset="0" stop-color="#939fab"/><stop offset="1" stop-color="#dcdee1"/></linearGradient><radialGradient cx="-1259.098" cy="-245.428" r="414.156" fx="-1259.098" fy="-245.428" id="C" gradientTransform="matrix(-0.6435342,-0.09731428,0.19435637,-1.2852688,-377.15369,-44.777181)" gradientUnits="userSpaceOnUse"><stop offset="0" stop-color="#ee352c"/><stop offset="1" stop-color="#a91d22"/></radialGradient></defs><g transform="matrix(.569301 0 0 .569301 -29.39672 -82.922488)"><path d="M469.04 461.903l-132.344 43.16-115.055 50.82-32.233 8.52c-8.172 7.768-16.844 15.657-26.08 23.693-10.152 8.834-19.7 16.84-26.96 22.626-8.084 6.443-20.103 18.37-26.247 26.017-9.14 11.377-16.288 23.5-19.36 32.84-5.53 16.787-2.835 33.79 7.828 49.48 13.62 20.044 40.737 40.41 72.273 54.273 16.086 7.072 43.232 16.188 63.587 21.328 33.922 8.566 99.482 17.873 135.588 19.256 7.323.28 17.07.254 17.52-.042.792-.523 6.413-11.167 12.935-24.49 22.2-45.33 38.245-87.825 46.885-124.118 5.23-21.976 9.31-51.28 11.95-86.025.74-9.733 1.008-42.194.44-53.227-.925-17.953-2.507-32.587-5.044-46.947-.372-2.105-.51-3.956-.314-4.123.368-.316 1.618-.717 17.875-5.442l-3.244-7.598zm-30.245 17.75c1.203 0 4.4 30.67 5.233 50.13.177 4.135.14 6.782-.105 6.782-.8 0-16.95-9.49-28.403-16.682-10.003-6.282-28.985-18.896-32.003-21.265-.952-.748-.852-.784 7.326-3.6 13.913-4.79 46.9-15.363 47.952-15.363zm-67.417 22.124c.855-.002 3.184 1.283 8.686 4.73 20.642 12.93 48.595 28.49 60.573 33.72 3.714 1.622 4.138.993-4.416 6.802-18.234 12.382-40.904 24.557-68.736 36.922l-9.126 3.914c-.166 0 .376-2.46 1.193-5.484 6.742-24.94 10.547-50.116 10.654-70.306.053-9.985.055-10.038 1.005-10.277.045-.01.1-.02.167-.02zm-13.877 5.295c.597.6.165 22.976-.565 29.073-1.75 14.627-4.613 28.155-9.19 43.536-1.093 3.675-2.118 6.843-2.28 7.033-.397.46-14.08-12.87-18.628-18.147-7.77-9.015-13.92-17.97-18.398-26.79-2.276-4.483-5.906-13.338-5.568-13.584 1.537-1.116 54.253-21.496 54.63-21.12zm-65.366 25.766c.123.012.22.046.272.105.197.217.894 1.843 1.55 3.62 3.187 8.656 10.354 21.516 16.577 29.742 6.795 8.98 15.653 18.55 23.066 24.907l4.92 4.228c.635.563.848.467-15.468 6.656-18.91 7.172-39.503 14.355-63.148 21.998l-16.933 5.484c-.9.334-.624-.22 2.01-4.333 11.748-18.342 29.546-54.222 39.496-79.6 1.726-4.402 3.368-8.8 3.663-9.796.433-1.448.86-1.94 2.22-2.554.752-.34 1.4-.497 1.78-.46zm-20.03 8.268c.266.234-4.806 10.946-9.796 20.68-9.678 18.88-20.348 37.46-34.515 60.134l-5.002 7.933c-.503.73-.71.5-2.26-2.595-3.39-6.745-6.233-15.256-7.702-23.17-1.455-7.833-1.207-21.394.544-29.805 1.3-6.25 1.244-6.11 4.186-7.62 12.722-6.52 54.13-25.92 54.545-25.556zm172.53 7.012v4.25c-.02 22.316-2.404 52.87-5.86 75.162l-1.172 7.18c-.04.04-2.86-.787-6.258-1.842-15.017-4.662-31.297-11.626-45.985-19.675-9.727-5.33-23.795-13.964-23.4-14.358.107-.107 4.25-2.303 9.21-4.877 19.64-10.195 38.402-21.185 54.713-32.087 6.12-4.1 15.276-10.7 17.3-12.496l1.444-1.256zm-248.07 29.575c.408-.02.304.754-.335 4.437-.444 2.56-.947 7.4-1.13 10.737-.805 14.628 1.568 25.42 8.833 40.187 2.02 4.106 3.6 7.528 3.516 7.598-.727.61-66.88 19.967-87.678 25.66l-11.993 3.307c-.722.217-.786.06-.523-1.633 2.278-14.676 13.473-33.938 29.114-50.108 10.4-10.75 18.725-17.118 32.882-25.2 10.16-5.8 25.94-14.506 27.105-14.944.078-.03.15-.04.21-.042zm156.038 27.942c.063-.075 2.514 1.237 5.442 2.93 21.367 12.357 51.185 23.948 76.606 29.763l2.302.523-3.16 1.758c-13.28 7.37-57.013 25.565-101.68 42.322l-14.128 5.337c-1.245.493-2.26.83-2.26.733s1.842-3.644 4.102-7.87c12.54-23.446 25.057-51.94 31.48-71.708.655-2.015 1.235-3.713 1.298-3.788zm-15.907 5.212c.07.07-.713 2.17-1.737 4.647-8.717 21.08-20.14 44.076-34.703 69.908l-6.95 11.93c-.12-.01-3.133-1.794-6.698-3.977-21.213-12.987-39.982-28.973-52.306-44.52l-1.758-2.198 9.147-2.512c32.626-8.938 60.293-18.496 87.804-30.35 3.896-1.678 7.132-3 7.2-2.93zm98.813 34.494c.047.01.063.043.063.084 0 2.224-5.047 22.802-9.25 37.696-3.527 12.493-6.488 22.265-11.972 39.58-2.422 7.647-4.502 13.888-4.626 13.856s-.705-.144-1.298-.25c-29.72-5.378-56.338-12.88-81.274-22.898-6.976-2.803-17.05-7.265-17.582-7.786-.18-.176 5.844-3.014 13.375-6.3 45.542-19.87 92.728-42.498 108.86-52.2 1.94-1.167 3.377-1.847 3.705-1.78zm-228.102 7.807c.244.23-12.495 18.467-30.287 43.368l-16.138 22.668c-2.69 3.812-6.758 9.846-9.063 13.417l-4.207 6.488-4.48-3.768c-5.256-4.413-14.455-13.782-18.628-18.984-8.588-10.705-14.406-21.97-16.703-32.317-1.06-4.777-1.09-7.21-.084-7.514 1.456-.44 28.172-6.728 53.227-12.537l35.77-8.393 10.59-2.428zm12.8 4.898l3.223 3.6c14.41 16.053 29.066 28.032 46.947 38.366 3.157 1.824 5.563 3.41 5.358 3.537-.744.46-61.833 22.18-90.085 32.024l-29.094 10.068c-.072-.01-.975-.6-1.988-1.32l-1.842-1.32 2.888-4.165c9.374-13.578 21.15-28.5 46.926-59.527l17.665-21.265zm79.83 57.057c.07-.088 4.537 1.495 9.942 3.516 13.028 4.872 23.254 8.05 37.09 11.512 16.993 4.253 41.55 8.507 56.094 9.733 2.233.188 3.372.443 3.014.67-.675.428-15.4 5.346-26.226 8.75-17.185 5.402-69.702 20.916-112.523 33.238l-15.09 4.29c-.96.2-4.312-.68-4.312-1.13 0-.214 2.4-3.253 5.316-6.74 14.393-17.216 28.69-36.445 40.626-54.63l6.07-9.21zm-17.686.502c.13.13-6.966 11.49-19.445 31.145l-13.29 20.993c-2.048 3.247-5.048 8.182-6.656 10.99l-2.93 5.107-1.486-.398c-3.586-.97-28.88-9.906-35.56-12.558-8.28-3.287-16.91-7.256-23.275-10.696-7.952-4.298-18.038-10.675-17.247-10.926.228-.072 13.912-3.817 30.39-8.31l83.994-23.777c2.972-.927 5.448-1.627 5.505-1.57zM406.875 744.8c.094-.02.138-.02.147 0 .415 1.037-15.815 45.988-21.747 60.238-1.33 3.192-1.82 3.965-2.512 3.935-1.68-.073-25.212-3.364-39.454-5.526-24.933-3.785-66.695-11.078-77.234-13.48l-2.45-.544 14.945-3.37c32.032-7.217 47.416-11.088 63.022-15.865 19.682-6.025 39.172-13.538 58.857-22.69 3.112-1.447 5.765-2.556 6.426-2.7z" fill="url(#A)"/><path d="M332.647 153.475c-2.213-.258-37.732 12.538-60.552 21.8-30.92 12.563-54.93 24.6-69.74 34.996-5.513 3.87-12.445 10.83-13.458 13.5-.38 1-.557 2.167-.565 3.37l13.437 12.684 31.877 10.172 75.936 13.563 86.8 14.924.88-7.45-.774-.126-11.428-1.8-2.323-4.08c-11.797-20.816-24.834-46.575-32.4-64.006-5.86-13.5-11.488-29.05-14.6-40.312-1.854-6.69-2.047-7.122-3.077-7.242zm-1.674 5.15c.088-.016.133-.017.147 0 .07.084.473 2.876.88 6.195 1.708 13.98 4.837 27.54 9.733 42.133 3.69 10.997 3.742 10.35-.65 9.126-10.207-2.85-55.937-10.698-89.018-15.28l-9.837-1.465c-.42-.42 23.857-13.14 34.62-18.147 13.803-6.422 51.4-22.07 54.127-22.563zm-96.385 44.77l3.872 1.32c21.24 7.23 74.474 17.4 103.9 19.842 3.32.276 6.11.57 6.195.65s-2.735 1.584-6.258 3.35c-14.195 7.11-29.82 15.778-40.626 22.542-3.174 1.987-6.085 3.59-6.468 3.558s-2.476-.367-4.668-.733l-3.998-.65-10.047-9.754-36.733-35.268-5.17-4.856zm-3.935 3.14l14.065 17.56 17.226 21.307c1.723 2.063 3.056 3.81 2.972 3.872-.4.292-20.385-3.6-30.977-6.028-10.874-2.493-15.37-3.687-22.103-5.84l-5.484-1.758.02-1.36c.07-6.746 8.572-16.696 23.003-26.875l1.277-.88zm119.786 23.924c.422.033.867.9 2.114 3.62 3.41 7.474 14.03 27.73 16.598 31.647.845 1.3 2.186 1.377-11.9-.9l-44.833-7.514c0-.13 1.016-.794 2.26-1.486 10.5-5.834 21.075-13.176 30.496-21.12l4.814-4.04c.163-.136.32-.22.46-.21z" fill="url(#B)"/><path d="M189.496 222.43s-2.198 3.485-.126 8.665c1.282 3.206 5.133 7.056 9.377 11.135l49.9 49.647c24.63 28.426 35.327 56.41 36.315 95.046.634 24.793-4.148 46.588-15.76 71.918-20.815 45.4-64.672 95.467-132.407 151.14l9.942-3.286c6.4-4.787 15.07-9.9 35.54-21.098 47.145-25.788 100.087-49.508 165.12-73.948 93.568-35.163 247.48-76.42 335.057-89.834l9.126-1.402-1.402-2.198c-8.008-12.447-13.474-20.122-20.052-28.256-19.21-23.754-42.463-43.136-70.955-59.087-39.153-21.92-89.936-38.955-154.133-51.72-12.136-2.413-38.715-6.97-60.343-10.34l-108.002-17.645-40.773-7.472c-6.044-1.307-17.53-4.023-26.456-7.095-7.37-2.902-17.748-5.707-19.968-14.17zm25.766 25.012c.062-.056 1.732.46 3.768 1.15 3.75 1.273 8.702 2.764 14.463 4.374l13.186 3.516 11.05 2.93c.666.75 10.767 32.987 14.212 45.357 1.315 4.72 2.313 8.655 2.22 8.75s-1.215-1.644-2.47-3.85c-11.686-20.55-30.193-41.45-51.594-58.27-2.668-2.097-4.835-3.877-4.835-3.956zm49.25 13.605c.515-.036 2.734.336 5.38.92 17.042 3.77 47.472 9.643 67.04 12.935 3.26.548 5.944 1.14 5.944 1.32s-1.218.95-2.7 1.695c-3.283 1.652-16.57 9.604-21.014 12.58-11.097 7.427-21.074 15.377-28.34 22.605l-5.442 5.275c-.08 0-.59-1.693-1.13-3.768-3.633-13.924-11.143-34.486-17.875-48.957-1.083-2.33-1.967-4.382-1.967-4.563 0-.023.03-.037.105-.04zm86.632 16.472c.57.2 1.648 3.554 3.558 11.114 3.657 14.477 5.36 30.735 4.793 45.775-.158 4.186-.423 8.073-.586 8.644l-.314 1.047-5.17-1.674c-10.657-3.407-28.07-8.534-42.99-12.663-8.477-2.346-15.426-4.44-15.426-4.647 0-.62 12.37-12.986 17.686-17.686 10.156-8.98 37.48-30.233 38.45-29.9zm6.886.984c.308-.287 41.398 6.828 60.07 10.403 13.918 2.664 34.055 6.88 35.268 7.388.586.245-1.498 1.38-8.184 4.395-26.446 11.926-46.037 22.57-65.513 35.603l-9.482 6.237c-.09 0-.165-2.865-.167-6.363-.013-18.992-3.805-38.16-10.758-54.357-.748-1.743-1.3-3.237-1.235-3.307zm106.244 21.014c.318.318-1.03 8.42-2.198 13.207-3.636 14.897-13.27 37.007-25.16 57.79-2.095 3.662-3.97 6.716-4.186 6.782s-2.925-1.358-6.007-3.16c-11.625-6.8-24.79-13.232-39.245-19.193-4.03-1.662-7.464-3.142-7.64-3.307-.66-.62 31.465-21.887 48.496-32.108 13.622-8.175 35.556-20.392 35.938-20zm7.598 1.193c.925 0 19.148 4.968 28.57 7.786 23.47 7.02 50.544 16.9 68.108 24.886l7.305 3.307-5.15 1.193c-42.975 9.873-79.81 21.265-115.286 35.666-2.948 1.197-5.513 2.177-5.693 2.177s.76-2.28 2.072-5.065c10.664-22.658 17.552-46.434 19.34-66.622.163-1.838.495-3.328.733-3.328zm-181.133 41.63c.29-.287 14.16 2.962 21.726 5.086 11.37 3.192 35.567 11.29 35.582 11.91 0 .12-2.667 2.445-5.923 5.17-13.08 10.944-25.7 22.387-40.815 36.984-4.48 4.327-8.29 7.85-8.477 7.85s-.272-.632-.167-1.402c2.276-16.803 1.787-38.38-1.38-60.343-.402-2.784-.645-5.154-.544-5.254zm292.066.272c.208.208-6.435 10.59-10.57 16.514-6.033 8.643-14.78 19.99-34.703 45.043l-26.247 33.09-7.41 9.168c-.096 0-1.378-1.804-2.847-3.998-11.232-16.78-24.56-31.518-40.46-44.75l-7.43-6.007c-1.116-.83-2.026-1.598-2.03-1.716-.01-.274 16.97-7.556 29.93-12.83 22.563-9.182 53.402-20.176 76.48-27.252 12.17-3.73 25.1-7.448 25.284-7.263zm7.66 2.01c.364-.074 2.786 1.098 5.693 2.763 24.306 13.923 48.123 31.803 66.852 50.192 5.328 5.23 18.36 18.79 18.168 18.9-.05.03-4.55.385-10.005.795-42.12 3.168-95.968 12.128-147.812 24.593l-6.76 1.55c-.196 0 3.658-3.87 8.56-8.582 30.446-29.27 44.336-47.752 60.678-80.77l4.584-9.42c.005-.016.018-.016.042-.02zm-222.618 22.814c1.39.312 14.375 6.354 24.175 11.26 8.962 4.487 22.535 11.714 23.212 12.35.085.08-4.696 2.577-10.633 5.547-18.794 9.403-34.89 18.282-51.7 28.55l-8.937 5.337c-.42 0-.254-.362 2.428-5.275 8.95-16.392 16.17-35.964 20.324-55.09.37-1.707.817-2.75 1.13-2.68zm-13.082 2.344c.27.27-3.098 12.647-5.233 19.256-4.094 12.676-11.015 28.61-17.665 40.605a313.09 313.09 0 0 1-5.316 9.168l-2.47 4.04-5.61-5.42c-6.518-6.32-11.828-10.243-18.607-13.73-2.665-1.37-4.832-2.64-4.835-2.826-.013-.824 17.053-16.344 30.224-27.482 9.428-7.973 29.27-23.85 29.512-23.6zm79.494 32.694l4.877 3.16c11.188 7.264 24.435 17.035 34.535 25.452 5.66 4.717 16.66 14.567 18.92 16.954l1.214 1.277-8.1 2.26c-45.813 12.71-81.208 24.027-122.507 39.203-4.583 1.684-8.54 3.077-8.812 3.077-.57 0-1.136.524 9.168-8.958 26.415-24.31 49.75-51.092 67.187-77.15l3.516-5.275zm-20.89 5.233c.24.24-13.538 19.536-21.726 30.433-9.795 13.037-27.24 34.83-39.245 49.02-5.015 5.928-9.312 10.847-9.544 10.926-.255.087-.414-1.365-.42-3.663-.023-12.106-3.086-25.045-8.498-36-2.286-4.627-2.67-5.747-2.198-6.174 1.883-1.708 31.025-18.324 49.396-28.173 12.62-6.765 31.993-16.608 32.233-16.368zm-126.337 30.956c.25 0 2.588 1.174 5.19 2.616 6.378 3.533 12.108 7.42 17.163 11.637.195.163-2.423 2.3-5.82 4.75-9.48 6.84-23.914 17.734-32.275 24.384-8.82 7.017-9.113 7.232-8.12 5.714 6.606-10.103 9.927-15.823 13.396-23.128 3.083-6.494 6.156-14.203 8.35-20.9.912-2.786 1.864-5.065 2.114-5.065zm33.656 26.414c.455-.056 1.103.792 3.81 4.835 5.703 8.52 10.07 19.885 11.198 29.135l.23 1.988-13.668 5.295c-24.534 9.52-47.118 18.905-62.373 25.89a651.68 651.68 0 0 0-16.724 8.016c-4.92 2.462-8.937 4.397-8.937 4.29s3.1-2.43 6.865-5.17c29.94-21.736 55.755-45.533 75.204-69.322 2.08-2.544 3.97-4.75 4.207-4.898.063-.04.123-.055.188-.063zm-15.53 3.85c.396.396-11.047 13.337-18.754 21.203-19.29 19.687-38.41 35.12-62.1 50.15l-6.028 3.788c-.65.38.2-.598 10.612-11.93 6.555-7.142 11.572-13.07 17.268-20.47 3.75-4.873 4.468-5.557 9.963-9.523 14.803-10.685 48.647-33.61 49.04-33.217z" fill="url(#C)"/></g></svg>