<svg xmlns="http://www.w3.org/2000/svg" xmlns:xlink="http://www.w3.org/1999/xlink" height="512" viewBox="0 0 64 64" width="512" xmlns:v="https://vecta.io/nano"><linearGradient id="A" gradientUnits="userSpaceOnUse" x1="34.5" x2="34.5" y1="-31.987" y2="-29.421"><stop offset="0" stop-color="#f3f7ff"/><stop offset=".99" stop-color="#b5d1ff"/></linearGradient><linearGradient id="B" gradientUnits="userSpaceOnUse" x1="10.396" x2="10.396" y1="30.449" y2="119.699"><stop offset="0" stop-color="#ff5252"/><stop offset="1" stop-color="#d50000"/></linearGradient><linearGradient id="C" x1="33.5" x2="33.5" xlink:href="#A" y1="-5.429" y2="153.977"/><linearGradient id="D" x1="50.538" x2="50.538" xlink:href="#A" y1="-23.429" y2="-3.999"/><linearGradient id="E" x1="27.396" x2="27.396" xlink:href="#B" y1="32.518" y2="84.952"/><linearGradient id="F" x1="9" x2="9" xlink:href="#B" y1="16.321" y2="43.66"/><path d="M56 64H13a1 1 0 0 1-1-1V1a1 1 0 0 1 1-1h32.662a1 1 0 0 1 .707.293L56.707 10.63a1 1 0 0 1 .293.707V63a1 1 0 0 1-1 1z" fill="url(#A)"/><path d="m7 32.946 4-1.767 2.792 4.285H7z" fill="url(#B)"/><path d="m55 64H12a1 1 0 0 1-1-1V1a1 1 0 0 1 1-1h33.076L56 10.924V63a1 1 0 0 1-1 1z" fill="url(#C)"/><path d="m45.076.0v9.924a1 1 0 0 0 1 1H56l-4.9-5.9z" fill="url(#D)"/><path d="M46.022 52.5H8.77A1.769 1.769 0 0 1 7 50.73V34.714h39.022a1.771 1.771 0 0 1 1.77 1.77V50.73a1.77 1.77 0 0 1-1.77 1.77z" fill="url(#E)"/><path d="M11 31.18H8.768a1.767 1.767 0 1 0 0 3.535H11z" fill="url(#F)"/><path d="M15 47.035V40.18a.868.868 0 0 1 .868-.869 28.119 28.119 0 0 1 3.977.129 2.416 2.416 0 0 1 1.735 2.514 2.482 2.482 0 0 1-1.916 2.584 18.245 18.245 0 0 1-2.651.123.279.279 0 0 0-.279.279v2.094a.867.867 0 1 1-1.734 0zm1.734-6v1.88a.279.279 0 0 0 .279.279 7.605 7.605 0 0 0 2.041-.135 1.172 1.172 0 0 0-.234-2.244 16.962 16.962 0 0 0-1.807-.059.279.279 0 0 0-.278.28zM23 40.18a.868.868 0 0 1 .868-.869 19.481 19.481 0 0 1 3.936.164 3.241 3.241 0 0 1 2.116 2.183 6.351 6.351 0 0 1 .281 2.03 5.635 5.635 0 0 1-.264 1.828 3.132 3.132 0 0 1-2.139 2.2 20.884 20.884 0 0 1-3.93.182.868.868 0 0 1-.868-.865zm1.734.864v5.13a.279.279 0 0 0 .279.279 10.917 10.917 0 0 0 2.065-.082 1.483 1.483 0 0 0 1.154-1.187 5.609 5.609 0 0 0 .176-1.573 5.133 5.133 0 0 0-.176-1.529 1.664 1.664 0 0 0-1.3-1.237 14.379 14.379 0 0 0-1.924-.082.279.279 0 0 0-.275.28zm6.948 5.99V40.18a.869.869 0 0 1 .869-.869h4.293a.727.727 0 0 1 .727.727.726.726 0 0 1-.727.726H33.7a.279.279 0 0 0-.279.28v1.474a.279.279 0 0 0 .279.28h2.58a.727.727 0 0 1 .727.726.728.728 0 0 1-.727.727H33.7a.279.279 0 0 0-.279.279v2.5a.868.868 0 0 1-.868.867.867.867 0 0 1-.871-.863z" fill="#fff"/></svg>