<svg xmlns="http://www.w3.org/2000/svg" width="2500" height="2490" viewBox="0 0 256 255" preserveAspectRatio="xMinYMin meet" xmlns:v="https://vecta.io/nano"><defs><linearGradient x1="12.959%" y1="12.039%" x2="79.639%" y2="78.201%" id="A"><stop stop-color="#387eb8" offset="0"/><stop stop-color="#366994" offset="100%"/></linearGradient><linearGradient x1="19.128%" y1="20.579%" x2="90.742%" y2="88.429%" id="B"><stop stop-color="#ffe052" offset="0"/><stop stop-color="#ffc331" offset="100%"/></linearGradient></defs><path d="M126.916.072c-64.832 0-60.784 28.115-60.784 28.115l.072 29.128h61.868v8.745H41.63S.145 61.355.145 126.77s36.2 63.097 36.2 63.097h21.6V159.51s-1.165-36.2 35.632-36.2h61.362s34.475.557 34.475-33.32V33.97S194.67.072 126.916.072zM92.802 19.66a11.12 11.12 0 1 1 0 22.26 11.12 11.12 0 1 1 0-22.26z" fill="url(#A)"/><path d="M128.757 254.126c64.832 0 60.784-28.115 60.784-28.115l-.072-29.127H127.6v-8.745h86.44s41.486 4.705 41.486-60.712-36.2-63.096-36.2-63.096h-21.6v30.355s1.165 36.2-35.632 36.2h-61.362s-34.475-.557-34.475 33.32v56.013s-5.235 33.897 62.518 33.897zm34.114-19.586a11.12 11.12 0 1 1 0-22.261 11.12 11.12 0 1 1 0 22.26z" fill="url(#B)"/></svg>