<svg xmlns="http://www.w3.org/2000/svg" xmlns:xlink="http://www.w3.org/1999/xlink" width="32" height="32" xmlns:v="https://vecta.io/nano"><defs><rect id="A" width="32" height="32" rx="16"/><path d="M20.897 20.9c-.02-.393-.092-.745-.217-1.056-.148-.37-.4-.7-.8-1.02s-.885-.6-1.526-.87-1.452-.55-2.437-.835c-1.032-.295-1.967-.63-2.803-1.006s-1.55-.808-2.136-1.298-1.04-1.05-1.355-1.676-.473-1.346-.473-2.154v-.128h2.782v.085c0 .438.092.837.28 1.198s.474.696.866 1 .896.585 1.513.84 1.356.505 2.216.743c1.185.333 2.208.7 3.068 1.106s1.57.862 2.13 1.375.974 1.1 1.247 1.726c.25.585.386 1.24.407 1.97H20.9zm-4.827 3.516v2.24c-.53-.016-1.06-.074-1.6-.172a9.67 9.67 0 0 1-1.844-.535c-.587-.24-1.132-.534-1.634-.886s-.94-.76-1.312-1.226-.664-1-.875-1.57a5.57 5.57 0 0 1-.315-1.91h2.767c0 .713.14 1.323.423 1.832s.66.93 1.133 1.263a4.94 4.94 0 0 0 1.634.734 7.85 7.85 0 0 0 1.613.23zm0-19.1l.187-.003c1.176 0 2.222.176 3.14.528s1.7.82 2.315 1.4 1.102 1.25 1.427 2 .486 1.545.486 2.354H20.86c0-.58-.094-1.118-.28-1.612a3.38 3.38 0 0 0-.853-1.284c-.383-.36-.86-.642-1.434-.84s-1.252-.3-2.036-.3h-.187V5.336z" id="B"/></defs><g fill="none" fill-rule="evenodd"><use fill="#5755d9" xlink:href="#A"/><rect stroke-opacity=".1" stroke="#000" stroke-width=".5" x=".25" y=".25" width="31.5" height="31.5" rx="15.75"/><use fill="#f1f1fc" xlink:href="#B"/><path stroke="#fff" stroke-width=".5" d="M21.128 20.66h2.276a4.94 4.94 0 0 0-.373-1.62c-.257-.604-.652-1.15-1.186-1.64-.54-.496-1.228-.94-2.066-1.335-.847-.398-1.857-.762-3.03-1.1-.868-.24-1.616-.492-2.243-.753-.636-.265-1.16-.556-1.57-.875-.42-.325-.733-.686-.937-1.08a2.81 2.81 0 0 1-.303-1.15H9.4c.016.72.165 1.36.446 1.92.3.597.73 1.13 1.292 1.597.57.474 1.262.895 2.078 1.262.825.37 1.748.7 2.77.993l2.466.844c.66.28 1.2.58 1.588.907.4.335.697.7.862 1.12a3.41 3.41 0 0 1 .216.9zm-5.308 4.003c-.5-.032-.966-.107-1.424-.224a5.18 5.18 0 0 1-1.717-.773 3.98 3.98 0 0 1-1.208-1.346c-.27-.485-.42-1.054-.45-1.703H8.756c.022.57.12 1.094.295 1.576.202.555.48 1.054.835 1.5s.778.838 1.26 1.177a8.02 8.02 0 0 0 1.585.857 9.32 9.32 0 0 0 1.795.52c.432.08.864.133 1.295.158v-1.742zm.5-19.08v1.754c.784.006 1.47.1 2.055.313.606.2 1.114.5 1.523.896a3.65 3.65 0 0 1 .916 1.378c.17.45.266.934.3 1.45h2.267a5.72 5.72 0 0 0-.46-2.006 5.61 5.61 0 0 0-1.368-1.926c-.6-.557-1.346-1.007-2.235-1.347-.87-.335-1.866-.505-2.987-.5z"/></g></svg>