<svg xmlns="http://www.w3.org/2000/svg" width="512" height="228" preserveAspectRatio="xMidYMid" xmlns:v="https://vecta.io/nano"><defs><linearGradient x1="57.6615627%" y1="2.04644676%" x2="57.6615584%" y2="94.4387516%" id="A"><stop stop-color="#97d9f6" offset="0"/><stop stop-color="#0f80cc" offset="92.024499%"/><stop stop-color="#0f80cc" offset="100%"/></linearGradient></defs><path d="M194.52 112.044c-6.82 0-12.367 2.02-16.62 6.055s-6.41 9.335-6.41 15.823c0 3.362.536 6.428 1.59 9.238 1.055 2.815 2.698 5.423 4.906 7.78s6.628 5.562 13.215 9.635c8.083 4.935 13.373 8.94 15.912 12.066s3.8 6.4 3.8 9.812c0 4.57-1.505 8.22-4.597 10.96-3.097 2.744-7.24 4.1-12.376 4.1-5.417 0-10.136-1.9-14.188-5.702-4.052-3.798-6.098-8.82-6.144-15.116h-2.52v22.85h2.52c.77-2.164 1.833-3.27 3.227-3.27.67 0 2.24.462 4.685 1.326 5.95 2.117 10.834 3.138 14.674 3.138 6.617 0 12.266-2.318 16.972-7.028 4.7-4.708 7.072-10.387 7.072-17.017 0-5.14-1.566-9.715-4.64-13.702s-9.054-8.635-17.99-13.967c-7.69-4.62-12.68-8.382-14.983-11.315s-3.492-6.17-3.492-9.724c0-3.845 1.413-6.934 4.2-9.238s6.437-3.448 11.006-3.448c5.14 0 9.427 1.526 12.818 4.597 3.387 3.076 5.346 7.34 5.923 12.818h2.52v-19.8h-2.343c-.286 1-.552 1.655-.796 1.945-.237.288-.693.442-1.37.442-.815 0-2.268-.343-4.33-1.017-4.42-1.49-8.495-2.254-12.243-2.254h0zm82.343 0c-8.31 0-15.857 1.96-22.674 5.878-6.828 3.912-12.232 9.345-16.22 16.265S232 148.456 232 156.287c0 10.52 3.444 19.895 10.387 28.1s15.27 13.327 24.928 15.293c2.208 1.15 5.368 4.12 9.503 8.928 4.66 5.425 8.603 9.338 11.845 11.67a35.59 35.59 0 0 0 10.431 5.171c3.7 1.126 7.698 1.68 12.022 1.68 5.237 0 9.925-.9 14.055-2.785l-.928-2.298c-2.397.865-4.954 1.282-7.646 1.282-3.654 0-7.348-1.205-11.05-3.624-3.697-2.425-8.32-7.053-13.834-13.878-2.592-3.27-4.38-5.334-5.392-6.144 10.567-2.064 19.257-7.185 26.033-15.38s10.166-17.543 10.166-28.022c0-12.443-4.427-22.9-13.215-31.425-8.796-8.526-19.612-12.818-32.442-12.818h0zm51.403 0l.133 2.696c5.534 0 8.633 1.63 9.326 4.906.258 1.172.377 3.336.398 6.453l-.044 59.624c-.046 4.453-.68 7.296-1.9 8.53-1.222 1.225-3.287 1.992-6.276 2.298l-.133 2.696h55.16l1.414-13.525h-2.52c-.72 3.684-2.37 6.324-4.994 7.823-2.632 1.5-7.288 2.254-14.01 2.254h-5.215c-6.05 0-9.55-2.187-10.475-6.586-.19-.87-.256-1.803-.265-2.83l.22-60.287c-.001-4.446.56-7.425 1.724-8.884 1.176-1.453 3.295-2.267 6.365-2.475l-.133-2.696h-28.774zm-50.52 3.27c9.374 0 17.027 3.692 22.94 11.138s8.84 17.658 8.84 30.586c0 12.25-2.972 22.06-8.928 29.436s-13.884 11.05-23.735 11.05c-9.464 0-17.14-3.79-23.028-11.403-5.884-7.615-8.796-17.5-8.796-29.657 0-12.492 2.947-22.492 8.884-29.967 5.933-7.466 13.878-11.182 23.823-11.182h0zm126.85 12.818c-1.345 0-2.37.454-3.138 1.37-.785.912-1.025 2.017-.75 3.36.265 1.302 1 2.443 2.166 3.403 1.16.96 2.41 1.46 3.757 1.46 1.3 0 2.293-.5 3.006-1.46s.93-2.102.663-3.403c-.274-1.342-.983-2.447-2.077-3.36-1.107-.916-2.323-1.37-3.624-1.37h0zm36.376 9.15c-2.286 8.794-7.242 13.553-14.85 14.32l.088 2.52h8.884l-.177 29.8c.014 5.093.17 8.484.53 10.2.875 4.132 3.573 6.232 8.088 6.232 6.533 0 13.385-3.98 20.552-11.934l-2.166-1.856c-5.175 5.238-9.75 7.867-13.746 7.867-2.456 0-3.978-1.412-4.552-4.2-.157-.677-.22-1.468-.22-2.387l.088-33.724h13.57l-.133-4.022h-13.392v-12.818h-2.564zm52.464 11.227c-7.6 0-13.764 3.684-18.564 11.006-4.775 7.333-6.253 15.458-4.376 24.398 1.105 5.236 3.306 9.294 6.674 12.155 3.363 2.86 7.63 4.287 12.73 4.287 4.75 0 11.36-1.202 14.144-3.624 2.8-2.42 5.36-6.342 7.735-11.713l-1.9-1.99c-3.787 6.968-11.43 10.475-17.193 10.475-7.924 0-12.777-4.347-14.586-12.994-.235-1.104-.4-2.3-.53-3.536 9.427-1.493 16.57-4.135 21.392-7.956s9.655-7.874 8.75-12.155a9.85 9.85 0 0 0-3.89-6.055c-2.058-1.51-7.4-2.298-10.387-2.298h0zm-82.96.31l-16.354 3.757v2.917l5.657-.707c2.74 0 4.353 1.24 4.862 3.713.17.827.28 1.99.31 3.448l-.177 26.74c-.046 3.7-.456 5.85-1.282 6.497-.833.647-3.03.972-6.586.972l-.088 2.52h25.945l-.044-2.52c-3.605 0-5.942-.284-6.983-.84-1.024-.552-1.73-1.556-2.033-3.094-.235-1.108-.338-3.018-.354-5.657l.088-37.746h-2.96zm78.807 4.95c1.58 0 3.105.6 4.64 1.812 1.515 1.198 2.438 2.53 2.74 3.978 1.48 7.11-4.823 12.024-19.006 14.762-.405-5.184.493-9.9 2.785-14.144 2.274-4.25 5.235-6.41 8.84-6.41h0z" fill="#003b57"/><path d="M157.888 9.952H17.15C7.717 9.952 0 17.67 0 27.103V182.3c0 9.432 7.717 17.15 17.15 17.15h92.694C108.79 153.338 124.54 63.83 157.888 9.952h0z" fill="#0f80cc"/><path d="M152.775 14.955H17.15c-6.698 0-12.148 5.45-12.148 12.148v143.883c30.716-11.79 76.817-21.96 108.693-21.5 6.406-33.493 25.23-99.133 39.08-134.532h0z" fill="url(#A)"/><path d="M190.715 4.872c-9.64-8.596-21.31-5.143-32.827 5.08-1.7 1.52-3.416 3.204-5.113 5.003-19.704 20.903-37.993 59.62-43.676 89.2 2.213 4.49 3.943 10.217 5.08 14.593l.766 3.073c.5 2.12.77 3.497.77 3.497s-.177-.668-.902-2.77l-.474-1.36a15.78 15.78 0 0 0-.304-.751c-1.285-2.988-4.84-9.294-6.405-12.04-1.338 3.948-2.52 7.64-3.51 10.983 4.517 8.265 7.27 22.43 7.27 22.43s-.24-.918-1.374-4.122c-1.008-2.834-6.027-11.628-7.216-13.684-2.034 7.508-2.842 12.577-2.113 13.81 1.415 2.392 2.762 6.518 3.946 11.08 2.673 10.28 4.53 22.796 4.53 22.796l.16 2.106c-.37 8.633-.15 17.584.52 25.675.886 10.7 2.553 19.9 4.678 24.834l1.443-.787c-3.12-9.7-4.388-22.414-3.833-37.076.84-22.41 5.997-49.437 15.526-77.606 16.1-42.523 38.435-76.64 58.878-92.934-18.632 16.827-43.85 71.296-51.4 91.467-8.453 22.587-14.442 43.784-18.053 64.092 6.23-19.04 26.367-27.222 26.367-27.222s9.878-12.182 21.42-29.585c-6.914 1.577-18.268 4.277-22.07 5.875-5.6 2.353-7.12 3.156-7.12 3.156s18.17-11.066 33.76-16.076c21.44-33.768 44.798-81.74 21.276-102.724" fill="#003b57"/></svg>